<?xml version="1.0" standalone="no"?>
<!DOCTYPE svg PUBLIC "-//W3C//DTD SVG 1.1//EN" "http://www.w3.org/Graphics/SVG/1.1/DTD/svg11.dtd" >
<svg xmlns="http://www.w3.org/2000/svg" xmlns:xlink="http://www.w3.org/1999/xlink" version="1.1">
<metadata></metadata>
<defs>
<font id="weissenhof_groteskregular" horiz-adv-x="637" >
<font-face units-per-em="1000" ascent="750" descent="-250" />
<missing-glyph horiz-adv-x="230" />
<glyph unicode="&#xfb01;" horiz-adv-x="580" d="M460 601q-22 0 -36 14t-14 37t14 37t36 14t36.5 -14.5t14.5 -36.5t-14.5 -36.5t-36.5 -14.5zM481 500q7 0 12 -5t5 -12v-466q0 -17 -17 -17h-42q-16 0 -16 17v415h-252v-415q0 -7 -5 -12t-12 -5h-42q-17 0 -17 17v415h-77q-17 0 -17 16v35q0 7 5 12t12 5h77v15 q0 101 35 143t134 42h16q7 0 12 -5t5 -12v-36q0 -17 -17 -17h-16q-59 0 -76 -21t-17 -94v-15h281h29z" />
<glyph unicode="&#xfb02;" horiz-adv-x="576" d="M481 700q7 0 12 -5t5 -12v-666q0 -17 -17 -17h-42q-16 0 -16 17v613h-159q-59 0 -76 -21t-17 -94v-15h109q7 0 12 -5t5 -12v-35q0 -16 -17 -16h-109v-415q0 -7 -5 -12t-12 -5h-42q-17 0 -17 17v415h-77q-17 0 -17 16v35q0 7 5 12t12 5h77v15q0 101 35 143t134 42h193h24z " />
<glyph horiz-adv-x="0" />
<glyph horiz-adv-x="333" />
<glyph unicode=" "  horiz-adv-x="230" />
<glyph unicode="&#x09;" horiz-adv-x="230" />
<glyph unicode="&#xa0;" horiz-adv-x="230" />
<glyph unicode="!" horiz-adv-x="234" d="M95 183q-17 0 -17 16v484q0 7 5 12t12 5h42q7 0 12 -5t5 -12v-484q0 -16 -17 -16h-42zM117 109q26 0 42 -16t16 -42t-16 -41.5t-42 -15.5t-42 15.5t-16 41.5q0 25 16.5 41.5t41.5 16.5z" />
<glyph unicode="&#x22;" horiz-adv-x="385" d="M99 448q-14 0 -17 16l-13 110q-2 12 -2 27v82q0 7 5 12t12 5h44q7 0 12 -5t5 -12v-82q0 -14 -1 -27l-14 -110q-2 -16 -17 -16h-14zM272 448q-15 0 -17 16l-14 110q-1 12 -1 27v82q0 7 4.5 12t11.5 5h44q7 0 12.5 -5t5.5 -12v-82q0 -14 -1 -27l-14 -110q-3 -16 -18 -16 h-13z" />
<glyph unicode="#" horiz-adv-x="727" d="M396 0q-11 0 -11 12q0 2 2 16l28 152h-164l-31 -164q-4 -16 -19 -16h-36q-11 0 -11 11q0 9 2 18l28 151h-96q-17 0 -17 17v33q0 17 17 17h109l35 186h-98q-16 0 -16 16v34q0 17 16 17h111l31 166q4 14 18 14h36q11 0 11 -11q0 -7 -1 -13l-30 -156h166l31 166q3 14 18 14 h36q11 0 11 -11q0 -7 -1 -13l-30 -156h98q7 0 12 -5t5 -12v-34q0 -16 -17 -16h-110l-35 -186h98q18 0 18 -17v-33q0 -17 -18 -17h-110l-31 -164q-4 -16 -19 -16h-36zM263 247h165l35 186h-165z" />
<glyph unicode="$" horiz-adv-x="594" d="M544 185q0 -91 -59 -138.5t-149 -55.5v-83q0 -16 -17 -16h-31q-16 0 -16 16v83q-59 5 -104 28t-70 55.5t-37 65.5t-12 64q0 18 16 18h43q15 0 17 -17q1 -20 8.5 -42t25.5 -47.5t55 -41.5t89 -16q165 0 165 127q0 42 -29.5 68.5t-73.5 37.5t-95.5 26.5t-95.5 33.5 t-73.5 60t-29.5 105q0 86 53.5 131.5t147.5 51.5v87q0 15 14 15h35q15 0 15 -15v-87q53 -5 92.5 -24t59.5 -46.5t29 -55t9 -55.5q0 -17 -17 -17h-42q-14 0 -16 16q-4 52 -37 83.5t-113 31.5q-75 0 -114.5 -25.5t-39.5 -90.5q0 -40 22 -66.5t57 -40.5t77.5 -24.5t84.5 -23.5 t77 -32t57 -55.5t22 -88.5z" />
<glyph unicode="%" horiz-adv-x="860" d="M37 540q0 79 42 123t116 44t116 -44t42 -123v-39q0 -79 -42 -122t-116 -43t-116 43t-42 122v39zM221 0q-11 0 -11 11q0 4 5 14l362 663q8 12 18 12h43q11 0 11 -11q0 -7 -5 -15l-361 -660q-9 -14 -18 -14h-44zM104 501q0 -105 91 -105q92 0 92 105v39q0 106 -92 106 q-91 0 -91 -106v-39zM507 198q0 79 42 122.5t116 43.5q75 0 116.5 -43.5t41.5 -122.5v-39q0 -79 -42 -122.5t-116 -43.5t-116 43.5t-42 122.5v39zM574 158q0 -105 91 -105q92 0 92 105v40q0 105 -92 105q-91 0 -91 -105v-40z" />
<glyph unicode="&#x26;" horiz-adv-x="630" d="M467 63q-73 -73 -183 -73q-116 0 -171 57t-55 131q0 67 35 111.5t98 84.5q-1 1 -11 13.5t-13 16.5l-12 16t-12.5 18.5t-11 18.5t-10.5 21l-7 21t-5.5 24t-1.5 24q0 44 16.5 77t44 51t58.5 26.5t64 8.5q78 0 124.5 -46t46.5 -114q0 -28 -10.5 -53t-23.5 -42t-39 -36.5 t-43.5 -30t-50.5 -28.5l164 -184q30 67 30 164q0 18 17 18h38q17 0 17 -18q0 -129 -51 -222l81 -91q9 -9 9 -16q0 -11 -11 -11h-56q-8 0 -15 7zM251 408q37 20 53 30t40 29t34 38.5t10 43.5q0 47 -27.5 70.5t-70.5 23.5q-110 0 -110 -96q0 -35 16 -65.5t55 -73.5zM420 116 l-185 209q-51 -32 -77.5 -65t-26.5 -79q0 -51 37 -86t116 -35q82 0 136 56z" />
<glyph unicode="'" horiz-adv-x="213" d="M99 448q-14 0 -17 16l-13 110q-2 12 -2 27v82q0 7 5 12t12 5h44q7 0 12 -5t5 -12v-82q0 -14 -1 -27l-14 -110q-2 -16 -17 -16h-14z" />
<glyph unicode="(" horiz-adv-x="302" d="M270 803q4 1 9 1q12 0 12 -11v-47q0 -10 -18 -16q-70 -26 -100.5 -79.5t-30.5 -148.5v-322q0 -182 131 -226q18 -5 18 -17v-46q0 -11 -12 -11q-3 0 -9 2q-202 52 -202 298v323q0 245 202 300z" />
<glyph unicode=")" horiz-adv-x="302" d="M234 503v-323q0 -246 -202 -298q-6 -2 -9 -2q-12 0 -12 11v46q0 12 18 17q131 44 131 226v322q0 95 -30.5 148.5t-100.5 79.5q-18 6 -18 16v47q0 11 12 11q5 0 9 -1q202 -55 202 -300z" />
<glyph unicode="*" horiz-adv-x="440" d="M347 386q7 -10 -3 -17l-34 -24q-9 -6 -16 3l-73 105l-73 -105q-7 -9 -16 -3l-34 24q-10 7 -3 17l75 109l-119 45q-11 4 -6 13l14 40q4 11 15 7l114 -41v129q0 12 12 12h41q12 0 12 -12v-131l117 43q10 4 14 -7l14 -39q5 -10 -7 -15l-120 -45z" />
<glyph unicode="+" horiz-adv-x="622" d="M290 100q-17 0 -17 17v198h-191q-16 0 -16 17v37q0 17 16 17h191v197q0 7 5 12t12 5h41q7 0 12.5 -5t5.5 -12v-197h189q18 0 18 -17v-37q0 -17 -18 -17h-189v-198q0 -17 -18 -17h-41z" />
<glyph unicode="," horiz-adv-x="219" d="M109 109q61 0 61 -78q0 -39 -10 -71t-24 -51.5t-30.5 -33t-28 -19t-17.5 -5.5q-8 0 -8 11v33q0 12 11 18q35 25 43 81q-25 2 -40 17t-15 41q0 25 16.5 41t41.5 16z" />
<glyph unicode="-" horiz-adv-x="403" d="M343 281q0 -17 -17 -17h-249q-17 0 -17 17v38q0 18 17 18h249q17 0 17 -18v-38z" />
<glyph unicode="." horiz-adv-x="219" d="M109 109q26 0 42 -16t16 -42t-16 -41.5t-42 -15.5t-42 15.5t-16 41.5q0 25 16.5 41.5t41.5 16.5z" />
<glyph unicode="/" horiz-adv-x="424" d="M35 0q-11 0 -11 11q0 6 4 14l296 663q4 12 17 12h48q11 0 11 -11q0 -5 -4 -13l-295 -662q-7 -14 -18 -14h-48z" />
<glyph unicode="0" horiz-adv-x="585" d="M67 427q0 128 57.5 200.5t167.5 72.5q111 0 168.5 -72.5t57.5 -200.5v-164q0 -128 -58 -200.5t-168 -72.5q-111 0 -168 72.5t-57 200.5v164zM140 261q0 -201 152 -201q153 0 153 201v167q0 202 -153 202q-152 0 -152 -202v-167z" />
<glyph unicode="1" horiz-adv-x="411" d="M391 17q0 -17 -17 -17h-320q-17 0 -17 17v34q0 17 17 17h127v461h-127q-6 0 -11.5 4t-5.5 13v29q0 17 17 17q34 0 58.5 7.5t37.5 21.5t19 25t11 27q6 17 21 17h35q7 0 12.5 -5t5.5 -12v-605h120q17 0 17 -17v-34z" />
<glyph unicode="2" horiz-adv-x="515" d="M378 330q77 80 77 178q0 76 -50.5 134t-149.5 58q-51 0 -90 -16t-59.5 -37.5t-33 -48.5t-16 -45t-3.5 -32q0 -17 17 -17h39q7 0 12 5t5 12q0 50 37 80.5t91 30.5q57 0 91 -32.5t34 -91.5q0 -71 -66 -144l-247 -270q-18 -20 -18 -40v-37q0 -17 17 -17h382q17 0 17 17v37 q0 18 -17 18h-308z" />
<glyph unicode="3" horiz-adv-x="546" d="M383 360q101 -51 101 -175q0 -76 -56.5 -135.5t-163.5 -59.5q-58 0 -102 19.5t-67 49t-34.5 56.5t-12.5 49q0 18 17 18h38q14 0 18 -17q10 -52 50 -79.5t94 -27.5q68 0 106.5 36.5t38.5 96.5q0 64 -35.5 97.5t-97.5 33.5h-46q-16 0 -16 16v36q0 17 16 17h46 q51 0 87.5 33.5t36.5 86.5q0 59 -39 90t-97 31q-54 0 -93 -28t-44 -80q-2 -16 -17 -16h-39q-17 0 -17 16q1 24 12 51t33.5 57t66 49t101.5 19q98 0 152.5 -55t54.5 -130q0 -103 -92 -155z" />
<glyph unicode="4" horiz-adv-x="541" d="M513 148q0 -16 -17 -16h-80v-115q0 -17 -17 -17h-37q-17 0 -17 17v115h-305q-16 0 -16 16v35q0 18 8 29l293 463q11 15 22 15h52q7 0 12 -5t5 -12v-475h80q7 0 12 -5.5t5 -12.5v-32zM345 589l-245 -391h245v391z" />
<glyph unicode="5" horiz-adv-x="549" d="M496 228v12q0 107 -62 162.5t-144 55.5q-85 0 -147 -54l18 214h284q17 0 17 17v38q0 7 -5 12t-12 5h-332q-15 0 -16 -17l-27 -357q-1 -7 3.5 -12t12.5 -5h27q4 0 7 1t6.5 3.5t5 4t5.5 7.5t6 8q56 67 141 67q58 0 98 -42t40 -108v-12q0 -79 -37 -125t-108 -46 q-105 0 -140 102q-9 17 -20 17h-43q-12 0 -12 -13q2 -14 7.5 -32t21 -44t37.5 -46.5t61 -35.5t87 -15q108 0 164 68t56 170z" />
<glyph unicode="6" horiz-adv-x="576" d="M70 221v210q0 126 58.5 197.5t167.5 71.5q96 0 150.5 -53.5t54.5 -117.5q0 -14 -15 -14h-43q-11 0 -13 11q-4 50 -42 78t-94 28q-73 0 -112 -51t-39 -147v-67q19 31 61.5 53t92.5 22q102 0 161.5 -62t59.5 -155v-4q0 -103 -61 -167t-163 -64q-104 0 -164 63t-60 168z M143 226v-5q0 -80 42 -121.5t109 -41.5t109 41.5t42 121.5v5q0 65 -43.5 106.5t-107.5 41.5t-107.5 -41.5t-43.5 -106.5z" />
<glyph unicode="7" horiz-adv-x="471" d="M423 690q7 0 12 -5t5 -12v-24q0 -10 -11 -40l-253 -591q-7 -18 -23 -18h-47q-12 0 -12 11q0 3 4 11l262 600h-323q-16 0 -16 16v35q0 7 4.5 12t11.5 5h386z" />
<glyph unicode="8" horiz-adv-x="585" d="M77 519q0 75 54 128t162 53t161.5 -53t53.5 -128v-7q0 -109 -90 -151q105 -46 105 -162v-11q0 -96 -65 -147t-165 -51q-101 0 -166 51t-65 147v11q0 59 29.5 100.5t76.5 62.5q-41 17 -66 57.5t-25 92.5v7zM151 509q0 -57 38.5 -86.5t103.5 -29.5t103 29.5t38 86.5v7 q0 117 -141 117q-65 0 -103.5 -29.5t-38.5 -87.5v-7zM135 186q0 -62 45.5 -95.5t112.5 -33.5t112 33.5t45 95.5v16q0 60 -45 91.5t-112 32.5q-67 0 -112.5 -33.5t-45.5 -90.5v-16z" />
<glyph unicode="9" horiz-adv-x="576" d="M433 323q-19 -31 -61.5 -53t-91.5 -22q-102 0 -161.5 62t-59.5 155v4q0 102 60.5 166.5t162.5 64.5q104 0 164 -63t60 -168v-210q0 -126 -58 -197.5t-167 -71.5q-97 0 -151 53t-54 118q0 14 15 14h42q13 0 13 -11q4 -50 42.5 -78t93.5 -28q74 0 112.5 51t38.5 147v67z M433 464v5q0 80 -42 121.5t-109 41.5q-66 0 -108 -41.5t-42 -121.5v-5q0 -65 43 -106.5t107 -41.5t107.5 41.5t43.5 106.5z" />
<glyph unicode=":" horiz-adv-x="226" d="M113 506q26 0 42 -16t16 -42q0 -25 -16 -41t-42 -16t-42 15.5t-16 41.5t16 42t42 16zM113 109q25 0 41.5 -16.5t16.5 -41.5q0 -26 -16 -41.5t-42 -15.5t-42 15.5t-16 41.5t16 42t42 16z" />
<glyph unicode=";" horiz-adv-x="228" d="M117 506q26 0 41.5 -16t15.5 -42t-16 -41.5t-41 -15.5q-26 0 -42 15.5t-16 41.5t16 42t42 16zM113 109q60 0 60 -78q0 -39 -10 -71t-24 -51.5t-30 -33t-27.5 -19t-17.5 -5.5q-8 0 -8 11v33q0 12 11 18q35 26 42 81q-24 2 -39 17t-15 41q0 25 16 41t42 16z" />
<glyph unicode="&#x3c;" horiz-adv-x="539" d="M139 351l338 -183q10 -6 10 -15v-54q0 -11 -11 -11q-4 0 -12 4l-406 219q-11 5 -11 15v49q0 9 10 15l409 227q8 4 10 4q11 0 11 -11v-52q0 -10 -11 -15z" />
<glyph unicode="=" horiz-adv-x="622" d="M556 439q0 -16 -18 -16h-456q-16 0 -16 16v38q0 7 4.5 12t11.5 5h456q7 0 12.5 -5t5.5 -12v-38zM556 216q0 -17 -18 -17h-456q-16 0 -16 17v37q0 17 16 17h456q18 0 18 -17v-37z" />
<glyph unicode="&#x3e;" horiz-adv-x="539" d="M400 351l-338 -183q-11 -6 -11 -15v-54q0 -11 12 -11q4 0 12 4l406 219q10 6 10 15v49q0 9 -10 15l-408 227q-8 4 -10 4q-12 0 -12 -11v-52q0 -9 11 -15z" />
<glyph unicode="?" horiz-adv-x="505" d="M258 183q17 0 17 16v21q0 39 18.5 71t45 56t53.5 49t45.5 60.5t18.5 79.5q0 82 -55.5 128t-153.5 46q-53 0 -93.5 -16.5t-62 -39t-35.5 -51.5t-18 -47.5t-5 -34.5q-1 -6 3.5 -10t10.5 -4h39q13 0 16 13q13 56 31 79q35 42 114 42q57 0 95 -24.5t38 -80.5q0 -34 -18.5 -63 t-45 -51.5t-52.5 -47.5t-44.5 -64.5t-18.5 -89.5v-21q0 -16 16 -16h41zM239 109q25 0 41.5 -16.5t16.5 -41.5q0 -26 -16 -41.5t-42 -15.5t-42 15.5t-16 41.5t16 42t42 16z" />
<glyph unicode="@" horiz-adv-x="966" d="M724 -126q0 -12 -7 -16q-26 -17 -89 -34.5t-143 -17.5q-191 0 -310.5 112t-119.5 323v40q0 199 119 314t318 115q189 0 302.5 -113.5t113.5 -288.5v-33q0 -75 -17.5 -128t-46.5 -78.5t-57 -36t-58 -10.5q-91 0 -121 73q-43 -80 -139 -80q-76 0 -128.5 51.5t-52.5 149.5 v72q0 98 51 151.5t123 53.5q83 0 122 -66v41q0 18 17 18h42q7 0 12 -5.5t5 -12.5v-283q0 -98 72 -98q45 0 75 46t30 144v33q0 61 -20.5 119t-60.5 107.5t-108.5 79.5t-155.5 30q-167 0 -267 -97t-100 -268v-42q0 -95 29.5 -167.5t80 -115.5t114 -64.5t136.5 -21.5 q127 0 215 47q8 3 13 3q11 0 11 -11v-35zM584 300q0 66 -29.5 97t-79.5 31q-49 0 -80 -35t-31 -101v-76q0 -66 31 -101t80 -35q48 0 78.5 28t30.5 93v99z" />
<glyph unicode="A" horiz-adv-x="632" d="M603 26q5 -10 5 -15q0 -11 -12 -11h-51q-12 0 -16 11l-63 176h-304l-62 -176q-4 -11 -14 -11h-50q-12 0 -12 11q0 5 7 21l237 652q5 16 18 16h57q12 0 18 -15zM188 256h253l-128 356z" />
<glyph unicode="B" horiz-adv-x="630" d="M466 364q53 -21 82 -65t29 -99v-13q0 -52 -19.5 -89.5t-53.5 -58t-74.5 -30t-88.5 -9.5h-239q-17 0 -17 17v666q0 7 5 12t12 5h236q102 0 161 -43.5t59 -133.5v-15q0 -100 -92 -144zM161 629v-231h182q139 0 139 108v15q0 108 -147 108h-174zM501 190v11q0 67 -44 96.5 t-112 29.5h-184v-256h184q156 0 156 119z" />
<glyph unicode="C" horiz-adv-x="626" d="M559 236q11 0 11 -13q-5 -96 -75 -164.5t-176 -68.5q-111 0 -184 75.5t-73 197.5v174q0 123 72.5 198t183.5 75q105 0 172 -63.5t79 -159.5q1 -15 -14 -15h-51q-10 0 -13 15q-10 65 -55.5 108.5t-117.5 43.5q-78 0 -129 -54.5t-51 -147.5v-174q0 -93 51.5 -147.5 t129.5 -54.5q73 0 119 44.5t55 117.5q2 13 12 13h54z" />
<glyph unicode="D" horiz-adv-x="640" d="M102 0q-17 0 -17 17v666q0 7 5 12t12 5h219q111 0 184.5 -74.5t73.5 -197.5v-155q0 -123 -73.5 -198t-184.5 -75h-219zM161 629v-558h160q77 0 128.5 54.5t51.5 147.5v154q0 93 -51.5 147.5t-128.5 54.5h-160z" />
<glyph unicode="E" horiz-adv-x="563" d="M517 645q0 -16 -17 -16h-339v-239h272q7 0 12 -5t5 -12v-38q0 -16 -17 -16h-272v-248h339q17 0 17 -17v-37q0 -17 -17 -17h-398q-17 0 -17 17v666q0 7 5 12t12 5h398q7 0 12 -5t5 -12v-38z" />
<glyph unicode="F" horiz-adv-x="548" d="M517 645q0 -16 -17 -16h-339v-261h272q7 0 12 -5.5t5 -12.5v-37q0 -7 -5 -12t-12 -5h-272v-279q0 -17 -17 -17h-42q-17 0 -17 17v666q0 7 5 12t12 5h398q7 0 12 -5t5 -12v-38z" />
<glyph unicode="G" horiz-adv-x="649" d="M325 286q-17 0 -17 17v36q0 7 5 12t12 5h228q7 0 12.5 -5t5.5 -12v-322q0 -17 -18 -17h-35q-17 0 -17 17v70q-25 -45 -74.5 -71t-109.5 -26q-117 0 -186 78.5t-69 194.5v174q0 123 73 198t184 75q104 0 169 -60t81 -152q2 -8 2 -16q0 -10 -11 -10h-53q-12 0 -13 15 q-8 61 -54 106.5t-121 45.5q-78 0 -129.5 -55t-51.5 -149v-172q0 -93 52 -147.5t130 -54.5q85 0 131 56t46 117v52h-172z" />
<glyph unicode="H" horiz-adv-x="661" d="M517 0q-17 0 -17 17v306h-339v-306q0 -17 -17 -17h-42q-17 0 -17 17v666q0 7 5 12t12 5h42q7 0 12 -5t5 -12v-288h339v288q0 7 5 12t12 5h42q7 0 12 -5t5 -12v-666q0 -17 -17 -17h-42z" />
<glyph unicode="I" horiz-adv-x="246" d="M102 0q-17 0 -17 17v666q0 7 5 12t12 5h42q7 0 12 -5t5 -12v-666q0 -17 -17 -17h-42z" />
<glyph unicode="J" horiz-adv-x="487" d="M400 700q7 0 12 -5t5 -12v-478q0 -99 -58 -157t-143 -58q-82 0 -141 58.5t-59 156.5v22q0 18 16 18h42q7 0 12 -5.5t5 -12.5v-24q0 -68 36 -105t89 -37q52 0 88.5 37t36.5 105v480q0 7 5 12t12 5h42z" />
<glyph unicode="K" horiz-adv-x="612" d="M333 410l241 -381q8 -13 8 -18q0 -11 -11 -11h-58q-12 0 -20 14l-214 340l-118 -129v-208q0 -17 -17 -17h-42q-17 0 -17 17v666q0 7 5 12t12 5h42q7 0 12 -5t5 -12v-361l329 360q16 18 27 18h55q11 0 11 -11q0 -8 -13 -21z" />
<glyph unicode="L" horiz-adv-x="552" d="M524 17q0 -17 -17 -17h-405q-17 0 -17 17v666q0 7 5 12t12 5h42q7 0 12 -5t5 -12v-612h346q17 0 17 -17v-37z" />
<glyph unicode="M" horiz-adv-x="836" d="M733 700q7 0 12 -5t5 -12v-666q0 -17 -17 -17h-40q-17 0 -17 17v576l-222 -581q-6 -12 -17 -12h-39q-10 0 -16 11l-223 582v-576q0 -7 -5 -12t-12 -5h-40q-17 0 -17 17v666q0 7 5 12t12 5h80q12 0 15 -10l221 -585l224 584q5 11 14 11h77z" />
<glyph unicode="N" horiz-adv-x="674" d="M572 700q7 0 12 -5t5 -12v-666q0 -7 -5 -12t-12 -5h-34q-15 0 -28 19l-350 554v-556q0 -7 -5 -12t-12 -5h-41q-17 0 -17 17v666q0 7 5 12t12 5h50q12 0 19 -14l343 -542v539q0 7 5 12t12 5h41z" />
<glyph unicode="O" d="M62 437q0 123 72.5 198t183.5 75t184.5 -75.5t73.5 -197.5v-174q0 -122 -73 -197.5t-184 -75.5t-184 75.5t-73 197.5v174zM138 263q0 -93 51.5 -147.5t129.5 -54.5q77 0 128.5 54.5t51.5 147.5v172q0 94 -51.5 149t-129.5 55t-129 -55t-51 -149v-172z" />
<glyph unicode="P" horiz-adv-x="597" d="M341 263q97 0 156.5 57.5t59.5 156.5v20q0 97 -59 150t-157 53h-239q-7 0 -12 -5t-5 -12v-666q0 -17 17 -17h42q17 0 17 17v246h180zM161 629h176q63 0 103.5 -32t40.5 -101v-21q0 -70 -41.5 -105.5t-102.5 -35.5h-176v295z" />
<glyph unicode="Q" d="M604 53q7 -6 7 -13t-4 -12l-18 -22q-6 -6 -13 -6q-5 0 -15 8l-63 53q-69 -71 -179 -71q-111 0 -184 75.5t-73 197.5v174q0 123 72.5 198t183.5 75t184.5 -75.5t73.5 -197.5v-174q0 -87 -39 -153zM319 61q72 0 122 48l-122 104q-6 6 -6 12q0 8 5 12l14 18q7 9 16 9 q6 0 13 -6l116 -98q22 46 22 103v172q0 94 -51.5 149t-129.5 55t-129 -55t-51 -149v-172q0 -93 51.5 -147.5t129.5 -54.5z" />
<glyph unicode="R" horiz-adv-x="610" d="M161 17q0 -17 -17 -17h-42q-17 0 -17 17v666q0 7 5 12t12 5h239q99 0 157.5 -52t58.5 -149v-15q0 -68 -38 -118.5t-112 -70.5l143 -269q5 -9 5 -15q0 -11 -11 -11h-56q-11 0 -18 14l-141 270h-168v-267zM161 355h176q61 0 102.5 33t41.5 94v17q0 69 -40.5 99.5 t-103.5 30.5h-176v-274z" />
<glyph unicode="S" horiz-adv-x="594" d="M467 511q-14 0 -16 16q-4 52 -37 83.5t-113 31.5q-75 0 -114.5 -25.5t-39.5 -90.5q0 -47 29.5 -77t73.5 -42.5t95.5 -28t95.5 -32.5t73.5 -58t29.5 -103q0 -100 -70.5 -147.5t-170.5 -47.5q-67 0 -119 21.5t-79.5 55t-41.5 69t-14 68.5q0 18 16 18h43q15 0 17 -17 q1 -20 8.5 -42t25.5 -47.5t55 -41.5t89 -16q165 0 165 127q0 37 -22 62.5t-57 38.5t-77 24t-84.5 25t-77.5 35t-57 60.5t-22 95.5q0 92 62.5 138t168.5 46q63 0 109.5 -17.5t70 -46.5t34 -58.5t10.5 -59.5q0 -17 -17 -17h-42z" />
<glyph unicode="T" horiz-adv-x="572" d="M21 645q0 -16 16 -16h211v-612q0 -17 17 -17h42q7 0 12 5t5 12v612h210q17 0 17 16v38q0 7 -5 12t-12 5h-497q-7 0 -11.5 -5t-4.5 -12v-38z" />
<glyph unicode="U" horiz-adv-x="643" d="M508 700q-7 0 -11.5 -5t-4.5 -12v-423q0 -93 -47.5 -146t-122.5 -53q-77 0 -124 53t-47 146v423q0 7 -5 12t-12 5h-42q-7 0 -12 -5t-5 -12v-423q0 -123 69 -196.5t178 -73.5t177.5 73.5t68.5 196.5v423q0 7 -5.5 12t-12.5 5h-42z" />
<glyph unicode="V" horiz-adv-x="624" d="M592 700q11 0 11 -11q0 -5 -5 -20l-242 -657q-5 -12 -17 -12h-55q-12 0 -16 12l-244 663q-4 8 -4 14q0 11 11 11h51q14 0 21 -20l210 -586l212 590q6 16 17 16h50z" />
<glyph unicode="W" horiz-adv-x="914" d="M877 700q12 0 12 -11q0 -4 -4 -16l-184 -661q-4 -12 -17 -12h-58q-13 0 -16 12l-152 570l-152 -570q-2 -12 -17 -12h-58q-13 0 -17 12l-185 661q0 2 -1.5 8t-1.5 8q0 11 11 11h52q14 0 18 -17l154 -576l155 576q5 17 17 17h51q14 0 18 -17l155 -576l153 576q4 17 17 17 h50z" />
<glyph unicode="X" horiz-adv-x="582" d="M548 30l8 -19q0 -11 -11 -11h-52q-15 0 -25 14l-180 277l-180 -277q-10 -14 -23 -14h-48q-11 0 -11 11q0 6 6 15l212 325l-207 317q-10 18 -10 21q0 11 12 11h54q14 0 22 -15l177 -271l178 271q10 15 22 15h50q11 0 11 -11q0 -7 -7 -17l-210 -319z" />
<glyph unicode="Y" horiz-adv-x="601" d="M570 700q11 0 11 -11q0 -6 -8 -18l-234 -376v-278q0 -17 -18 -17h-42q-16 0 -16 17v278l-234 375q-9 12 -9 19q0 11 11 11h57q9 0 15 -11l200 -323l197 323q6 11 15 11h55z" />
<glyph unicode="Z" horiz-adv-x="562" d="M518 656q0 -15 -15 -38l-363 -547h361q7 0 12 -5t5 -12v-37q0 -7 -5 -12t-12 -5h-441q-16 0 -16 17v28q0 18 12 33l367 551h-363q-16 0 -16 17v37q0 17 16 17h441q7 0 12 -5t5 -12v-27z" />
<glyph unicode="[" horiz-adv-x="310" d="M291 748q0 -16 -17 -16h-123v-782h123q17 0 17 -18v-33q0 -17 -17 -17h-179q-17 0 -17 17v883q0 7 5 12t12 5h179q7 0 12 -5t5 -12v-34z" />
<glyph unicode="\" horiz-adv-x="424" d="M389 0q11 0 11 11q0 2 -4 14l-296 663q-6 12 -18 12h-47q-11 0 -11 -11q0 -4 3 -13l296 -662q7 -14 18 -14h48z" />
<glyph unicode="]" horiz-adv-x="310" d="M19 748v34q0 7 5 12t12 5h179q7 0 12 -5t5 -12v-883q0 -17 -17 -17h-179q-17 0 -17 17v33q0 18 17 18h123v782h-123q-17 0 -17 16z" />
<glyph unicode="^" horiz-adv-x="516" d="M261 603l141 -362q4 -11 15 -11h52q12 0 12 11q0 3 -4 11l-178 437q-4 11 -15 11h-48q-11 0 -15 -10l-183 -439q-2 -6 -2 -10q0 -11 11 -11h51q11 0 16 11z" />
<glyph unicode="_" horiz-adv-x="622" d="M556 -56q0 -16 -17 -16h-457q-16 0 -16 16v39q0 7 4.5 12t11.5 5h457q7 0 12 -5t5 -12v-39z" />
<glyph unicode="`" horiz-adv-x="298" d="M33 700q-9 0 -9 -9q0 -2 4 -10l80 -116q5 -9 14 -9h47q9 0 9 8q0 4 -7 14l-63 111q-6 11 -17 11h-58z" />
<glyph unicode="a" horiz-adv-x="504" d="M432 17q0 -7 -5 -12t-12 -5h-39q-17 0 -17 17v47q-15 -35 -53.5 -54.5t-83.5 -19.5h-20q-72 0 -116.5 38t-44.5 109q0 147 184 147h134v34q0 59 -22.5 92t-92.5 33q-55 0 -77 -18.5t-29 -54.5q-4 -13 -15 -13h-43q-15 0 -15 15l1 2v4q22 132 178 132q61 0 101 -17 t57.5 -48.5t23.5 -60.5t6 -68v-299zM227 222q-61 0 -87.5 -20t-26.5 -65q0 -40 28 -61t71 -21h20q71 0 99 40t28 95v32h-132z" />
<glyph unicode="b" horiz-adv-x="540" d="M154 17q0 -7 -5 -12t-12 -5h-42q-17 0 -17 17v666q0 7 5 12t12 5h42q7 0 12 -5t5 -12v-247q44 74 144 74q85 0 137 -58t52 -164v-74q0 -107 -52 -165.5t-137 -58.5q-99 0 -144 74v-47zM154 207q0 -69 35 -109.5t94 -40.5t93.5 40t34.5 110v85q0 70 -34 110.5t-94 40.5 q-58 0 -93.5 -39.5t-35.5 -105.5v-91z" />
<glyph unicode="c" horiz-adv-x="503" d="M127 207q0 -71 36.5 -110.5t93.5 -39.5q94 0 122 102q3 12 13 12h48q11 0 11 -12q0 -7 -1 -12q-10 -58 -59.5 -107.5t-133.5 -49.5q-89 0 -146.5 60t-57.5 162v76q0 103 57.5 162.5t146.5 59.5q82 0 131.5 -48.5t62.5 -115.5q0 -2 1 -4v-2q0 -12 -11 -12h-48 q-12 0 -14 13q-26 102 -122 102q-58 0 -94 -40t-36 -110v-86z" />
<glyph unicode="d" horiz-adv-x="540" d="M386 17q0 -17 17 -17h42q17 0 17 17v666q0 7 -5 12t-12 5h-42q-7 0 -12 -5t-5 -12v-247q-44 74 -143 74q-86 0 -138 -58t-52 -164v-74q0 -107 52.5 -165.5t137.5 -58.5q98 0 143 74v-47zM386 207q0 -69 -35 -109.5t-94 -40.5t-93.5 40t-34.5 110v85q0 70 34 110.5 t94 40.5q58 0 93.5 -39.5t35.5 -105.5v-91z" />
<glyph unicode="e" horiz-adv-x="515" d="M129 201q0 -66 36.5 -105t93.5 -39q89 0 122 85q5 12 16 12h46q12 0 12 -12q0 -1 -4 -15q-23 -71 -77 -104t-115 -33q-90 0 -148 60t-58 162v76q0 102 58 162t147 60q88 0 146 -60t58 -161v-50q0 -16 -18 -16h-315v-22zM387 283v14q0 68 -35.5 107t-93.5 39 q-57 0 -93 -39t-36 -107v-14h258z" />
<glyph unicode="f" horiz-adv-x="337" d="M299 448q0 -16 -17 -16h-113v-415q0 -17 -17 -17h-42q-16 0 -16 17v415h-77q-17 0 -17 16v35q0 7 5 12t12 5h77v15q0 101 35 143t134 42h19q7 0 12 -5t5 -12v-36q0 -7 -5 -12t-12 -5h-19q-60 0 -77 -21t-17 -94v-15h113q7 0 12 -5t5 -12v-35z" />
<glyph unicode="g" horiz-adv-x="516" d="M324 83q80 0 124 -41.5t44 -106.5q0 -63 -44 -104t-124 -41h-111q-80 0 -124 41t-44 104q0 76 62 114q-52 22 -52 80q0 33 19 57t58 31q-63 48 -63 125q0 73 51 120.5t131 47.5h27q68 0 117 -42v75q0 17 16 17h36q18 0 18 -17v-201q0 -74 -50 -121t-132 -47h-104 q-55 0 -55 -46q0 -24 16.5 -34.5t54.5 -10.5h129zM256 448q-53 0 -83.5 -30t-30.5 -76t30.5 -76t83.5 -30h22q52 0 82.5 29.5t30.5 75.5q0 47 -30.5 77t-82.5 30h-22zM314 -147q104 0 104 82q0 86 -104 86h-91q-104 0 -104 -86q0 -82 104 -82h91z" />
<glyph unicode="h" horiz-adv-x="553" d="M95 0q-17 0 -17 17v666q0 7 5 12t12 5h42q7 0 12 -5t5 -12v-248q45 75 140 75q90 0 138.5 -60t48.5 -162v-271q0 -17 -17 -17h-42q-16 0 -16 17v276q0 71 -35 110.5t-92 39.5t-91 -39.5t-34 -110.5v-276q0 -7 -5 -12t-12 -5h-42z" />
<glyph unicode="i" horiz-adv-x="239" d="M119 703q23 0 37 -14.5t14 -36.5t-14 -36.5t-37 -14.5q-22 0 -36 14t-14 37t14 37t36 14zM98 0q-16 0 -16 17v466q0 17 16 17h42q7 0 12 -5t5 -12v-466q0 -17 -17 -17h-42z" />
<glyph unicode="j" horiz-adv-x="239" d="M119 703q23 0 37 -14.5t14 -36.5t-14 -36.5t-37 -14.5q-22 0 -36 14t-14 37t14 37t36 14zM140 500q7 0 12 -5t5 -12v-480q0 -107 -44.5 -155t-133.5 -48q-17 0 -17 17v37q0 18 17 18q54 0 78.5 30t24.5 101v480q0 17 16 17h42z" />
<glyph unicode="k" horiz-adv-x="511" d="M481 31q9 -16 9 -20q0 -11 -11 -11h-58q-11 0 -21 14l-156 210l-90 -106v-101q0 -7 -5 -12t-12 -5h-42q-17 0 -17 17v666q0 7 5 12t12 5h42q7 0 12 -5t5 -12v-469l226 268q14 18 30 18h52q11 0 11 -11q0 -6 -11 -19l-165 -193z" />
<glyph unicode="l" horiz-adv-x="232" d="M95 0q-17 0 -17 17v666q0 7 5 12t12 5h42q7 0 12 -5t5 -12v-666q0 -7 -5 -12t-12 -5h-42z" />
<glyph unicode="m" horiz-adv-x="847" d="M596 510q101 0 140.5 -58t39.5 -174v-261q0 -17 -18 -17h-42q-16 0 -16 17v266q0 78 -25 119t-92 41q-65 0 -92 -40t-27 -120v-266q0 -17 -17 -17h-42q-17 0 -17 17v266q0 81 -26 120.5t-90 39.5q-66 0 -93 -42t-27 -119v-265q0 -17 -17 -17h-42q-16 0 -16 17v466 q0 17 16 17h42q7 0 12 -5t5 -12v-48q43 75 133 75q111 0 155 -93q48 93 156 93z" />
<glyph unicode="n" horiz-adv-x="552" d="M93 0q-16 0 -16 17v466q0 17 16 17h42q7 0 12 -5t5 -12v-49q46 76 141 76q90 0 138.5 -60t48.5 -162v-271q0 -17 -17 -17h-42q-17 0 -17 17v276q0 71 -34.5 110.5t-91.5 39.5t-91.5 -39.5t-34.5 -110.5v-276q0 -17 -17 -17h-42z" />
<glyph unicode="o" horiz-adv-x="514" d="M53 288q0 103 57.5 162.5t146.5 59.5t146.5 -60t57.5 -162v-76q0 -102 -57.5 -162t-146.5 -60t-146.5 59.5t-57.5 162.5v76zM129 207q0 -71 35.5 -110.5t92.5 -39.5q58 0 93.5 39.5t35.5 110.5v86q0 71 -35.5 110.5t-93.5 39.5q-57 0 -92.5 -39.5t-35.5 -110.5v-86z" />
<glyph unicode="p" horiz-adv-x="539" d="M152 -183q0 -17 -17 -17h-42q-16 0 -16 17v666q0 17 16 17h42q7 0 12 -5t5 -12v-47q46 74 144 74q86 0 138 -58t52 -164v-74q0 -107 -52.5 -165.5t-137.5 -58.5q-97 0 -144 74v-247zM152 207q0 -69 35.5 -109.5t94.5 -40.5t93.5 40t34.5 110v85q0 70 -34 110.5t-94 40.5 q-59 0 -94.5 -39.5t-35.5 -105.5v-91z" />
<glyph unicode="q" horiz-adv-x="540" d="M387 -183q0 -17 17 -17h42q7 0 12 5t5 12v666q0 7 -5 12t-12 5h-42q-7 0 -12 -5t-5 -12v-47q-44 74 -144 74q-86 0 -138 -58t-52 -164v-74q0 -107 52.5 -165.5t137.5 -58.5q99 0 144 74v-247zM387 207q0 -69 -35.5 -109.5t-94.5 -40.5t-93.5 40t-34.5 110v85 q0 70 34 110.5t94 40.5q58 0 94 -39.5t36 -105.5v-91z" />
<glyph unicode="r" horiz-adv-x="360" d="M93 0q-16 0 -16 17v466q0 17 16 17h38q7 0 12.5 -5t5.5 -12v-67q41 84 140 84h15q7 0 12 -5t5 -12v-41q0 -16 -17 -16h-15q-70 0 -103.5 -48.5t-33.5 -117.5v-243q0 -7 -5 -12t-12 -5h-42z" />
<glyph unicode="s" horiz-adv-x="475" d="M237 -10q-81 0 -130.5 39.5t-57.5 96.5v10q3 10 13 10h43q11 0 15 -12q8 -32 37 -55.5t81 -23.5q114 0 114 80q0 35 -30.5 53.5t-73.5 26.5t-86.5 19.5t-74 45.5t-30.5 92q0 69 52 103.5t123 34.5q148 0 180 -129q1 -3 1 -4l1 -3v-4q-2 -13 -14 -13h-43q-11 0 -15 13 q-5 20 -12.5 34t-33 27.5t-66.5 13.5q-40 0 -70 -16.5t-30 -54.5q0 -37 30.5 -56.5t73.5 -28t86.5 -20t74 -44.5t30.5 -89q0 -75 -52 -110.5t-136 -35.5z" />
<glyph unicode="t" horiz-adv-x="337" d="M253 0q-97 0 -128 40.5t-31 135.5v256h-77q-17 0 -17 16v35q0 7 5 12t12 5q42 0 60 15t18 60v38q0 7 5 12t12 5h39q7 0 12.5 -5t5.5 -12v-113h113q7 0 12 -5t5 -12v-35q0 -16 -17 -16h-113v-248q0 -70 16.5 -92t76.5 -22h20q7 0 12 -5t5 -12v-36q0 -7 -5 -12t-12 -5h-29z " />
<glyph unicode="u" horiz-adv-x="538" d="M444 500q7 0 12 -5t5 -12v-466q0 -17 -17 -17h-42q-16 0 -16 17v44q-43 -71 -139 -71q-85 0 -130 58t-45 164v271q0 17 16 17h42q7 0 12 -5t5 -12v-276q0 -73 29.5 -111.5t85.5 -38.5q57 0 90.5 39.5t33.5 110.5v276q0 17 16 17h42z" />
<glyph unicode="v" horiz-adv-x="488" d="M459 500q11 0 11 -11q0 -2 -5 -17l-178 -461q-3 -11 -16 -11h-51q-11 0 -15 11l-182 462q-4 10 -4 16q0 11 11 11h50q13 0 17 -11l151 -403l145 403q4 11 16 11h50z" />
<glyph unicode="w" horiz-adv-x="725" d="M697 500q11 0 11 -11q0 -1 -5 -19l-144 -458q-5 -12 -17 -12h-45q-13 0 -17 14l-117 384l-114 -386q-4 -12 -17 -12h-46q-13 0 -16 12l-148 458q-5 12 -5 19q0 11 12 11h48q14 0 18 -17l116 -386l112 386q5 17 19 17h43q13 0 18 -17l118 -384l109 384q5 17 17 17h50z" />
<glyph unicode="x" horiz-adv-x="439" d="M30 0q-11 0 -11 11q0 6 10 20l148 221l-145 218q-9 11 -9 19q0 11 11 11h48q16 0 26 -15l114 -178l113 178q11 15 26 15h44q11 0 11 -11q0 -5 -8 -17l-143 -218l144 -220q11 -17 11 -23q0 -11 -11 -11h-47q-16 0 -25 14l-118 184l-121 -184q-8 -14 -22 -14h-46z" />
<glyph unicode="y" horiz-adv-x="493" d="M464 500q11 0 11 -11q0 -6 -5 -18l-211 -537q-29 -74 -62 -104t-105 -30h-42q-16 0 -16 17v37q0 18 16 18h39q44 0 66 19t36 57l21 58l-185 463q-6 13 -6 20q0 11 11 11h51q13 0 18 -15l151 -388l144 390q5 13 17 13h51z" />
<glyph unicode="z" horiz-adv-x="439" d="M403 453q0 -16 -13 -31l-260 -354h255q18 0 18 -17v-34q0 -17 -18 -17h-331q-17 0 -17 17v27q0 13 14 32l260 356h-257q-17 0 -17 16v35q0 7 5 12t12 5h331q7 0 12.5 -5t5.5 -12v-30z" />
<glyph unicode="{" horiz-adv-x="355" d="M336 -100q0 -17 -17 -17q-111 0 -150.5 56t-39.5 180v85q0 40 -25 70.5t-62 30.5q-16 0 -16 16v39q0 17 16 17q38 0 62.5 29t24.5 73v86q0 124 39 180t151 56q7 0 12 -5t5 -12v-36q0 -16 -17 -16q-32 0 -53.5 -7t-33.5 -18.5t-18.5 -35t-8 -46t-1.5 -61.5v-91 q0 -97 -82 -130q82 -38 82 -133v-91q0 -96 19.5 -131t95.5 -35q17 0 17 -18v-35z" />
<glyph unicode="|" horiz-adv-x="232" d="M95 -142q-17 0 -17 17v948q0 7 5 12t12 5h42q7 0 12 -5t5 -12v-948q0 -7 -5 -12t-12 -5h-42z" />
<glyph unicode="}" horiz-adv-x="355" d="M19 -100v35q0 18 17 18q76 0 95.5 35t19.5 131v91q0 95 82 133q-82 33 -82 130v91q0 39 -1.5 61.5t-8 46t-18.5 35t-33.5 18.5t-53.5 7q-17 0 -17 16v36q0 7 5 12t12 5q111 0 150.5 -56t39.5 -180v-86q0 -44 24 -73t63 -29q16 0 16 -17v-39q0 -16 -16 -16 q-38 0 -62.5 -30.5t-24.5 -70.5v-85q0 -124 -39.5 -180t-150.5 -56q-17 0 -17 17z" />
<glyph unicode="~" horiz-adv-x="636" d="M91 268q-17 0 -17 16q0 60 35.5 101.5t102.5 41.5q41 0 82.5 -23.5t76 -46.5t60.5 -23q35 0 51 22.5t16 52.5q0 17 17 17h30q17 0 17 -17q0 -58 -33 -99.5t-98 -41.5q-38 0 -78.5 23t-77 45.5t-65.5 22.5q-67 0 -71 -76q-2 -15 -17 -15h-31z" />
<glyph unicode="&#xa1;" horiz-adv-x="234" d="M117 391q-25 0 -41.5 16.5t-16.5 41.5q0 26 16 41.5t42 15.5t42 -15.5t16 -41.5t-16 -42t-42 -16zM97 -200q-7 0 -12 5t-5 12v484q0 16 17 16h42q17 0 17 -16v-484q0 -7 -5 -12t-12 -5h-42z" />
<glyph unicode="&#xa2;" horiz-adv-x="502" d="M440 271q11 0 11 -12q0 -7 -1 -12q-9 -52 -50 -98.5t-111 -56.5v-75q0 -17 -17 -17h-29q-17 0 -17 17v75q-77 11 -125 69t-48 151v66q0 93 48 151.5t125 68.5v77q0 15 15 15h33q15 0 15 -15v-77q68 -10 109 -56.5t53 -105.5q0 -2 1 -4v-2q0 -12 -11 -12h-48q-12 0 -14 13 q-26 102 -122 102q-58 0 -94 -40t-36 -110v-76q0 -71 36.5 -110.5t93.5 -39.5q95 0 122 102q3 12 13 12h48z" />
<glyph unicode="&#xa3;" horiz-adv-x="600" d="M544 192q18 0 18 -16q0 -30 -8 -59.5t-25 -59.5t-51.5 -48.5t-80.5 -18.5q-54 0 -127 31.5t-105 36.5q-24 -33 -54 -50t-52 -17q-13 0 -17 11l-11 29q-4 8 -4 11q0 10 12 14q46 17 68 46.5t22 77.5q0 55 -20 137h-77q-16 0 -16 16v26q0 17 16 17h63q-11 50 -11 114 q0 98 61 154t164 56q58 0 103.5 -18t70.5 -46t37.5 -58.5t12.5 -59.5q0 -7 -5 -12t-12 -5h-42q-15 0 -17 16q-3 49 -40 82t-108 33q-67 0 -108.5 -34t-41.5 -108q0 -51 13 -114h222q15 0 15 -15v-30q0 -14 -15 -14h-208q18 -74 18 -137q0 -33 -9 -60q33 -6 100.5 -34 t101.5 -28q88 0 92 119q2 15 16 15h39z" />
<glyph unicode="&#xa4;" horiz-adv-x="571" d="M517 166q12 -11 1 -24l-19 -19q-13 -13 -25 0l-62 63q-57 -41 -127 -41q-72 0 -126 40l-62 -63q-12 -12 -24 1l-19 19q-12 11 0 23l62 62q-43 56 -43 129q0 70 43 126l-63 63q-11 11 0 21l22 21q10 12 20 0l64 -63q56 40 126 40t127 -41l63 63q11 11 21 1l22 -22 q10 -10 0 -22l-62 -62q43 -54 43 -125q0 -72 -43 -128zM285 210q58 0 100.5 41.5t42.5 104.5q0 61 -42.5 102t-100.5 41t-100 -41t-42 -102q0 -63 42 -104.5t100 -41.5z" />
<glyph unicode="&#xa5;" horiz-adv-x="601" d="M575 679q0 -4 -7 -18l-133 -212h95q6 0 10.5 -4.5t4.5 -11.5v-29q0 -15 -15 -15h-132l-59 -93h191q6 0 10.5 -4.5t4.5 -11.5v-29q0 -15 -15 -15h-191v-219q0 -17 -18 -17h-42q-16 0 -16 17v219h-192q-17 0 -17 17v26q0 7 5 12t12 5h191l-58 93h-133q-17 0 -17 17v25 q0 18 17 18h95l-132 211q-8 16 -8 19q0 11 11 11h57q9 0 15 -11l194 -313l191 313q6 11 16 11h54q11 0 11 -11z" />
<glyph unicode="&#xa6;" horiz-adv-x="232" d="M78 823q0 7 5 12t12 5h42q7 0 12 -5t5 -12v-372q0 -7 -5 -12t-12 -5h-42q-7 0 -12 5t-5 12v372zM78 259q0 7 5 12t12 5h42q7 0 12 -5t5 -12v-384q0 -7 -5 -12t-12 -5h-42q-17 0 -17 17v384z" />
<glyph unicode="&#xa7;" horiz-adv-x="506" d="M431 238q58 -33 58 -94q0 -80 -65 -117t-170 -37q-103 0 -166.5 40t-71.5 96q-2 5 0 10q3 10 13 10h43q10 0 15 -12q8 -33 50.5 -56.5t117.5 -23.5q160 0 160 88q0 27 -29 43t-72 21.5t-93.5 14.5t-93.5 21.5t-72 43t-29 77.5q0 61 58 95q-53 35 -53 99q0 73 65 109.5 t154 36.5q191 0 225 -133q0 -1 0.5 -3t0.5 -4q-2 -13 -14 -13h-44q-11 0 -14 13q-19 75 -156 75q-59 0 -101 -19t-42 -61q0 -30 28 -48.5t70 -25t91.5 -16t91.5 -20.5t70 -40t28 -73q0 -62 -53 -97zM100 366q0 -23 15.5 -38.5t45.5 -24.5t60.5 -14t73 -12t70.5 -14 q46 21 46 71q0 21 -16 35t-46 21.5t-61 12t-72.5 11.5t-69.5 16q-46 -21 -46 -64z" />
<glyph unicode="&#xa8;" horiz-adv-x="352" d="M90 680q22 0 35 -13.5t13 -34.5q0 -22 -13 -35.5t-35 -13.5t-34.5 13.5t-12.5 35.5q0 21 13 34.5t34 13.5zM264 680q22 0 35 -13.5t13 -34.5q0 -22 -13 -35.5t-35 -13.5t-34.5 13.5t-12.5 35.5q0 21 13 34.5t34 13.5z" />
<glyph unicode="&#xa9;" horiz-adv-x="815" d="M59 345q0 171 100 269t248 98q149 0 249 -98t100 -269q0 -168 -99.5 -262.5t-249.5 -94.5q-149 0 -248.5 94.5t-99.5 262.5zM692 345q0 145 -82 227t-203 82t-202.5 -82t-81.5 -227q0 -143 81 -221t203 -78t203.5 78t81.5 221zM320 321q0 -50 24.5 -78t63.5 -28 q67 0 86 73q3 12 12 12h44q11 0 7 -16q-8 -50 -45 -89t-103 -39t-109 44.5t-43 119.5v64q0 76 42.5 120t108.5 44q68 0 105.5 -40.5t44.5 -92.5q1 -10 -8 -10h-44q-9 0 -12 10q-18 74 -87 74q-39 0 -63 -28t-24 -78v-62z" />
<glyph unicode="&#xaa;" horiz-adv-x="420" d="M73 573q-14 0 -14 13q3 56 42.5 88t111.5 32q88 0 124.5 -40.5t36.5 -112.5v-252q0 -15 -16 -15h-37q-15 0 -15 15v43q-26 -66 -111 -66h-21q-55 0 -91.5 31.5t-36.5 90.5q0 60 39.5 91t106.5 31h114v35q0 45 -21.5 67t-71.5 22q-85 0 -87 -61q-2 -12 -14 -12h-39z M193 468q-41 0 -60 -16t-19 -51q0 -65 72 -65h23q42 0 69.5 28.5t27.5 83.5v20h-113z" />
<glyph unicode="&#xab;" horiz-adv-x="564" d="M258 444q9 0 9 -9v-54q0 -9 -9 -15l-146 -100l146 -99q9 -6 9 -14v-60q0 -9 -9 -9q-6 0 -13 6l-191 131q-11 7 -11 18v50q0 10 11 18l192 131q9 6 12 6zM506 381q0 -9 -9 -15l-137 -100l137 -99q9 -5 9 -14v-60q0 -9 -8 -9q-5 0 -14 6l-178 132q-11 9 -11 19v47 q0 8 11 17l179 133q9 6 13 6q8 0 8 -9v-54z" />
<glyph unicode="&#xac;" horiz-adv-x="622" d="M82 315q-16 0 -16 16v39q0 7 4.5 12t11.5 5h456q7 0 12.5 -5t5.5 -12v-225q0 -17 -18 -17h-40q-17 0 -17 17v170h-399z" />
<glyph unicode="&#xad;" horiz-adv-x="0" />
<glyph unicode="&#xae;" horiz-adv-x="597" d="M297 821q114 0 189.5 -73t75.5 -201q0 -129 -75 -200t-190 -71q-113 0 -188 71.5t-75 199.5t75 201t188 73zM297 326q92 0 151 57.5t59 163.5q0 105 -59.5 164.5t-150.5 59.5q-89 0 -148 -59.5t-59 -164.5q0 -106 58.5 -163.5t148.5 -57.5zM328 700q40 0 64.5 -22.5 t24.5 -64.5v-5q0 -59 -59 -79l54 -106q3 -4 3 -9q0 -7 -7 -7h-41q-7 0 -11 9l-51 102h-51v-99q0 -11 -10 -11h-34q-9 0 -9 11v270q0 11 12 11h115zM364 607v5q0 41 -47 41h-63v-90h63q20 0 33.5 11.5t13.5 32.5z" />
<glyph unicode="&#xaf;" horiz-adv-x="437" d="M345 661h-253q-17 0 -17 -17v-31q0 -17 17 -17h253q7 0 12 5t5 12v31q0 7 -5 12t-12 5z" />
<glyph unicode="&#xb0;" horiz-adv-x="330" d="M37 574q0 54 37 90t91 36q53 0 90.5 -36.5t37.5 -89.5q0 -54 -37.5 -90.5t-90.5 -36.5q-54 0 -91 36.5t-37 90.5zM237 574q0 33 -21 55t-51 22t-51 -22t-21 -55t21 -55.5t51 -22.5t51 22.5t21 55.5z" />
<glyph unicode="&#xb1;" horiz-adv-x="622" d="M290 164q-17 0 -17 19v196h-191q-16 0 -16 20v34q0 17 16 17h191v197q0 7 5 12t12 5h41q7 0 12.5 -5t5.5 -12v-197h189q18 0 18 -17v-34q0 -20 -18 -20h-189v-196q0 -19 -18 -19h-41zM82 71q-16 0 -16 -17v-37q0 -17 16 -17h456q18 0 18 17v37q0 17 -18 17h-456z" />
<glyph unicode="&#xb2;" horiz-adv-x="400" d="M335 348q15 0 15 -15v-33q0 -14 -15 -14h-270q-14 0 -14 14v29q0 17 14 27l162 149q26 24 36.5 41t10.5 37q0 29 -20 45.5t-56 16.5q-35 0 -57 -15.5t-22 -40.5q0 -14 -15 -14h-36q-15 0 -15 14q0 49 40.5 83t106.5 34q70 0 107 -35t37 -84q0 -60 -59 -112l-137 -127h187 z" />
<glyph unicode="&#xb3;" horiz-adv-x="400" d="M291 500q66 -27 66 -98q0 -50 -42.5 -86t-116.5 -36q-75 0 -113 35t-41 76q0 15 15 15h33q14 0 18 -15q11 -51 88 -51q43 0 66.5 17.5t23.5 46.5q0 64 -83 64h-30q-15 0 -15 14v31q0 14 15 14h30q34 0 55 16.5t21 43.5q0 58 -83 58q-76 0 -85 -50q-4 -16 -17 -16h-34 q-6 0 -10.5 4.5t-3.5 10.5q3 42 40 77t114 35q73 0 110.5 -35t37.5 -80q0 -61 -59 -91z" />
<glyph unicode="&#xb4;" horiz-adv-x="298" d="M264 700q10 0 10 -9q0 -2 -4 -10l-80 -116q-5 -9 -14 -9h-47q-9 0 -9 8q0 2 3 8l3 6l63 111q5 11 18 11h57z" />
<glyph unicode="&#xb5;" horiz-adv-x="539" d="M446 500q7 0 12 -5t5 -12v-466q0 -7 -5 -12t-12 -5h-42q-17 0 -17 17v44q-43 -71 -139 -71q-64 0 -103 37v-210q0 -17 -18 -17h-39q-16 0 -16 17v666q0 17 16 17h42q7 0 12 -5t5 -12v-276q0 -73 30 -111.5t86 -38.5q57 0 90.5 39.5t33.5 110.5v276q0 7 5 12t12 5h42z" />
<glyph unicode="&#xb6;" horiz-adv-x="575" d="M301 632v-615q0 -17 -18 -17h-38q-16 0 -16 17v299q-79 0 -131 50.5t-52 133.5v24q0 82 51.5 129t131.5 47h244q7 0 12 -5t5 -12v-666q0 -17 -17 -17h-38q-17 0 -17 17v615h-117z" />
<glyph unicode="&#xb7;" horiz-adv-x="219" d="M121 465q25 0 41.5 -16.5t16.5 -41.5q0 -26 -16 -41.5t-42 -15.5t-42 15.5t-16 41.5t16 42t42 16z" />
<glyph unicode="&#xb8;" horiz-adv-x="257" d="M129 -45q30 0 55.5 -18.5t25.5 -56.5v-5q0 -32 -21.5 -56.5t-67.5 -24.5q-49 0 -74 28q-9 9 -1 18l15 18q7 9 18 -2q17 -15 43 -15q13 0 24 8t11 27v3q0 30 -34 30q-16 0 -32 -10q-10 -5 -11 -5q-3 0 -9 2l-16 6q-11 6 -4 23l34 93q3 7 8 7l33 -2q7 0 7 -7q0 -4 -3 -11 l-19 -53q9 3 18 3z" />
<glyph unicode="&#xb9;" horiz-adv-x="400" d="M328 300q0 -14 -15 -14h-227q-14 0 -14 14v30q0 16 14 16h84v242h-84q-5 0 -9.5 4t-4.5 10v27q0 15 14 15q28 0 46.5 7.5t25 15t12.5 20.5q7 13 21 13h31q7 0 11.5 -4.5t4.5 -10.5v-339h75q15 0 15 -16v-30z" />
<glyph unicode="&#xba;" horiz-adv-x="426" d="M47 519q0 88 40 137.5t125 49.5t126 -49.5t41 -135.5v-54q0 -88 -40.5 -137.5t-125.5 -49.5t-125.5 49.5t-40.5 135.5v54zM116 467q0 -124 97 -124q56 0 76 30t20 93v54q0 63 -22.5 93t-74.5 30q-54 0 -75 -30t-21 -92v-54z" />
<glyph unicode="&#xbb;" horiz-adv-x="566" d="M260 305q11 -8 11 -18v-47q0 -10 -11 -18l-179 -132q-9 -6 -12 -6q-9 0 -9 9v54q0 8 9 14l138 101l-138 98q-9 6 -9 15v60q0 9 9 9q3 0 13 -7zM512 307q11 -8 11 -19v-49q0 -11 -11 -18l-191 -131q-9 -6 -13 -6q-8 0 -8 9v54q0 9 9 14l146 101l-146 98q-9 6 -9 15v60 q0 9 8 9q4 0 14 -7z" />
<glyph unicode="&#xbc;" horiz-adv-x="916" d="M313 300q0 -14 -15 -14h-227q-15 0 -15 14v30q0 7 4.5 11.5t10.5 4.5h84v242h-84q-5 0 -10 4t-5 10v27q0 6 4.5 10.5t10.5 4.5q27 0 45.5 7.5t25 15t13.5 20.5t20 13h32q7 0 11.5 -4.5t4.5 -10.5v-339h75q15 0 15 -16v-30zM254 0q-11 0 -11 11q0 6 4 14l363 663 q8 12 17 12h44q11 0 11 -11q0 -3 -5 -15l-361 -660q-9 -14 -19 -14h-43zM860 95q0 -15 -15 -15h-54v-66q0 -14 -16 -14h-35q-15 0 -15 14v66h-202q-15 0 -15 15v29q0 13 8 23l190 253q11 14 22 14h47q7 0 11.5 -4.5t4.5 -10.5v-262h54q15 0 15 -15v-27zM726 335l-147 -198 h147v198z" />
<glyph unicode="&#xbd;" horiz-adv-x="916" d="M313 300q0 -14 -15 -14h-227q-15 0 -15 14v30q0 7 4.5 11.5t10.5 4.5h84v242h-84q-5 0 -10 4t-5 10v27q0 6 4.5 10.5t10.5 4.5q27 0 45.5 7.5t25 15t13.5 20.5t20 13h32q7 0 11.5 -4.5t4.5 -10.5v-339h75q15 0 15 -16v-30zM679 689q0 -3 -5 -15l-361 -660q-9 -14 -18 -14 h-44q-11 0 -11 11q0 4 5 14l362 663q8 12 18 12h43q11 0 11 -11zM851 62q15 0 15 -15v-33q0 -14 -15 -14h-270q-15 0 -15 14v29q0 17 14 27l162 149q27 24 37.5 40.5t10.5 37.5q0 29 -20 45.5t-56 16.5q-35 0 -57 -15.5t-22 -40.5q0 -14 -15 -14h-37q-14 0 -14 14 q0 49 40 83t106 34q71 0 108 -35t37 -84q0 -59 -59 -112l-137 -127h187z" />
<glyph unicode="&#xbe;" horiz-adv-x="916" d="M349 402q0 -50 -42.5 -86t-116.5 -36q-75 0 -113 35t-41 76q0 6 4.5 10.5t10.5 4.5h33q14 0 18 -15q11 -51 89 -51q42 0 65.5 17.5t23.5 46.5q0 64 -83 64h-30q-15 0 -15 14v31q0 14 15 14h30q34 0 55.5 16.5t20.5 43.5q0 58 -82 58q-77 0 -86 -50q-4 -16 -17 -16h-33 q-7 0 -11.5 4.5t-3.5 10.5q3 42 40 77t114 35q73 0 110.5 -35t37.5 -80q0 -61 -59 -91q66 -27 66 -98zM682 689q0 -3 -5 -15l-361 -660q-9 -14 -19 -14h-43q-11 0 -11 11q0 6 4 14l363 663q8 12 17 12h44q11 0 11 -11zM845 137q15 0 15 -15v-27q0 -15 -15 -15h-54v-66 q0 -14 -16 -14h-35q-15 0 -15 14v66h-202q-15 0 -15 15v29q0 13 8 23l190 253q11 14 22 14h47q7 0 11.5 -4.5t4.5 -10.5v-262h54zM726 137v198l-147 -198h147z" />
<glyph unicode="&#xbf;" horiz-adv-x="505" d="M249 391q-25 0 -41.5 16.5t-16.5 41.5q0 26 16 41.5t42 15.5t42 -15.5t16 -41.5t-16 -42t-42 -16zM230 317q-17 0 -17 -16v-21q0 -39 -18.5 -71t-45 -56t-53 -49t-45 -60.5t-18.5 -79.5q0 -82 55 -128t154 -46q53 0 93 16.5t61.5 38.5t35.5 52t18 48t5 34q1 6 -3.5 10 t-10.5 4h-39q-13 0 -16 -13q-4 -18 -5.5 -25t-8 -25t-16 -27.5t-24.5 -21.5t-38 -17t-53 -5q-57 0 -95 24.5t-38 80.5q0 34 18.5 63t45 51.5t53 47.5t45 64.5t18.5 89.5v21q0 16 -17 16h-41z" />
<glyph unicode="&#xc0;" horiz-adv-x="632" d="M278 765l-80 116q-4 8 -4 10q0 9 9 9h58q11 0 18 -11l63 -111l3 -6q3 -6 3 -8q0 -8 -9 -8h-47q-9 0 -14 9zM603 26q5 -10 5 -15q0 -11 -12 -11h-51q-12 0 -16 11l-63 176h-304l-62 -176q-4 -11 -14 -11h-50q-12 0 -12 11q0 5 7 21l237 652q5 16 18 16h57q12 0 18 -15z M188 256h253l-128 356z" />
<glyph unicode="&#xc1;" horiz-adv-x="632" d="M299 756q-9 0 -9 8q0 2 3 8l3 6l63 111q5 11 18 11h57q10 0 10 -9q0 -2 -4 -10l-80 -116q-5 -9 -14 -9h-47zM603 26q5 -10 5 -15q0 -11 -12 -11h-51q-12 0 -16 11l-63 176h-304l-62 -176q-4 -11 -14 -11h-50q-12 0 -12 11q0 5 7 21l237 652q5 16 18 16h57q12 0 18 -15z M188 256h253l-128 356z" />
<glyph unicode="&#xc2;" horiz-adv-x="632" d="M205 756q-9 0 -9 8q0 2 3 8l3 6l70 111q7 11 20 11h56q11 0 17 -11l71 -112q6 -12 6 -13q0 -8 -9 -8h-46q-8 0 -14 9l-54 79l-54 -79q-6 -9 -15 -9h-45zM603 26q5 -10 5 -15q0 -11 -12 -11h-51q-12 0 -16 11l-63 176h-304l-62 -176q-4 -11 -14 -11h-50q-12 0 -12 11 q0 5 7 21l237 652q5 16 18 16h57q12 0 18 -15zM188 256h253l-128 356z" />
<glyph unicode="&#xc3;" horiz-adv-x="632" d="M189 766q-13 0 -13 13q0 45 24 72t60 27q31 0 68 -24.5t49 -24.5q27 0 27 36q0 14 13 14h31q14 0 14 -14q0 -44 -20.5 -71t-62.5 -27q-33 0 -68 23.5t-48 23.5q-26 0 -28 -36q0 -12 -14 -12h-32zM603 26q5 -10 5 -15q0 -11 -12 -11h-51q-12 0 -16 11l-63 176h-304 l-62 -176q-4 -11 -14 -11h-50q-12 0 -12 11q0 5 7 21l237 652q5 16 18 16h57q12 0 18 -15zM188 256h253l-128 356z" />
<glyph unicode="&#xc4;" horiz-adv-x="632" d="M233 783q-22 0 -35 13.5t-13 35.5q0 21 13 34.5t35 13.5t35 -13.5t13 -34.5q0 -22 -13 -35.5t-35 -13.5zM407 783q-22 0 -35 13.5t-13 35.5q0 21 13 34.5t35 13.5t35 -13.5t13 -34.5q0 -22 -13 -35.5t-35 -13.5zM603 26q5 -10 5 -15q0 -11 -12 -11h-51q-12 0 -16 11 l-63 176h-304l-62 -176q-4 -11 -14 -11h-50q-12 0 -12 11q0 5 7 21l237 652q5 16 18 16h57q12 0 18 -15zM188 256h253l-128 356z" />
<glyph unicode="&#xc5;" horiz-adv-x="632" d="M318 737q-46 0 -77 30.5t-31 75.5t31 76t77 31t78 -31t32 -76t-31.5 -75.5t-78.5 -30.5zM318 897q-21 0 -36.5 -16t-15.5 -38q0 -23 15 -38.5t37 -15.5t37.5 15t15.5 39q0 22 -15.5 38t-37.5 16zM603 26q5 -10 5 -15q0 -11 -12 -11h-51q-12 0 -16 11l-63 176h-304 l-62 -176q-4 -11 -14 -11h-50q-12 0 -12 11q0 5 7 21l237 652q5 16 18 16h57q12 0 18 -15zM188 256h253l-128 356z" />
<glyph unicode="&#xc6;" horiz-adv-x="859" d="M796 629h-297v-239h230q7 0 12 -5t5 -12v-38q0 -16 -17 -16h-230v-248h297q17 0 17 -17v-37q0 -17 -17 -17h-356q-17 0 -17 17v170h-269l-70 -176q-4 -11 -14 -11h-51q-12 0 -12 11q0 5 7 21l261 652q5 16 18 16h158h345q7 0 12 -5t5 -12v-38q0 -16 -17 -16zM181 256h242 v373h-95z" />
<glyph unicode="&#xc7;" horiz-adv-x="626" d="M559 236q11 0 11 -13q-5 -91 -69.5 -158.5t-162.5 -73.5l-14 -39q10 3 21 3q29 0 54.5 -18.5t25.5 -56.5v-4q0 -33 -21.5 -57.5t-69.5 -24.5q-50 0 -76 28q-7 8 -1 18l16 18q7 8 18 -2q17 -15 42 -15q13 0 24 8t11 27v3q0 15 -10 22.5t-23 7.5q-14 0 -36 -12 q-7 -4 -17 -1l-15 6q-11 5 -5 22l25 68q-99 11 -162 84.5t-63 186.5v174q0 123 72.5 198t183.5 75q105 0 172 -63.5t79 -159.5q1 -15 -14 -15h-51q-10 0 -13 15q-10 65 -55.5 108.5t-117.5 43.5q-78 0 -129 -54.5t-51 -147.5v-174q0 -93 51.5 -147.5t129.5 -54.5 q73 0 119 44.5t55 117.5q2 13 12 13h54z" />
<glyph unicode="&#xc8;" horiz-adv-x="563" d="M166 900q-10 0 -10 -9q0 -2 4 -10l80 -116q6 -9 15 -9h47q8 0 8 8q0 2 -3 8l-3 6l-63 111q-5 11 -18 11h-57zM517 645q0 -16 -17 -16h-339v-239h272q7 0 12 -5t5 -12v-38q0 -16 -17 -16h-272v-248h339q17 0 17 -17v-37q0 -17 -17 -17h-398q-17 0 -17 17v666q0 7 5 12 t12 5h398q7 0 12 -5t5 -12v-38z" />
<glyph unicode="&#xc9;" horiz-adv-x="563" d="M397 900q9 0 9 -9q0 -5 -4 -10l-79 -116q-6 -9 -15 -9h-47q-8 0 -8 8q0 2 3 8l3 6l63 111q6 11 18 11h57zM517 645q0 -16 -17 -16h-339v-239h272q7 0 12 -5t5 -12v-38q0 -16 -17 -16h-272v-248h339q17 0 17 -17v-37q0 -17 -17 -17h-398q-17 0 -17 17v666q0 7 5 12t12 5 h398q7 0 12 -5t5 -12v-38z" />
<glyph unicode="&#xca;" horiz-adv-x="563" d="M167 756q-8 0 -8 8q0 5 6 14l70 111q7 11 19 11h56q10 0 18 -11l70 -112q6 -6 6 -13q0 -8 -9 -8h-45q-9 0 -15 9l-54 79l-54 -79q-5 -9 -14 -9h-46zM500 629h-339v-239h272q7 0 12 -5t5 -12v-38q0 -16 -17 -16h-272v-248h339q17 0 17 -17v-37q0 -17 -17 -17h-398 q-17 0 -17 17v666q0 7 5 12t12 5h398q7 0 12 -5t5 -12v-38q0 -16 -17 -16z" />
<glyph unicode="&#xcb;" horiz-adv-x="563" d="M196 880q21 0 34.5 -13.5t13.5 -34.5q0 -22 -13.5 -35.5t-34.5 -13.5q-22 0 -35 13.5t-13 35.5q0 21 13 34.5t35 13.5zM369 880q22 0 35.5 -13.5t13.5 -34.5q0 -22 -13.5 -35.5t-35.5 -13.5q-21 0 -34 13.5t-13 35.5q0 21 13 34.5t34 13.5zM517 645q0 -16 -17 -16h-339 v-239h272q7 0 12 -5t5 -12v-38q0 -16 -17 -16h-272v-248h339q17 0 17 -17v-37q0 -17 -17 -17h-398q-17 0 -17 17v666q0 7 5 12t12 5h398q7 0 12 -5t5 -12v-38z" />
<glyph unicode="&#xcc;" horiz-adv-x="246" d="M8 900q-10 0 -10 -9q0 -2 4 -10l80 -116q5 -9 14 -9h47q9 0 9 8q0 2 -3 8l-3 6l-63 111q-5 11 -18 11h-57zM102 0q-17 0 -17 17v666q0 7 5 12t12 5h42q7 0 12 -5t5 -12v-666q0 -17 -17 -17h-42z" />
<glyph unicode="&#xcd;" horiz-adv-x="246" d="M239 900q9 0 9 -9q0 -2 -4 -10l-80 -116q-5 -9 -14 -9h-47q-9 0 -9 8q0 4 7 14l63 111q6 11 17 11h58zM102 0q-17 0 -17 17v666q0 7 5 12t12 5h42q7 0 12 -5t5 -12v-666q0 -17 -17 -17h-42z" />
<glyph unicode="&#xce;" horiz-adv-x="246" d="M240 777q6 -12 6 -13q0 -8 -9 -8h-45q-9 0 -15 9l-54 79l-54 -79q-5 -9 -14 -9h-46q-9 0 -9 8q0 4 7 14l70 111q7 11 19 11h56q10 0 18 -11zM144 700q7 0 12 -5t5 -12v-666q0 -17 -17 -17h-42q-17 0 -17 17v666q0 7 5 12t12 5h42z" />
<glyph unicode="&#xcf;" horiz-adv-x="246" d="M37 880q22 0 35 -13.5t13 -34.5q0 -22 -13 -35.5t-35 -13.5q-21 0 -34 13.5t-13 35.5q0 21 13 34.5t34 13.5zM211 880q22 0 35 -13.5t13 -34.5q0 -22 -13 -35.5t-35 -13.5q-21 0 -34 13.5t-13 35.5q0 21 13 34.5t34 13.5zM102 0q-17 0 -17 17v666q0 7 5 12t12 5h42 q7 0 12 -5t5 -12v-666q0 -17 -17 -17h-42z" />
<glyph unicode="&#xd0;" horiz-adv-x="640" d="M321 700q111 0 184.5 -74.5t73.5 -197.5v-155q0 -123 -73.5 -198t-184.5 -75h-219q-17 0 -17 17v304h-76q-17 0 -17 16v26q0 17 17 17h76v303q0 7 5 12t12 5h219zM501 273v154q0 93 -51.5 147.5t-128.5 54.5h-160v-249h125q15 0 15 -15v-30q0 -14 -15 -14h-125v-250h160 q77 0 128.5 54.5t51.5 147.5z" />
<glyph unicode="&#xd1;" horiz-adv-x="674" d="M207 766q-13 0 -13 13q0 45 24 72t60 27q31 0 68 -24.5t49 -24.5q27 0 27 36q0 14 13 14h31q14 0 14 -14q0 -44 -20.5 -71t-62.5 -27q-33 0 -68 23.5t-48 23.5q-26 0 -28 -36q0 -12 -14 -12h-32zM572 700q7 0 12 -5t5 -12v-666q0 -7 -5 -12t-12 -5h-34q-15 0 -28 19 l-350 554v-556q0 -7 -5 -12t-12 -5h-41q-17 0 -17 17v666q0 7 5 12t12 5h50q12 0 19 -14l343 -542v539q0 7 5 12t12 5h41z" />
<glyph unicode="&#xd2;" d="M203 900q-9 0 -9 -9q0 -5 4 -10l79 -116q6 -9 15 -9h47q8 0 8 8q0 5 -6 14l-63 111q-6 11 -17 11h-58zM62 437q0 123 72.5 198t183.5 75t184.5 -75.5t73.5 -197.5v-174q0 -122 -73 -197.5t-184 -75.5t-184 75.5t-73 197.5v174zM138 263q0 -93 51.5 -147.5t129.5 -54.5 q77 0 128.5 54.5t51.5 147.5v172q0 94 -51.5 149t-129.5 55t-129 -55t-51 -149v-172z" />
<glyph unicode="&#xd3;" d="M434 900q10 0 10 -9q0 -2 -4 -10l-80 -116q-6 -9 -15 -9h-46q-9 0 -9 8q0 2 3 8l3 6l63 111q5 11 18 11h57zM62 437q0 123 72.5 198t183.5 75t184.5 -75.5t73.5 -197.5v-174q0 -122 -73 -197.5t-184 -75.5t-184 75.5t-73 197.5v174zM138 263q0 -93 51.5 -147.5 t129.5 -54.5q77 0 128.5 54.5t51.5 147.5v172q0 94 -51.5 149t-129.5 55t-129 -55t-51 -149v-172z" />
<glyph unicode="&#xd4;" d="M205 756q-9 0 -9 8q0 2 3 8l3 6l70 111q7 11 19 11h56q12 0 18 -11l71 -112q5 -10 5 -13q0 -8 -8 -8h-46q-8 0 -14 9l-54 79l-54 -79q-6 -9 -15 -9h-45zM318 710q111 0 184.5 -75.5t73.5 -197.5v-174q0 -122 -73 -197.5t-184 -75.5t-184 75.5t-73 197.5v174 q0 123 72.5 198t183.5 75zM499 263v172q0 94 -51.5 149t-129.5 55t-129 -55t-51 -149v-172q0 -93 51.5 -147.5t129.5 -54.5q77 0 128.5 54.5t51.5 147.5z" />
<glyph unicode="&#xd5;" d="M189 766q-13 0 -13 13q0 45 24 72t60 27q31 0 68 -24.5t49 -24.5q26 0 26 36q0 14 14 14h30q15 0 15 -14q0 -44 -21 -71t-63 -27q-33 0 -67.5 23.5t-48.5 23.5q-25 0 -27 -36q0 -12 -14 -12h-32zM62 437q0 123 72.5 198t183.5 75t184.5 -75.5t73.5 -197.5v-174 q0 -122 -73 -197.5t-184 -75.5t-184 75.5t-73 197.5v174zM138 263q0 -93 51.5 -147.5t129.5 -54.5q77 0 128.5 54.5t51.5 147.5v172q0 94 -51.5 149t-129.5 55t-129 -55t-51 -149v-172z" />
<glyph unicode="&#xd6;" d="M233 880q21 0 34.5 -13.5t13.5 -34.5q0 -22 -13.5 -35.5t-34.5 -13.5q-22 0 -35 13.5t-13 35.5q0 21 13 34.5t35 13.5zM407 880q21 0 34.5 -13.5t13.5 -34.5q0 -22 -13.5 -35.5t-34.5 -13.5q-22 0 -35 13.5t-13 35.5q0 21 13 34.5t35 13.5zM62 437q0 123 72.5 198 t183.5 75t184.5 -75.5t73.5 -197.5v-174q0 -122 -73 -197.5t-184 -75.5t-184 75.5t-73 197.5v174zM138 263q0 -93 51.5 -147.5t129.5 -54.5q77 0 128.5 54.5t51.5 147.5v172q0 94 -51.5 149t-129.5 55t-129 -55t-51 -149v-172z" />
<glyph unicode="&#xd7;" horiz-adv-x="622" d="M101 167q-11 11 0 23l160 160l-156 156q-12 12 0 24l27 26q12 12 24 1l155 -156l159 158q12 12 24 0l26 -26q12 -13 0 -25l-159 -157l156 -155q13 -12 0 -25l-26 -26q-13 -13 -25 0l-154 155l-160 -159q-12 -12 -24 0z" />
<glyph unicode="&#xd8;" d="M575 679l-48 -74q49 -70 49 -168v-174q0 -122 -73 -197.5t-184 -75.5q-96 0 -164 57l-22 -33q-9 -14 -22 -14h-38q-9 0 -12 7t3 14l48 73q-50 69 -50 169v174q0 123 72.5 198t183.5 75q96 0 165 -58l23 34q9 14 22 14h38q9 0 12 -6.5t-3 -14.5zM138 263q0 -56 20 -99 l284 426q-51 49 -124 49q-78 0 -129 -55t-51 -149v-172zM499 435q0 56 -19 100l-284 -426q51 -48 123 -48q77 0 128.5 54.5t51.5 147.5v172z" />
<glyph unicode="&#xd9;" horiz-adv-x="643" d="M206 900q-10 0 -10 -9q0 -2 4 -10l80 -116q6 -9 15 -9h47q8 0 8 8q0 2 -3 8l-3 6l-63 111q-5 11 -18 11h-57zM508 700q-7 0 -11.5 -5t-4.5 -12v-423q0 -93 -47.5 -146t-122.5 -53q-77 0 -124 53t-47 146v423q0 7 -5 12t-12 5h-42q-7 0 -12 -5t-5 -12v-423 q0 -123 69 -196.5t178 -73.5t177.5 73.5t68.5 196.5v423q0 7 -5.5 12t-12.5 5h-42z" />
<glyph unicode="&#xda;" horiz-adv-x="643" d="M437 900q9 0 9 -9q0 -5 -4 -10l-79 -116q-6 -9 -15 -9h-47q-8 0 -8 8q0 2 3 8l3 6l63 111q6 11 18 11h57zM508 700q-7 0 -11.5 -5t-4.5 -12v-423q0 -93 -47.5 -146t-122.5 -53q-77 0 -124 53t-47 146v423q0 7 -5 12t-12 5h-42q-7 0 -12 -5t-5 -12v-423q0 -123 69 -196.5 t178 -73.5t177.5 73.5t68.5 196.5v423q0 7 -5.5 12t-12.5 5h-42z" />
<glyph unicode="&#xdb;" horiz-adv-x="643" d="M208 756q-9 0 -9 8q0 5 6 14l70 111q7 11 19 11h56q10 0 18 -11l70 -112q6 -6 6 -13q0 -8 -9 -8h-45q-9 0 -15 9l-53 79l-54 -79q-6 -9 -15 -9h-45zM550 700q7 0 12.5 -5t5.5 -12v-423q0 -123 -68.5 -196.5t-177.5 -73.5t-178 73.5t-69 196.5v423q0 7 5 12t12 5h42 q7 0 12 -5t5 -12v-423q0 -93 47 -146t124 -53q75 0 122.5 53t47.5 146v423q0 7 4.5 12t11.5 5h42z" />
<glyph unicode="&#xdc;" horiz-adv-x="643" d="M236 880q21 0 34.5 -13.5t13.5 -34.5q0 -22 -13.5 -35.5t-34.5 -13.5q-22 0 -35 13.5t-13 35.5q0 21 13 34.5t35 13.5zM410 880q21 0 34.5 -13.5t13.5 -34.5q0 -22 -13.5 -35.5t-34.5 -13.5q-22 0 -35 13.5t-13 35.5q0 21 13 34.5t35 13.5zM508 700q-7 0 -11.5 -5 t-4.5 -12v-423q0 -93 -47.5 -146t-122.5 -53q-77 0 -124 53t-47 146v423q0 7 -5 12t-12 5h-42q-7 0 -12 -5t-5 -12v-423q0 -123 69 -196.5t178 -73.5t177.5 73.5t68.5 196.5v423q0 7 -5.5 12t-12.5 5h-42z" />
<glyph unicode="&#xdd;" horiz-adv-x="601" d="M280 756q-8 0 -8 8q0 2 3 8l3 6l63 111q5 11 18 11h57q9 0 9 -9q0 -5 -4 -10l-79 -116q-6 -9 -15 -9h-47zM570 700q11 0 11 -11q0 -6 -8 -18l-234 -376v-278q0 -17 -18 -17h-42q-16 0 -16 17v278l-234 375q-9 12 -9 19q0 11 11 11h57q9 0 15 -11l200 -323l197 323 q6 11 15 11h55z" />
<glyph unicode="&#xde;" horiz-adv-x="597" d="M341 568q98 0 157 -51.5t59 -146.5v-20q0 -96 -59.5 -152t-156.5 -56h-180v-125q0 -17 -17 -17h-42q-17 0 -17 17v666q0 17 17 17h42q17 0 17 -17v-115h180zM481 348v21q0 67 -40.5 97.5t-103.5 30.5h-176v-283h176q61 0 102.5 33.5t41.5 100.5z" />
<glyph unicode="&#xdf;" horiz-adv-x="574" d="M292 400q-17 0 -17 -17v-34q0 -16 17 -16h22q65 0 100 -36t35 -99q0 -139 -129 -139q-29 0 -53.5 5t-27.5 5q-11 0 -11 -11v-38q0 -17 15 -21q31 -9 77 -9q203 0 203 202q0 67 -29.5 111.5t-78.5 65.5q70 32 70 143q0 82 -50.5 135t-145.5 53q-98 0 -147.5 -57 t-51.5 -143h-58q-7 0 -11.5 -5t-4.5 -12v-33q0 -17 16 -17h58v-419q0 -14 16 -14h42q18 0 18 17v471q0 70 33.5 106t89.5 36q55 0 89 -32t34 -90q0 -108 -98 -108h-22z" />
<glyph unicode="&#xe0;" horiz-adv-x="504" d="M138 700q-10 0 -10 -9q0 -2 4 -10l80 -116q5 -9 14 -9h47q9 0 9 8q0 2 -3 8l-3 6l-63 111q-5 11 -18 11h-57zM432 17q0 -7 -5 -12t-12 -5h-39q-17 0 -17 17v47q-15 -35 -53.5 -54.5t-83.5 -19.5h-20q-72 0 -116.5 38t-44.5 109q0 147 184 147h134v34q0 59 -22.5 92 t-92.5 33q-55 0 -77 -18.5t-29 -54.5q-4 -13 -15 -13h-43q-15 0 -15 15l1 2v4q22 132 178 132q61 0 101 -17t57.5 -48.5t23.5 -60.5t6 -68v-299zM227 222q-61 0 -87.5 -20t-26.5 -65q0 -40 28 -61t71 -21h20q71 0 99 40t28 95v32h-132z" />
<glyph unicode="&#xe1;" horiz-adv-x="504" d="M369 700q9 0 9 -9q0 -2 -4 -10l-80 -116q-5 -9 -14 -9h-47q-9 0 -9 8q0 4 7 14l63 111q6 11 17 11h58zM432 17q0 -7 -5 -12t-12 -5h-39q-17 0 -17 17v47q-15 -35 -53.5 -54.5t-83.5 -19.5h-20q-72 0 -116.5 38t-44.5 109q0 147 184 147h134v34q0 59 -22.5 92t-92.5 33 q-55 0 -77 -18.5t-29 -54.5q-4 -13 -15 -13h-43q-15 0 -15 15l1 2v4q22 132 178 132q61 0 101 -17t57.5 -48.5t23.5 -60.5t6 -68v-299zM227 222q-61 0 -87.5 -20t-26.5 -65q0 -40 28 -61t71 -21h20q71 0 99 40t28 95v32h-132z" />
<glyph unicode="&#xe2;" horiz-adv-x="504" d="M139 556q-8 0 -8 8q0 5 6 14l70 111q7 11 19 11h56q10 0 18 -11l70 -112q6 -12 6 -13q0 -8 -9 -8h-45q-9 0 -15 9l-54 79l-54 -79q-5 -9 -14 -9h-46zM244 510q61 0 101 -17t57.5 -48.5t23.5 -60.5t6 -68v-299q0 -7 -5 -12t-12 -5h-39q-17 0 -17 17v47 q-15 -35 -53.5 -54.5t-83.5 -19.5h-20q-72 0 -116.5 38t-44.5 109q0 147 184 147h134v34q0 59 -22.5 92t-92.5 33q-55 0 -77 -18.5t-29 -54.5q-4 -13 -15 -13h-43q-15 0 -15 15l1 2v4q22 132 178 132zM359 190v32h-132q-61 0 -87.5 -20t-26.5 -65q0 -40 28 -61t71 -21h20 q71 0 99 40t28 95z" />
<glyph unicode="&#xe3;" horiz-adv-x="504" d="M124 566q-14 0 -14 13q0 45 24 72t60 27q32 0 68.5 -24.5t48.5 -24.5q27 0 27 36q0 14 13 14h31q14 0 14 -14q0 -44 -20.5 -71t-62.5 -27q-33 0 -68 23.5t-48 23.5q-26 0 -28 -36q0 -12 -14 -12h-31zM432 17q0 -7 -5 -12t-12 -5h-39q-17 0 -17 17v47q-15 -35 -53.5 -54.5 t-83.5 -19.5h-20q-72 0 -116.5 38t-44.5 109q0 147 184 147h134v34q0 59 -22.5 92t-92.5 33q-55 0 -77 -18.5t-29 -54.5q-4 -13 -15 -13h-43q-15 0 -15 15l1 2v4q22 132 178 132q61 0 101 -17t57.5 -48.5t23.5 -60.5t6 -68v-299zM227 222q-61 0 -87.5 -20t-26.5 -65 q0 -40 28 -61t71 -21h20q71 0 99 40t28 95v32h-132z" />
<glyph unicode="&#xe4;" horiz-adv-x="504" d="M167 680q22 0 35 -13.5t13 -34.5q0 -22 -13 -35.5t-35 -13.5q-21 0 -34 13.5t-13 35.5q0 21 13 34.5t34 13.5zM341 680q22 0 35 -13.5t13 -34.5q0 -22 -13 -35.5t-35 -13.5q-21 0 -34 13.5t-13 35.5q0 21 13 34.5t34 13.5zM432 17q0 -7 -5 -12t-12 -5h-39q-17 0 -17 17 v47q-15 -35 -53.5 -54.5t-83.5 -19.5h-20q-72 0 -116.5 38t-44.5 109q0 147 184 147h134v34q0 59 -22.5 92t-92.5 33q-55 0 -77 -18.5t-29 -54.5q-4 -13 -15 -13h-43q-15 0 -15 15l1 2v4q22 132 178 132q61 0 101 -17t57.5 -48.5t23.5 -60.5t6 -68v-299zM227 222 q-61 0 -87.5 -20t-26.5 -65q0 -40 28 -61t71 -21h20q71 0 99 40t28 95v32h-132z" />
<glyph unicode="&#xe5;" horiz-adv-x="504" d="M253 750q46 0 77.5 -31t31.5 -76t-31.5 -75.5t-77.5 -30.5t-77 30.5t-31 75.5t31 76t77 31zM253 589q21 0 36.5 15.5t15.5 38.5q0 22 -15.5 38t-36.5 16q-22 0 -37 -15.5t-15 -38.5q0 -24 15 -39t37 -15zM432 17q0 -7 -5 -12t-12 -5h-39q-17 0 -17 17v47 q-15 -35 -53.5 -54.5t-83.5 -19.5h-20q-72 0 -116.5 38t-44.5 109q0 147 184 147h134v34q0 59 -22.5 92t-92.5 33q-55 0 -77 -18.5t-29 -54.5q-4 -13 -15 -13h-43q-15 0 -15 15l1 2v4q22 132 178 132q61 0 101 -17t57.5 -48.5t23.5 -60.5t6 -68v-299zM227 222 q-61 0 -87.5 -20t-26.5 -65q0 -40 28 -61t71 -21h20q71 0 99 40t28 95v32h-132z" />
<glyph unicode="&#xe6;" horiz-adv-x="809" d="M558 510q86 0 142 -60t56 -161v-50q0 -7 -5 -11.5t-12 -4.5h-305v-22q0 -66 35.5 -105t90.5 -39q83 0 115 85q7 12 16 12h47q11 0 11 -12q0 -1 -4 -15q-22 -71 -74.5 -104t-110.5 -33q-54 0 -97 25t-67 72q-25 -48 -72 -72.5t-97 -24.5h-19q-73 0 -120 38t-47 109 q0 76 45.5 111t135.5 35h136v35q0 28 -3.5 47t-14.5 38.5t-35 29.5t-61 10q-55 0 -77 -18.5t-29 -54.5q-4 -13 -15 -13h-43q-15 0 -15 15l1 2v4q22 132 178 132q121 0 161 -82q55 82 153 82zM682 283v14q0 68 -34.5 107t-89.5 39t-89.5 -39t-34.5 -107v-14h248zM232 55 q66 0 96 40.5t30 100.5v26h-134q-60 0 -85.5 -20.5t-25.5 -64.5q0 -40 28 -61t71 -21h20z" />
<glyph unicode="&#xe7;" horiz-adv-x="503" d="M440 171q11 0 11 -12q0 -7 -1 -12q-4 -25 -17.5 -50.5t-35.5 -50t-57.5 -40t-79.5 -16.5l-13 -38q9 3 20 3q30 0 55.5 -18.5t25.5 -56.5v-4q0 -33 -22 -57.5t-69 -24.5q-50 0 -76 28q-8 9 -1 18l15 18q7 9 18 -2q18 -15 43 -15q13 0 24 8t11 27v3q0 30 -34 30 q-13 0 -35 -12q-7 -4 -17 -1l-16 6q-10 5 -4 22l26 71q-71 15 -114.5 72t-43.5 145v76q0 102 57.5 162t146.5 60q82 0 131.5 -48.5t62.5 -115.5q0 -2 1 -4v-2q0 -12 -11 -12h-48q-12 0 -14 13q-26 102 -122 102q-58 0 -94 -40t-36 -110v-86q0 -71 36.5 -110.5t93.5 -39.5 q94 0 122 102q3 12 13 12h48z" />
<glyph unicode="&#xe8;" horiz-adv-x="515" d="M142 700q-10 0 -10 -9q0 -2 4 -10l80 -116q6 -9 15 -9h46q9 0 9 8q0 2 -3 8l-3 6l-63 111q-5 11 -18 11h-57zM129 201q0 -66 36.5 -105t93.5 -39q89 0 122 85q5 12 16 12h46q12 0 12 -12q0 -1 -4 -15q-23 -71 -77 -104t-115 -33q-90 0 -148 60t-58 162v76q0 102 58 162 t147 60q88 0 146 -60t58 -161v-50q0 -16 -18 -16h-315v-22zM387 283v14q0 68 -35.5 107t-93.5 39q-57 0 -93 -39t-36 -107v-14h258z" />
<glyph unicode="&#xe9;" horiz-adv-x="515" d="M373 700q9 0 9 -9q0 -5 -4 -10l-79 -116q-6 -9 -15 -9h-47q-8 0 -8 8q0 5 6 14l63 111q6 11 17 11h58zM129 201q0 -66 36.5 -105t93.5 -39q89 0 122 85q5 12 16 12h46q12 0 12 -12q0 -1 -4 -15q-23 -71 -77 -104t-115 -33q-90 0 -148 60t-58 162v76q0 102 58 162t147 60 q88 0 146 -60t58 -161v-50q0 -16 -18 -16h-315v-22zM387 283v14q0 68 -35.5 107t-93.5 39q-57 0 -93 -39t-36 -107v-14h258z" />
<glyph unicode="&#xea;" horiz-adv-x="515" d="M143 556q-8 0 -8 8q0 5 6 14l70 111q7 11 19 11h56q10 0 18 -11l70 -112q6 -12 6 -13q0 -8 -9 -8h-45q-9 0 -15 9l-54 79l-54 -79q-5 -9 -14 -9h-46zM258 510q88 0 146 -60t58 -161v-50q0 -16 -18 -16h-315v-22q0 -66 36.5 -105t93.5 -39q89 0 122 85q5 12 16 12h46 q12 0 12 -12q0 -1 -4 -15q-23 -71 -77 -104t-115 -33q-90 0 -148 60t-58 162v76q0 102 58 162t147 60zM387 283v14q0 68 -35.5 107t-93.5 39q-57 0 -93 -39t-36 -107v-14h258z" />
<glyph unicode="&#xeb;" horiz-adv-x="515" d="M171 680q22 0 35.5 -13.5t13.5 -34.5q0 -22 -13.5 -35.5t-35.5 -13.5q-21 0 -34 13.5t-13 35.5q0 21 13 34.5t34 13.5zM345 680q22 0 35.5 -13.5t13.5 -34.5q0 -22 -13.5 -35.5t-35.5 -13.5q-21 0 -34 13.5t-13 35.5q0 21 13 34.5t34 13.5zM129 201q0 -66 36.5 -105 t93.5 -39q89 0 122 85q5 12 16 12h46q12 0 12 -12q0 -1 -4 -15q-23 -71 -77 -104t-115 -33q-90 0 -148 60t-58 162v76q0 102 58 162t147 60q88 0 146 -60t58 -161v-50q0 -16 -18 -16h-315v-22zM387 283v14q0 68 -35.5 107t-93.5 39q-57 0 -93 -39t-36 -107v-14h258z" />
<glyph unicode="&#xec;" horiz-adv-x="239" d="M4 700q-9 0 -9 -9q0 -5 4 -10l79 -116q6 -9 15 -9h47q8 0 8 8q0 2 -3 8l-3 6l-63 111q-5 11 -18 11h-57zM98 0q-16 0 -16 17v466q0 17 16 17h42q7 0 12 -5t5 -12v-466q0 -17 -17 -17h-42z" />
<glyph unicode="&#xed;" horiz-adv-x="239" d="M235 700q10 0 10 -9q0 -2 -4 -10l-80 -116q-6 -9 -15 -9h-47q-8 0 -8 8q0 2 3 8l3 6l63 111q6 11 18 11h57zM98 0q-16 0 -16 17v466q0 17 16 17h42q7 0 12 -5t5 -12v-466q0 -17 -17 -17h-42z" />
<glyph unicode="&#xee;" horiz-adv-x="239" d="M236 577q6 -6 6 -13q0 -8 -8 -8h-46q-9 0 -14 9l-54 79l-54 -79q-6 -9 -15 -9h-45q-9 0 -9 8q0 5 6 14l70 111q7 11 19 11h56q10 0 18 -11zM140 500q7 0 12 -5t5 -12v-466q0 -17 -17 -17h-42q-16 0 -16 17v466q0 17 16 17h42z" />
<glyph unicode="&#xef;" horiz-adv-x="239" d="M34 680q21 0 34.5 -13.5t13.5 -34.5q0 -22 -13.5 -35.5t-34.5 -13.5q-22 0 -35 13.5t-13 35.5q0 21 13 34.5t35 13.5zM208 680q21 0 34.5 -13.5t13.5 -34.5q0 -22 -13.5 -35.5t-34.5 -13.5q-22 0 -35 13.5t-13 35.5q0 21 13 34.5t35 13.5zM98 0q-16 0 -16 17v466 q0 17 16 17h42q7 0 12 -5t5 -12v-466q0 -17 -17 -17h-42z" />
<glyph unicode="&#xf0;" horiz-adv-x="514" d="M402 623q59 -68 59 -195v-216q0 -102 -57.5 -162t-146.5 -60t-146.5 58t-57.5 158v46q0 99 57 157.5t148 58.5q77 0 130 -52v24q0 85 -38 134l-60 -55q-12 -13 -24 -1l-17 17q-10 12 2 24l56 52q-47 25 -113 25q-18 0 -18 16v37q0 11 12 11h12q96 0 159 -40l45 42 q14 14 27 1l17 -17q10 -11 -5 -26zM386 207v44q0 72 -35.5 111t-93.5 39q-57 0 -92.5 -39.5t-35.5 -110.5v-44q0 -71 35.5 -110.5t92.5 -39.5q58 0 93.5 39.5t35.5 110.5z" />
<glyph unicode="&#xf1;" horiz-adv-x="552" d="M146 566q-13 0 -13 13q0 45 24 72t60 27q31 0 68 -24.5t49 -24.5q27 0 27 36q0 14 13 14h31q14 0 14 -14q0 -44 -21 -71t-63 -27q-33 0 -67.5 23.5t-48.5 23.5q-25 0 -27 -36q0 -12 -14 -12h-32zM93 0q-16 0 -16 17v466q0 17 16 17h42q7 0 12 -5t5 -12v-49q46 76 141 76 q90 0 138.5 -60t48.5 -162v-271q0 -17 -17 -17h-42q-17 0 -17 17v276q0 71 -34.5 110.5t-91.5 39.5t-91.5 -39.5t-34.5 -110.5v-276q0 -17 -17 -17h-42z" />
<glyph unicode="&#xf2;" horiz-adv-x="514" d="M142 700q-10 0 -10 -9q0 -2 4 -10l80 -116q6 -9 14 -9h47q9 0 9 8q0 2 -3 8l-3 6l-63 111q-5 11 -18 11h-57zM53 288q0 103 57.5 162.5t146.5 59.5t146.5 -60t57.5 -162v-76q0 -102 -57.5 -162t-146.5 -60t-146.5 59.5t-57.5 162.5v76zM129 207q0 -71 35.5 -110.5 t92.5 -39.5q58 0 93.5 39.5t35.5 110.5v86q0 71 -35.5 110.5t-93.5 39.5q-57 0 -92.5 -39.5t-35.5 -110.5v-86z" />
<glyph unicode="&#xf3;" horiz-adv-x="514" d="M373 700q9 0 9 -9q0 -5 -4 -10l-79 -116q-6 -9 -15 -9h-47q-9 0 -9 8q0 4 7 14l63 111q6 11 17 11h58zM53 288q0 103 57.5 162.5t146.5 59.5t146.5 -60t57.5 -162v-76q0 -102 -57.5 -162t-146.5 -60t-146.5 59.5t-57.5 162.5v76zM129 207q0 -71 35.5 -110.5t92.5 -39.5 q58 0 93.5 39.5t35.5 110.5v86q0 71 -35.5 110.5t-93.5 39.5q-57 0 -92.5 -39.5t-35.5 -110.5v-86z" />
<glyph unicode="&#xf4;" horiz-adv-x="514" d="M143 556q-8 0 -8 8q0 5 6 14l70 111q7 11 19 11h56q10 0 18 -11l70 -112q6 -12 6 -13q0 -8 -9 -8h-45q-9 0 -15 9l-54 79l-54 -79q-5 -9 -14 -9h-46zM257 510q89 0 146.5 -60t57.5 -162v-76q0 -102 -57.5 -162t-146.5 -60t-146.5 59.5t-57.5 162.5v76q0 103 57.5 162.5 t146.5 59.5zM386 207v86q0 71 -35.5 110.5t-93.5 39.5q-57 0 -92.5 -39.5t-35.5 -110.5v-86q0 -71 35.5 -110.5t92.5 -39.5q58 0 93.5 39.5t35.5 110.5z" />
<glyph unicode="&#xf5;" horiz-adv-x="514" d="M128 566q-14 0 -14 13q0 45 24 72t60 27q32 0 68.5 -24.5t48.5 -24.5q27 0 27 36q0 14 13 14h31q14 0 14 -14q0 -44 -20.5 -71t-62.5 -27q-33 0 -68 23.5t-48 23.5q-26 0 -28 -36q0 -12 -14 -12h-31zM53 288q0 103 57.5 162.5t146.5 59.5t146.5 -60t57.5 -162v-76 q0 -102 -57.5 -162t-146.5 -60t-146.5 59.5t-57.5 162.5v76zM129 207q0 -71 35.5 -110.5t92.5 -39.5q58 0 93.5 39.5t35.5 110.5v86q0 71 -35.5 110.5t-93.5 39.5q-57 0 -92.5 -39.5t-35.5 -110.5v-86z" />
<glyph unicode="&#xf6;" horiz-adv-x="514" d="M171 680q22 0 35.5 -13.5t13.5 -34.5q0 -22 -13.5 -35.5t-35.5 -13.5q-21 0 -34 13.5t-13 35.5q0 21 13 34.5t34 13.5zM345 680q22 0 35.5 -13.5t13.5 -34.5q0 -22 -13.5 -35.5t-35.5 -13.5q-21 0 -34 13.5t-13 35.5q0 21 13 34.5t34 13.5zM53 288q0 103 57.5 162.5 t146.5 59.5t146.5 -60t57.5 -162v-76q0 -102 -57.5 -162t-146.5 -60t-146.5 59.5t-57.5 162.5v76zM129 207q0 -71 35.5 -110.5t92.5 -39.5q58 0 93.5 39.5t35.5 110.5v86q0 71 -35.5 110.5t-93.5 39.5q-57 0 -92.5 -39.5t-35.5 -110.5v-86z" />
<glyph unicode="&#xf7;" horiz-adv-x="622" d="M313 625q25 0 40.5 -16t15.5 -41t-15.5 -40t-40.5 -15q-26 0 -41.5 15t-15.5 40q0 26 16 41.5t41 15.5zM82 386q-16 0 -16 -17v-37q0 -17 16 -17h456q18 0 18 17v37q0 17 -18 17h-456zM313 189q25 0 40.5 -16t15.5 -41t-15.5 -40t-40.5 -15q-26 0 -41.5 15t-15.5 40 q0 26 16 41.5t41 15.5z" />
<glyph unicode="&#xf8;" horiz-adv-x="514" d="M459 479l-37 -52q39 -56 39 -139v-76q0 -102 -57.5 -162t-146.5 -60q-72 0 -123 39l-11 -15q-10 -14 -22 -14h-38q-9 0 -12 6.5t3 14.5l38 52q-39 56 -39 139v76q0 103 57.5 162.5t146.5 59.5q72 0 122 -38l11 14q10 14 22 14h38q9 0 12 -6.5t-3 -14.5zM128 207 q0 -38 11 -68l200 276q-32 28 -82 28q-58 0 -93.5 -39.5t-35.5 -110.5v-86zM386 293q0 39 -11 69l-200 -277q34 -28 82 -28q58 0 93.5 39.5t35.5 110.5v86z" />
<glyph unicode="&#xf9;" horiz-adv-x="538" d="M154 700q-9 0 -9 -9q0 -5 4 -10l79 -116q6 -9 15 -9h47q8 0 8 8q0 5 -6 14l-63 111q-5 11 -17 11h-58zM444 500q7 0 12 -5t5 -12v-466q0 -17 -17 -17h-42q-16 0 -16 17v44q-43 -71 -139 -71q-85 0 -130 58t-45 164v271q0 17 16 17h42q7 0 12 -5t5 -12v-276 q0 -73 29.5 -111.5t85.5 -38.5q57 0 90.5 39.5t33.5 110.5v276q0 17 16 17h42z" />
<glyph unicode="&#xfa;" horiz-adv-x="538" d="M385 700q10 0 10 -9q0 -2 -4 -10l-80 -116q-6 -9 -15 -9h-46q-9 0 -9 8q0 2 3 8l3 6l63 111q6 11 18 11h57zM444 500q7 0 12 -5t5 -12v-466q0 -17 -17 -17h-42q-16 0 -16 17v44q-43 -71 -139 -71q-85 0 -130 58t-45 164v271q0 17 16 17h42q7 0 12 -5t5 -12v-276 q0 -73 29.5 -111.5t85.5 -38.5q57 0 90.5 39.5t33.5 110.5v276q0 17 16 17h42z" />
<glyph unicode="&#xfb;" horiz-adv-x="538" d="M156 556q-9 0 -9 8q0 2 3 8l3 6l70 111q7 11 19 11h56q12 0 18 -11l71 -112q5 -10 5 -13q0 -8 -8 -8h-46q-8 0 -14 9l-54 79l-54 -79q-6 -9 -15 -9h-45zM444 500q7 0 12 -5t5 -12v-466q0 -17 -17 -17h-42q-16 0 -16 17v44q-43 -71 -139 -71q-85 0 -130 58t-45 164v271 q0 17 16 17h42q7 0 12 -5t5 -12v-276q0 -73 29.5 -111.5t85.5 -38.5q57 0 90.5 39.5t33.5 110.5v276q0 17 16 17h42z" />
<glyph unicode="&#xfc;" horiz-adv-x="538" d="M184 680q21 0 34.5 -13.5t13.5 -34.5q0 -22 -13.5 -35.5t-34.5 -13.5q-22 0 -35 13.5t-13 35.5q0 21 13 34.5t35 13.5zM358 680q21 0 34.5 -13.5t13.5 -34.5q0 -22 -13.5 -35.5t-34.5 -13.5q-22 0 -35 13.5t-13 35.5q0 21 13 34.5t35 13.5zM444 500q7 0 12 -5t5 -12v-466 q0 -17 -17 -17h-42q-16 0 -16 17v44q-43 -71 -139 -71q-85 0 -130 58t-45 164v271q0 17 16 17h42q7 0 12 -5t5 -12v-276q0 -73 29.5 -111.5t85.5 -38.5q57 0 90.5 39.5t33.5 110.5v276q0 17 16 17h42z" />
<glyph unicode="&#xfd;" horiz-adv-x="493" d="M226 556q-8 0 -8 8q0 5 6 14l63 111q5 11 17 11h58q9 0 9 -9q0 -5 -4 -10l-79 -116q-6 -9 -15 -9h-47zM464 500q11 0 11 -11q0 -6 -5 -18l-211 -537q-29 -74 -62 -104t-105 -30h-42q-16 0 -16 17v37q0 18 16 18h39q44 0 66 19t36 57l21 58l-185 463q-6 13 -6 20 q0 11 11 11h51q13 0 18 -15l151 -388l144 390q5 13 17 13h51z" />
<glyph unicode="&#xfe;" horiz-adv-x="539" d="M152 -183q0 -17 -17 -17h-42q-16 0 -16 17v866q0 17 16 17h42q7 0 12 -5t5 -12v-247q46 74 144 74q86 0 138 -58t52 -164v-74q0 -107 -52.5 -165.5t-137.5 -58.5q-97 0 -144 74v-247zM152 207q0 -69 35.5 -109.5t94.5 -40.5t93.5 40t34.5 110v85q0 70 -34 110.5t-94 40.5 q-59 0 -94.5 -39.5t-35.5 -105.5v-91z" />
<glyph unicode="&#xff;" horiz-adv-x="493" d="M160 583q-21 0 -34 13.5t-13 35.5q0 21 13 34.5t34 13.5q22 0 35.5 -13.5t13.5 -34.5q0 -22 -13.5 -35.5t-35.5 -13.5zM334 583q-21 0 -34 13.5t-13 35.5q0 21 13 34.5t34 13.5q22 0 35.5 -13.5t13.5 -34.5q0 -22 -13.5 -35.5t-35.5 -13.5zM464 500q11 0 11 -11 q0 -6 -5 -18l-211 -537q-29 -74 -62 -104t-105 -30h-42q-16 0 -16 17v37q0 18 16 18h39q44 0 66 19t36 57l21 58l-185 463q-6 13 -6 20q0 11 11 11h51q13 0 18 -15l151 -388l144 390q5 13 17 13h51z" />
<glyph unicode="&#x152;" horiz-adv-x="857" d="M794 629h-297v-239h230q7 0 12 -5t5 -12v-38q0 -16 -17 -16h-230v-248h297q17 0 17 -17v-37q0 -17 -17 -17h-357h-128q-106 0 -176.5 72.5t-70.5 190.5v174q0 118 70 190.5t176 72.5h148h338q7 0 12 -5t5 -12v-38q0 -16 -17 -16zM138 263q0 -88 49 -140t122 -52h112v558 h-113q-72 0 -121 -52.5t-49 -141.5v-172z" />
<glyph unicode="&#x153;" horiz-adv-x="825" d="M575 510q85 0 141 -60t56 -161v-50q0 -16 -17 -16h-304v-22q0 -65 35.5 -104.5t89.5 -39.5q83 0 115 85q7 12 17 12h46q11 0 11 -12q0 -1 -4 -15q-22 -71 -74.5 -104t-110.5 -33q-108 0 -161 87q-56 -87 -163 -87q-87 0 -143 59.5t-56 162.5v76q0 103 56 162.5t143 59.5 q108 0 164 -89q53 89 159 89zM375 207v86q0 71 -34 110.5t-89 39.5t-89 -39.5t-34 -110.5v-86q0 -71 34 -110.5t89 -39.5t89 39.5t34 110.5zM698 283v14q0 68 -34 107t-89 39t-89.5 -39t-34.5 -107v-14h247z" />
<glyph unicode="&#x178;" horiz-adv-x="601" d="M214 783q-21 0 -34 13.5t-13 35.5q0 21 13 34.5t34 13.5q22 0 35.5 -13.5t13.5 -34.5q0 -22 -13.5 -35.5t-35.5 -13.5zM388 783q-21 0 -34 13.5t-13 35.5q0 21 13 34.5t34 13.5q22 0 35.5 -13.5t13.5 -34.5q0 -22 -13.5 -35.5t-35.5 -13.5zM570 700q11 0 11 -11 q0 -6 -8 -18l-234 -376v-278q0 -17 -18 -17h-42q-16 0 -16 17v278l-234 375q-9 12 -9 19q0 11 11 11h57q9 0 15 -11l200 -323l197 323q6 11 15 11h55z" />
<glyph unicode="&#x2c6;" horiz-adv-x="305" d="M269 577q6 -6 6 -13q0 -8 -8 -8h-46q-9 0 -14 9l-54 79l-54 -79q-6 -9 -15 -9h-45q-9 0 -9 8q0 2 3 8l3 6l70 111q7 11 19 11h56q10 0 18 -11z" />
<glyph unicode="&#x2dc;" horiz-adv-x="482" d="M111 566q-13 0 -13 13q0 45 24 72t60 27q31 0 68 -24.5t49 -24.5q26 0 26 36q0 14 14 14h30q15 0 15 -14q0 -44 -21 -71t-63 -27q-33 0 -67.5 23.5t-48.5 23.5q-25 0 -27 -36q0 -12 -14 -12h-32z" />
<glyph unicode="&#x2000;" horiz-adv-x="475" />
<glyph unicode="&#x2001;" horiz-adv-x="950" />
<glyph unicode="&#x2002;" horiz-adv-x="475" />
<glyph unicode="&#x2003;" horiz-adv-x="950" />
<glyph unicode="&#x2004;" horiz-adv-x="316" />
<glyph unicode="&#x2005;" horiz-adv-x="237" />
<glyph unicode="&#x2006;" horiz-adv-x="158" />
<glyph unicode="&#x2007;" horiz-adv-x="158" />
<glyph unicode="&#x2008;" horiz-adv-x="118" />
<glyph unicode="&#x2009;" horiz-adv-x="190" />
<glyph unicode="&#x200a;" horiz-adv-x="52" />
<glyph unicode="&#x2010;" horiz-adv-x="403" d="M343 281q0 -17 -17 -17h-249q-17 0 -17 17v38q0 18 17 18h249q17 0 17 -18v-38z" />
<glyph unicode="&#x2011;" horiz-adv-x="403" d="M343 281q0 -17 -17 -17h-249q-17 0 -17 17v38q0 18 17 18h249q17 0 17 -18v-38z" />
<glyph unicode="&#x2012;" horiz-adv-x="403" d="M343 281q0 -17 -17 -17h-249q-17 0 -17 17v38q0 18 17 18h249q17 0 17 -18v-38z" />
<glyph unicode="&#x2013;" horiz-adv-x="500" d="M440 281q0 -17 -18 -17h-345q-17 0 -17 17v38q0 18 17 18h345q8 0 13 -5.5t5 -12.5v-38z" />
<glyph unicode="&#x2014;" horiz-adv-x="1000" d="M940 281q0 -17 -18 -17h-845q-17 0 -17 17v38q0 18 17 18h845q8 0 13 -5.5t5 -12.5v-38z" />
<glyph unicode="&#x2018;" horiz-adv-x="220" d="M107 446q-61 0 -61 78q0 38 10 70.5t24 51.5t30.5 32.5t28 19t17.5 5.5q8 0 8 -10v-34q0 -11 -11 -18q-36 -25 -42 -80q24 -2 39 -17t15 -41q0 -25 -16 -41t-42 -16z" />
<glyph unicode="&#x2019;" horiz-adv-x="220" d="M113 704q60 0 60 -79q0 -38 -10 -70.5t-24 -51.5t-30 -32.5t-27.5 -19t-17.5 -5.5q-8 0 -8 11v33q0 11 11 18q35 26 42 81q-24 2 -39 16.5t-15 40.5t16 42t42 16z" />
<glyph unicode="&#x201a;" horiz-adv-x="216" d="M109 109q61 0 61 -78q0 -39 -10 -71t-24 -51.5t-30.5 -33t-28 -19t-17.5 -5.5q-8 0 -8 11v33q0 12 11 18q35 25 43 81q-25 2 -40 17t-15 41q0 25 16.5 41t41.5 16z" />
<glyph unicode="&#x201c;" horiz-adv-x="407" d="M107 446q-61 0 -61 78q0 38 10 70.5t24 51.5t30.5 32.5t28 19t17.5 5.5q8 0 8 -10v-34q0 -11 -11 -18q-36 -25 -42 -80q24 -2 39 -17t15 -41q0 -25 -16 -41t-42 -16zM294 446q-61 0 -61 78q0 38 10 70.5t24 51.5t30.5 32.5t28 19t17.5 5.5q8 0 8 -10v-34q0 -11 -11 -18 q-35 -24 -43 -80q25 -2 40 -17t15 -41q0 -25 -16 -41t-42 -16z" />
<glyph unicode="&#x201d;" horiz-adv-x="407" d="M112 704q60 0 60 -79q0 -38 -10 -70.5t-24 -51.5t-30 -32.5t-27.5 -19t-17.5 -5.5q-9 0 -9 11v33q0 11 11 18q35 25 43 81q-24 2 -39 16.5t-15 40.5t16 42t42 16zM298 704q61 0 61 -79q0 -38 -10 -70.5t-24 -51.5t-30.5 -32.5t-28 -19t-17.5 -5.5q-8 0 -8 11v33 q0 11 11 18q35 25 43 81q-25 2 -40 16.5t-15 40.5t16 42t42 16z" />
<glyph unicode="&#x201e;" horiz-adv-x="403" d="M108 109q60 0 60 -78q0 -39 -10 -71t-24 -51.5t-30 -33t-27.5 -19t-17.5 -5.5q-8 0 -8 11v33q0 12 11 18q35 26 42 81q-24 2 -39 17t-15 41q0 25 16 41t42 16zM295 109q60 0 60 -78q0 -39 -10 -71t-24 -51.5t-30 -33t-27.5 -19t-17.5 -5.5q-8 0 -8 11v33q0 12 10 18 q35 25 43 81q-24 2 -39 17t-15 41q0 25 16 41t42 16z" />
<glyph unicode="&#x2022;" horiz-adv-x="243" d="M122 384q34 0 54.5 -21t20.5 -55t-20.5 -54.5t-54.5 -20.5t-55 20.5t-21 54.5t21 55t55 21z" />
<glyph unicode="&#x2026;" horiz-adv-x="647" d="M323 109q26 0 42 -16t16 -42t-16 -41.5t-42 -15.5t-42 15.5t-16 41.5q0 25 16.5 41.5t41.5 16.5zM537 109q26 0 42 -16t16 -42t-16 -41.5t-42 -15.5t-42 15.5t-16 41.5q0 25 16.5 41.5t41.5 16.5zM109 109q26 0 42 -16t16 -42t-16 -41.5t-42 -15.5t-42 15.5t-16 41.5 q0 25 16.5 41.5t41.5 16.5z" />
<glyph unicode="&#x202f;" horiz-adv-x="190" />
<glyph unicode="&#x2039;" horiz-adv-x="327" d="M267 381q0 -9 -9 -15l-146 -100l146 -99q9 -6 9 -14v-60q0 -9 -9 -9q-6 0 -13 6l-191 131q-11 7 -11 18v50q0 10 11 18l192 131q9 6 12 6q9 0 9 -9v-54z" />
<glyph unicode="&#x203a;" horiz-adv-x="327" d="M273 306q11 -7 11 -18v-50q0 -10 -11 -17l-192 -131q-9 -6 -12 -6q-9 0 -9 8v54q0 9 9 15l146 100l-146 99q-9 5 -9 15v60q0 8 9 8q4 0 13 -6z" />
<glyph unicode="&#x205f;" horiz-adv-x="237" />
<glyph unicode="&#x20ac;" horiz-adv-x="667" d="M599 236q12 0 12 -13q-5 -96 -75 -164.5t-176 -68.5q-105 0 -177.5 68.5t-79.5 181.5h-86q-17 0 -17 17v25q0 18 17 18h85v93h-85q-17 0 -17 16v26q0 18 17 18h86q8 112 79.5 179.5t176.5 67.5t172 -63.5t79 -159.5q1 -15 -14 -15h-51q-11 0 -13 15q-10 65 -56 108.5 t-117 43.5t-121.5 -47t-57.5 -129h191q6 0 11 -4.5t5 -11.5v-30q0 -6 -5 -10t-11 -4h-192v-93h192q6 0 11 -4.5t5 -11.5v-29q0 -15 -16 -15h-191q7 -83 57.5 -131t122.5 -48t118.5 44.5t55.5 117.5q2 13 12 13h53z" />
<glyph unicode="&#x2122;" horiz-adv-x="598" d="M227 700q11 0 11 -10v-29q0 -9 -11 -9h-75v-233q0 -11 -10 -11h-35q-10 0 -10 11v233h-75q-10 0 -10 9v29q0 10 10 10h205zM549 700q11 0 11 -12v-269q0 -11 -11 -11h-30q-9 0 -9 11v215l-69 -218q-2 -8 -8 -8h-27q-7 0 -9 7l-70 220v-216q0 -11 -10 -11h-31q-9 0 -9 11 v269q0 12 10 12h56q11 0 15 -12l61 -193l62 193q4 12 14 12h54z" />
<glyph unicode="&#x25fc;" horiz-adv-x="500" d="M0 500h500v-500h-500v500z" />
</font>
</defs>
</svg>
