<?xml version="1.0" standalone="no"?>
<!DOCTYPE svg PUBLIC "-//W3C//DTD SVG 1.1//EN" "http://www.w3.org/Graphics/SVG/1.1/DTD/svg11.dtd" >
<svg xmlns="http://www.w3.org/2000/svg" xmlns:xlink="http://www.w3.org/1999/xlink" version="1.1">
<metadata></metadata>
<defs>
<font id="weissenhof_groteskbold" horiz-adv-x="265" >
<font-face units-per-em="1000" ascent="750" descent="-250" />
<missing-glyph horiz-adv-x="230" />
<glyph unicode="&#xfb01;" horiz-adv-x="611" d="M478 546q-36 0 -59 23t-23 59t23 59t59 23q37 0 60 -23t23 -59t-23 -59t-60 -23zM520 500q13 0 22 -9t9 -22v-438q0 -13 -9 -22t-22 -9h-83q-13 0 -22 9t-9 22v343h-166v-343q0 -13 -9 -22t-22 -9h-83q-13 0 -22 9t-9 22v343h-59q-13 0 -22 9t-9 22v64q0 13 9 22t22 9h59 v29q0 96 46 133.5t135 37.5h38q13 0 22 -9t9 -22v-66q0 -13 -9 -22t-22 -9h-38q-20 0 -28 -10t-8 -32v-30h224h56z" />
<glyph unicode="&#xfb02;" horiz-adv-x="611" d="M520 700q13 0 22 -9t9 -22v-638q0 -13 -9 -22t-22 -9h-83q-13 0 -22 9t-9 22v541h-130q-20 0 -28 -10t-8 -32v-30h74q13 0 22 -9t9 -22v-64q0 -13 -9 -22t-22 -9h-74v-343q0 -13 -9 -22t-22 -9h-83q-13 0 -22 9t-9 22v343h-59q-13 0 -22 9t-9 22v64q0 13 9 22t22 9h59v29 q0 96 46 133.5t135 37.5h198h46z" />
<glyph horiz-adv-x="0" />
<glyph horiz-adv-x="333" />
<glyph unicode=" "  horiz-adv-x="230" />
<glyph unicode="&#x09;" horiz-adv-x="230" />
<glyph unicode="&#xa0;" horiz-adv-x="230" />
<glyph unicode="!" horiz-adv-x="266" d="M91 228q-13 0 -22 9t-9 22v410q0 13 9 22t22 9h83q13 0 22 -9t9 -22v-410q0 -13 -9 -22t-22 -9h-83zM133 162q38 0 62 -24t24 -62t-24 -62t-62 -24t-62 24t-24 62t24 62t62 24z" />
<glyph unicode="&#x22;" horiz-adv-x="432" d="M94 364q-26 0 -31 31l-26 139q-2 11 -2 32v103q0 13 9 22t22 9h80q13 0 22 -9t9 -22v-103q0 -21 -2 -32l-26 -139q-5 -31 -31 -31h-24zM314 364q-26 0 -31 31l-26 139q-2 11 -2 32v103q0 13 9 22t22 9h80q13 0 22 -9t9 -22v-103q0 -21 -2 -32l-26 -139q-5 -31 -31 -31 h-24z" />
<glyph unicode="#" horiz-adv-x="628" d="M322 0q-10 0 -16.5 6t-6.5 16q0 6 4 25l25 133h-104l-28 -150q-5 -30 -32 -30h-55q-10 0 -16.5 6t-6.5 16q0 6 4 25l25 133h-49q-13 0 -22 9t-9 22v53q0 13 9 22t22 9h71l18 90h-64q-13 0 -22 9t-9 22v53q0 13 9 22t22 9h86l30 157q5 23 30 23h55q10 0 16 -6.5t6 -16.5 q0 -8 -2 -18l-27 -139h105l30 157q5 23 30 23h55q10 0 16 -6.5t6 -16.5t-2 -18l-27 -139h64q13 0 22 -9t9 -22v-53q0 -13 -9 -22t-22 -9h-86l-17 -90h78q13 0 22 -9t9 -22v-53q0 -13 -9 -22t-22 -9h-100l-28 -150q-2 -12 -11 -21t-21 -9h-55zM246 295h104l18 90h-105z" />
<glyph unicode="$" horiz-adv-x="588" d="M549 197q0 -90 -54 -140t-140 -63v-93q0 -13 -9 -22t-22 -9h-51q-13 0 -22 9t-9 22v93q-100 14 -154.5 77t-54.5 134q0 13 9 22t22 9h81q22 0 29 -27q11 -50 40 -71q30 -22 80 -22q59 0 84.5 18t25.5 63q0 31 -26.5 52t-66 30.5t-86 25.5t-86 35.5t-66 61.5t-26.5 103 q0 80 49 130t146 62v109q0 9 7.5 16.5t16.5 7.5h65q9 0 16.5 -7.5t7.5 -16.5v-110q87 -14 135 -67.5t48 -121.5q0 -13 -9 -22t-22 -9h-82q-25 0 -32 28q-21 70 -96 70q-53 0 -79 -15t-26 -54q0 -25 19.5 -42t51 -27t69.5 -20t76.5 -25t70 -37.5t51 -62.5t19.5 -94z" />
<glyph unicode="%" horiz-adv-x="828" d="M30 536q0 86 47 130t117 44q69 0 116 -44t47 -130v-13q0 -86 -46.5 -129.5t-116.5 -43.5t-117 43.5t-47 129.5v13zM197 0q-10 0 -16.5 6t-6.5 16q0 11 7 24l351 636q9 18 29 18h69q10 0 16 -6.5t6 -16.5q0 -9 -8 -25l-346 -628q-12 -24 -31 -24h-70zM142 524 q0 -72 52 -72t52 72v12q0 72 -52 72t-52 -72v-12zM471 176q0 86 47 130t117 44q69 0 116 -44t47 -130v-13q0 -86 -46.5 -129.5t-116.5 -43.5t-117 43.5t-47 129.5v13zM583 164q0 -72 52 -72t52 72v12q0 72 -52 72t-52 -72v-12z" />
<glyph unicode="&#x26;" horiz-adv-x="609" d="M441 36q-75 -46 -160 -46q-57 0 -101 13t-69.5 33.5t-42 47.5t-22.5 51.5t-6 50.5q0 56 26 99t80 85q-36 49 -55 87t-19 78q0 89 59.5 132t144.5 43q84 0 143 -45t59 -127q0 -62 -39 -104t-110 -86l97 -111q9 35 9 91q0 13 9 22t22 9h69q13 0 22 -9t9 -22 q0 -116 -45 -201l65 -75q16 -20 16 -30q0 -22 -22 -22h-92q-15 0 -24 11zM251 435q47 28 70 50t23 50t-17.5 45t-50.5 17q-26 0 -48.5 -14.5t-22.5 -47.5q0 -26 14.5 -54.5t31.5 -45.5zM357 132l-132 148q-50 -46 -50 -84q0 -40 29 -61.5t77 -21.5q38 0 76 19z" />
<glyph unicode="'" horiz-adv-x="212" d="M94 364q-26 0 -31 31l-26 139q-2 11 -2 32v103q0 13 9 22t22 9h80q13 0 22 -9t9 -22v-103q0 -21 -2 -32l-26 -139q-5 -31 -31 -31h-24z" />
<glyph unicode="(" horiz-adv-x="333" d="M287 838l9 1q22 0 22 -22v-88q0 -22 -31 -31q-97 -30 -97 -173v-352q0 -143 97 -173q31 -9 31 -31v-88q0 -22 -22 -22q-5 0 -9 1q-237 48 -237 313v352q0 265 237 313z" />
<glyph unicode=")" horiz-adv-x="333" d="M283 525v-352q0 -265 -237 -313q-4 -1 -9 -1q-22 0 -22 22v88q0 22 31 31q97 30 97 173v352q0 143 -97 173q-31 9 -31 31v88q0 22 22 22q5 0 9 -1q237 -48 237 -313z" />
<glyph unicode="*" horiz-adv-x="418" d="M363 401q7 -10 -3 -17l-71 -49q-8 -6 -16 4l-55 79l-55 -79q-8 -10 -16 -4l-71 49q-10 7 -3 17l57 82l-98 36q-11 3 -6 15l29 80q4 10 14 7l89 -32v100q0 11 12 11h86q11 0 11 -11v-100l89 33q10 3 14 -7l29 -80q5 -11 -6 -15l-90 -33z" />
<glyph unicode="+" horiz-adv-x="600" d="M259 100q-13 0 -22 9t-9 22v151h-142q-13 0 -22 9t-9 22v74q0 13 9 22t22 9h142v151q0 13 9 22t22 9h81q13 0 22 -9t9 -22v-151h143q13 0 22 -9t9 -22v-74q0 -13 -9 -22t-22 -9h-143v-151q0 -13 -9 -22t-22 -9h-81z" />
<glyph unicode="," horiz-adv-x="282" d="M141 162q90 0 90 -117q0 -47 -13.5 -86.5t-33 -64t-42.5 -42t-42 -24.5t-31 -7q-11 0 -11 15v55q0 18 18 26q20 9 30.5 22.5t13 23t5.5 28.5q-34 6 -52 29.5t-18 55.5q0 38 24 62t62 24z" />
<glyph unicode="-" horiz-adv-x="353" d="M318 263q0 -13 -9 -22t-22 -9h-221q-13 0 -22 9t-9 22v78q0 13 9 22t22 9h221q13 0 22 -9t9 -22v-78z" />
<glyph unicode="." horiz-adv-x="282" d="M141 162q38 0 62 -24t24 -62t-24 -62t-62 -24t-62 24t-24 62t24 62t62 24z" />
<glyph unicode="/" horiz-adv-x="479" d="M43 0q-10 0 -16.5 6t-6.5 16t7 24l293 636q9 18 29 18h88q10 0 16 -6.5t6 -16.5q0 -8 -5 -18l-292 -635q-12 -24 -31 -24h-88z" />
<glyph unicode="0" horiz-adv-x="572" d="M45 408q0 137 59.5 214.5t181.5 77.5t181.5 -77.5t59.5 -214.5v-125q0 -137 -59.5 -215t-181.5 -78t-181.5 78t-59.5 215v125zM180 278q0 -79 24 -118.5t82 -39.5t82 39.5t24 118.5v133q0 79 -24 119t-82 40t-82 -40t-24 -119v-133z" />
<glyph unicode="1" horiz-adv-x="443" d="M423 31q0 -13 -9 -22t-22 -9h-331q-13 0 -22 9t-9 22v64q0 13 9 22t22 9h108v357h-108q-13 0 -22 9t-9 22v56q0 13 9 22t22 9q69 0 105 65q4 7 8.5 12t8 7.5t8.5 3.5t7 1h7h5h63q13 0 22 -9t9 -22v-533h88q13 0 22 -9t9 -22v-64z" />
<glyph unicode="2" horiz-adv-x="511" d="M390 312q88 96 88 188q0 30 -8.5 59.5t-29.5 63.5t-68.5 55.5t-114.5 21.5q-62 0 -107.5 -20t-67.5 -45t-35 -59t-15 -51.5t-2 -32.5q0 -13 9 -22t22 -9h72q13 0 22 9t9 22q0 40 27.5 61t62.5 21q36 0 60.5 -20.5t24.5 -53.5q0 -9 -2 -18.5t-4 -16.5t-8.5 -17t-9 -15 t-11.5 -16t-11.5 -13.5t-13 -14.5t-11.5 -13l-214 -236q-24 -27 -24 -49v-60q0 -13 9 -22t22 -9h394q13 0 22 9t9 22v68q0 13 -9 22t-22 9h-235z" />
<glyph unicode="3" horiz-adv-x="538" d="M416 354q45 -25 63.5 -65t18.5 -103q0 -20 -5.5 -43t-22 -51t-41.5 -50t-69.5 -37t-101.5 -15q-112 0 -167.5 55.5t-60.5 140.5q-1 13 8.5 22t22.5 9h72q26 0 31 -31q15 -70 95 -70q50 0 74 24.5t24 64.5q0 29 -8.5 48t-25 25.5t-27 8t-28.5 1.5h-5h-39q-13 0 -22 9 t-9 22v61q0 13 9 21.5t22 8.5h39q39 0 63.5 19.5t24.5 60.5q0 84 -92 84q-82 0 -95 -70q-5 -31 -31 -31h-72q-13 0 -22.5 9.5t-8.5 21.5q8 86 67 141t172 55q62 0 107.5 -18.5t69 -49t34 -62.5t10.5 -66q0 -51 -16 -86.5t-58 -63.5z" />
<glyph unicode="4" horiz-adv-x="564" d="M554 167q0 -13 -9 -22t-22 -9h-75v-105q0 -13 -9 -22t-22 -9h-71q-13 0 -22 9t-9 22v105h-264q-13 0 -22 9t-9 22v71q0 18 7 29l261 404q7 10 14 14.5t9.5 4.5h12.5h93q13 0 22 -9t9 -22v-400h75q13 0 22 -9t9 -22v-61zM315 505l-155 -246h155v246z" />
<glyph unicode="5" horiz-adv-x="532" d="M497 238v3q0 109 -58 166t-155 57q-21 0 -52.5 -9t-52.5 -23l9 128h239q13 0 22 9t9 22v68q0 13 -9 22t-22 9h-328q-30 0 -31 -31l-20 -342q-1 -13 8.5 -22t22.5 -9h51q16 0 34 10q5 3 21.5 16.5t34.5 21.5t44 8q51 0 74 -33.5t23 -68.5v-2q0 -127 -97 -127q-50 0 -85 54 q0 1 -3.5 6.5t-4.5 6.5t-4 5t-5 5t-5.5 3.5t-7 3t-8.5 0.5h-78q-10 0 -16.5 -6.5t-6.5 -16.5q0 -11 6 -30.5t22 -46.5t39.5 -50t63.5 -39t89 -16q53 0 95 16.5t68 42t43.5 59t24 66t6.5 64.5z" />
<glyph unicode="6" horiz-adv-x="539" d="M45 220v204q0 130 59.5 203t177.5 73q96 0 158 -54.5t62 -122.5q0 -22 -22 -22h-85q-15 0 -19 9q-27 64 -99 64q-49 0 -73 -32t-24 -105v-23q12 11 42 21.5t64 10.5q104 0 163.5 -62t59.5 -165v-2q0 -95 -67 -161t-165 -66q-105 0 -168.5 63t-63.5 167zM180 220v-3 q0 -49 27 -76t70 -27t70 27t27 76v3q0 49 -27 75.5t-70 26.5t-70 -26.5t-27 -75.5z" />
<glyph unicode="7" horiz-adv-x="480" d="M429 690q13 0 22 -9t9 -22v-58q0 -25 -19 -72l-212 -505q-10 -24 -36 -24h-85q-10 0 -16.5 6t-6.5 16q0 8 5 19l225 523h-274q-13 0 -22 9t-9 22v64q0 13 9 22t22 9h388z" />
<glyph unicode="8" horiz-adv-x="564" d="M55 511q0 87 62.5 138t164.5 51t164.5 -51t62.5 -138v-13q0 -95 -73 -139q39 -20 63.5 -60t24.5 -87v-18q0 -100 -67.5 -152t-174.5 -52t-174.5 52t-67.5 152v18q0 48 26.5 90t61.5 59q-34 17 -53.5 56.5t-19.5 80.5v13zM191 488q0 -73 91 -73t91 73v13q0 75 -91 75 t-91 -75v-13zM176 196q0 -82 106 -82t106 82v14q0 80 -106 80t-106 -80v-14z" />
<glyph unicode="9" horiz-adv-x="539" d="M359 276q-12 -11 -42 -21.5t-64 -10.5q-104 0 -163.5 62t-59.5 165v2q0 95 67 161t165 66q105 0 168.5 -63t63.5 -167v-204q0 -130 -59.5 -203t-177.5 -73q-96 0 -158 54.5t-62 122.5q0 22 22 22h85q15 0 19 -9q27 -64 99 -64q49 0 73 32t24 105v23zM359 470v3 q0 49 -27 76t-70 27t-70 -27t-27 -76v-3q0 -49 27 -75.5t70 -26.5t70 26.5t27 75.5z" />
<glyph unicode=":" horiz-adv-x="282" d="M141 510q38 0 62 -24t24 -62t-24 -62t-62 -24t-62 24t-24 62t24 62t62 24zM141 162q38 0 62 -24t24 -62t-24 -62t-62 -24t-62 24t-24 62t24 62t62 24z" />
<glyph unicode=";" horiz-adv-x="281" d="M141 510q38 0 62 -24t24 -62t-24 -62t-62 -24t-62 24t-24 62t24 62t62 24zM141 162q90 0 90 -117q0 -47 -13.5 -86.5t-33 -64t-42.5 -42t-42 -24.5t-31 -7q-11 0 -11 15v55q0 18 18 26q20 9 30.5 22.5t13 23t5.5 28.5q-34 6 -52 29.5t-18 55.5q0 38 24 62t62 24z" />
<glyph unicode="&#x3c;" horiz-adv-x="535" d="M224 350l239 -116q17 -10 17 -26v-97q0 -22 -22 -22q-6 0 -20 7l-381 191q-17 7 -17 22v81q0 15 15 24l392 204q6 3 11 3q10 0 16 -6.5t6 -16.5v-99q0 -14 -18 -24z" />
<glyph unicode="=" horiz-adv-x="600" d="M545 443q0 -13 -9 -22t-22 -9h-428q-13 0 -22 9t-9 22v74q0 13 9 22t22 9h428q13 0 22 -9t9 -22v-74zM545 184q0 -13 -9 -22t-22 -9h-428q-13 0 -22 9t-9 22v74q0 13 9 22t22 9h428q13 0 22 -9t9 -22v-74z" />
<glyph unicode="&#x3e;" horiz-adv-x="535" d="M311 350l-239 -116q-17 -10 -17 -26v-97q0 -22 22 -22q6 0 20 7l381 191q17 7 17 22v81q0 15 -15 24l-392 204q-6 3 -11 3q-10 0 -16 -6.5t-6 -16.5v-99q0 -14 18 -24z" />
<glyph unicode="?" horiz-adv-x="515" d="M289 228q13 0 22 9t9 22v30q0 22 16.5 41t40 35.5t47 36t40 51t16.5 72.5q0 79 -58 132t-169 53q-101 0 -160.5 -51.5t-67.5 -150.5q-1 -9 5.5 -15.5t16.5 -6.5h86q19 0 23 22q6 38 29 57t70 19q32 0 57.5 -14.5t25.5 -44.5q0 -31 -25 -55.5t-54.5 -41t-54.5 -52.5 t-25 -87v-30q0 -13 9 -22t22 -9h79zM251 162q38 0 62 -24t24 -62t-24 -62t-62 -24t-62 24t-24 62t24 62t62 24z" />
<glyph unicode="@" horiz-adv-x="990" d="M695 -117q0 -27 -16 -33q-74 -28 -198 -28q-193 0 -309.5 118t-116.5 320v10q0 202 117 321t326 119q193 0 310 -112t117 -289v-10q0 -71 -14.5 -124t-35.5 -82t-50 -46t-52 -22t-48 -5q-91 0 -139 61q-17 -26 -50.5 -43.5t-70.5 -17.5q-82 0 -131 48.5t-49 133.5v105 q0 87 42.5 140t112.5 53q62 0 103 -47v16q0 13 9 22t22 9h83q13 0 22 -9t9 -22v-277q0 -62 45 -62q38 0 52.5 44.5t14.5 134.5v10q0 47 -15.5 93.5t-48.5 90t-94.5 70.5t-143.5 27q-86 0 -150 -27t-99.5 -74.5t-52 -104.5t-16.5 -125v-11q0 -151 80 -238.5t221 -87.5 q89 0 173 23q15 4 23 4q18 0 18 -21v-55zM543 322q0 68 -56 68q-57 0 -57 -68v-123q0 -68 57 -68q56 0 56 68v123z" />
<glyph unicode="A" horiz-adv-x="651" d="M633 49q8 -24 8 -27q0 -10 -6.5 -16t-16.5 -6h-100q-22 0 -26 17l-40 121h-260l-40 -120q-5 -18 -24 -18h-95q-10 0 -16.5 6t-6.5 16q0 4 5 19l226 637q7 22 30 22h112q23 0 30 -22zM236 268h174l-85 263z" />
<glyph unicode="B" horiz-adv-x="604" d="M470 355q99 -46 99 -149v-9q0 -59 -20.5 -99t-58.5 -61t-81.5 -29t-100.5 -8h-217q-13 0 -22 9t-9 22v638q0 13 9 22t22 9h232q108 0 169.5 -49.5t61.5 -145.5v-14q0 -96 -84 -136zM205 564v-143h108q22 0 36.5 2t29.5 8t22.5 19.5t7.5 34.5v12q0 19 -5.5 31.5 t-13.5 19.5t-22 10.5t-25.5 4.5t-29.5 1h-108zM424 207v6q0 72 -101 72h-118v-149h118q50 0 75.5 16t25.5 55z" />
<glyph unicode="C" horiz-adv-x="617" d="M560 250q10 0 16.5 -7.5t5.5 -16.5q-7 -95 -79 -165.5t-186 -70.5q-121 0 -199 81.5t-78 211.5v134q0 130 78 211.5t199 81.5q115 0 186 -69.5t77 -165.5q2 -25 -22 -25h-102q-21 0 -25 27q-7 41 -35 69t-79 28q-57 0 -94.5 -42t-37.5 -117v-132q0 -74 37.5 -115.5 t94.5 -41.5q52 0 81 27t33 66q4 31 26 31h103z" />
<glyph unicode="D" horiz-adv-x="631" d="M91 0q-13 0 -22 9t-9 22v638q0 13 9 22t22 9h218q123 0 202.5 -81t79.5 -211v-115q0 -130 -80 -211.5t-202 -81.5h-218zM205 563v-426h104q57 0 95.5 41t38.5 115v113q0 74 -38.5 115.5t-95.5 41.5h-104z" />
<glyph unicode="E" horiz-adv-x="537" d="M502 595q0 -13 -9 -22t-22 -9h-266v-141h206q13 0 22 -9t9 -22v-74q0 -13 -9 -22t-22 -9h-206v-151h266q13 0 22 -8.5t9 -21.5v-75q0 -13 -9 -22t-22 -9h-380q-13 0 -22 9t-9 22v638q0 13 9 22t22 9h380q13 0 22 -9t9 -22v-74z" />
<glyph unicode="F" horiz-adv-x="522" d="M502 595q0 -13 -9 -22t-22 -9h-266v-169h206q13 0 22 -9t9 -22v-74q0 -13 -9 -22t-22 -9h-206v-228q0 -13 -9 -22t-22 -9h-83q-13 0 -22 9t-9 22v638q0 13 9 22t22 9h380q13 0 22 -9t9 -22v-74z" />
<glyph unicode="G" horiz-adv-x="633" d="M338 266q-13 0 -22 9t-9 22v69q0 13 9 22t22 9h219q13 0 22 -9t9 -22v-335q0 -13 -9 -22t-22 -9h-63q-13 0 -22 9t-9 22v24q-20 -29 -60.5 -47t-92.5 -18q-121 0 -195.5 81t-74.5 212v135q0 130 78.5 211t201.5 81q115 0 185.5 -67t79.5 -159q0 -1 0.5 -5t0.5 -7 q0 -22 -22 -22h-102q-20 0 -25 27q-6 39 -34.5 68t-82.5 29q-59 0 -97 -41.5t-38 -116.5v-133q0 -75 38 -116t97 -41q58 0 93 36.5t35 77.5v26h-110z" />
<glyph unicode="H" horiz-adv-x="647" d="M473 0q-13 0 -22 9t-9 22v252h-237v-252q0 -13 -9 -22t-22 -9h-83q-13 0 -22 9t-9 22v638q0 13 9 22t22 9h83q13 0 22 -9t9 -22v-250h237v250q0 13 9 22t22 9h83q13 0 22 -9t9 -22v-638q0 -13 -9 -22t-22 -9h-83z" />
<glyph unicode="I" d="M91 0q-13 0 -22 9t-9 22v638q0 13 9 22t22 9h83q13 0 22 -9t9 -22v-638q0 -13 -9 -22t-22 -9h-83z" />
<glyph unicode="J" horiz-adv-x="506" d="M430 700q13 0 22 -9t9 -22v-450q0 -104 -69 -166.5t-161 -62.5q-91 0 -158.5 62.5t-67.5 166.5v7q0 13 9 22t22 9h80q13 0 22 -9t9 -22v-9q0 -43 26.5 -67t57.5 -24t58 24t27 67v452q0 13 9 22t22 9h83z" />
<glyph unicode="K" horiz-adv-x="634" d="M598 57q16 -27 16 -35q0 -22 -22 -22h-106q-25 0 -39 24l-164 272l-78 -90v-175q0 -13 -9 -22t-22 -9h-83q-13 0 -22 9t-9 22v638q0 13 9 22t22 9h83q13 0 22 -9t9 -22v-276l236 283q21 24 44 24h101q10 0 16 -6.5t6 -16.5q0 -11 -26 -41l-199 -227z" />
<glyph unicode="L" horiz-adv-x="522" d="M502 31q0 -13 -9 -22t-22 -9h-380q-13 0 -22 9t-9 22v638q0 13 9 22t22 9h83q13 0 22 -9t9 -22v-533h266q13 0 22 -9t9 -22v-74z" />
<glyph unicode="M" horiz-adv-x="842" d="M751 700q13 0 22 -9t9 -22v-638q0 -13 -9 -22t-22 -9h-77q-13 0 -22 9t-9 22v441l-157 -451q-8 -21 -27 -21h-76q-19 0 -25 19l-161 454v-442q0 -13 -9 -22t-22 -9h-75q-13 0 -22 9t-9 22v638q0 13 9 22t22 9h139q18 0 24 -15l168 -482l170 480q7 17 22 17h137z" />
<glyph unicode="N" horiz-adv-x="669" d="M578 700q13 0 22 -9t9 -22v-638q0 -13 -9 -22t-22 -9h-80q-9 0 -13 0.5t-14.5 9.5t-20.5 26l-249 441v-446q0 -13 -9 -22t-22 -9h-79q-13 0 -22 9t-9 22v638q0 13 9 22t22 9h109q23 0 36 -24l232 -417v410q0 13 9 22t22 9h79z" />
<glyph unicode="O" horiz-adv-x="636" d="M40 418q0 130 78 211t199 81t200 -81t79 -211v-135q0 -130 -79 -211.5t-200 -81.5t-199 81.5t-78 211.5v135zM185 283q0 -74 37.5 -115.5t94.5 -41.5q58 0 96 41.5t38 115.5v133q0 74 -38.5 116t-95.5 42t-94.5 -41.5t-37.5 -116.5v-133z" />
<glyph unicode="P" horiz-adv-x="606" d="M360 220q94 0 155 63.5t61 166.5v30q0 102 -60.5 161t-155.5 59h-269q-13 0 -22 -9t-9 -22v-638q0 -13 9 -22t22 -9h83q13 0 22 9t9 22v189h155zM205 564h143q37 0 60 -25.5t23 -71.5v-14q0 -46 -23 -71.5t-60 -25.5h-143v208z" />
<glyph unicode="Q" horiz-adv-x="636" d="M602 86q10 -9 10 -21t-8 -22l-27 -32q-9 -11 -23 -11q-11 0 -19 7l-46 39q-73 -56 -172 -56q-121 0 -199 81.5t-78 211.5v135q0 130 78 211t199 81t200 -81t79 -211v-135q0 -90 -40 -159zM317 126q32 0 60 14l-67 57q-11 9 -11 24q0 10 7 19l22 27q13 16 26 16 q12 0 23 -9l65 -54q9 27 9 63v133q0 74 -38.5 116t-95.5 42t-94.5 -41.5t-37.5 -116.5v-133q0 -74 37.5 -115.5t94.5 -41.5z" />
<glyph unicode="R" horiz-adv-x="611" d="M205 31q0 -13 -9 -22t-22 -9h-83q-13 0 -22 9t-9 22v638q0 13 9 22t22 9h269q96 0 156 -54.5t60 -155.5v-30q0 -149 -124 -192l114 -218q10 -20 10 -28q0 -22 -22 -22h-101q-21 0 -33 24l-108 218h-107v-211zM205 378h143q38 0 60.5 20.5t22.5 64.5v14q0 87 -83 87h-143 v-186z" />
<glyph unicode="S" horiz-adv-x="588" d="M425 486q-25 0 -32 28q-21 70 -96 70q-53 0 -79 -15t-26 -54q0 -23 15.5 -39.5t40.5 -25.5t57 -19t65.5 -19.5t65.5 -26.5t57 -39.5t40.5 -61t15.5 -87.5q0 -73 -38 -121t-93 -67t-124 -19q-125 0 -193 67t-68 148q0 13 9 22t22 9h81q22 0 29 -27q11 -50 40 -71 q30 -22 80 -22q59 0 84.5 18t25.5 63q0 32 -26.5 53.5t-66 31.5t-86 26.5t-86 36.5t-66 64t-26.5 106q0 91 63.5 143t188.5 52q112 0 175.5 -56.5t63.5 -136.5q0 -13 -9 -22t-22 -9h-82z" />
<glyph unicode="T" horiz-adv-x="559" d="M10 595q0 -13 9 -22t22 -9h166v-533q0 -13 9 -22t22 -9h83q13 0 22 9t9 22v533h166q13 0 22 9t9 22v74q0 13 -9 22t-22 9h-477q-13 0 -22 -9t-9 -22v-74z" />
<glyph unicode="U" horiz-adv-x="630" d="M466 700q-13 0 -22 -9t-9 -22v-396q0 -74 -32.5 -110.5t-88.5 -36.5t-87.5 36t-31.5 111v396q0 13 -9 22t-22 9h-83q-13 0 -22 -9t-9 -22v-396q0 -130 72.5 -206.5t191.5 -76.5q120 0 193 76.5t73 206.5v396q0 13 -9 22t-22 9h-83z" />
<glyph unicode="V" horiz-adv-x="625" d="M592 700q9 0 16 -7t7 -16q0 -10 -10 -35l-216 -621q-7 -21 -29 -21h-94q-22 0 -29 21l-222 634q-5 15 -5 22q0 9 6 16t15 7h97q16 0 24 -9t14 -28l150 -462l150 462q4 12 6.5 18t10 12.5t17.5 6.5h92z" />
<glyph unicode="W" horiz-adv-x="926" d="M888 700q10 0 16.5 -6.5t6.5 -16.5q0 -4 -4 -20l-170 -633q-7 -24 -30 -24h-101q-23 0 -30 24l-115 463l-111 -463q-7 -24 -30 -24h-98q-24 0 -30 24l-170 623q-7 26 -7 30q0 10 6 16.5t16 6.5h101q25 0 32 -31l103 -445l111 445q7 31 32 31h95q25 0 32 -31l112 -445 l102 445q7 31 32 31h99z" />
<glyph unicode="X" horiz-adv-x="605" d="M572 60q18 -30 18 -38q0 -22 -22 -22h-100q-27 0 -42 24l-131 213l-127 -213q-15 -24 -40 -24h-90q-10 0 -16.5 6t-6.5 16q0 8 5 16l193 312l-173 282q-23 37 -23 45q0 10 6.5 16.5t16.5 6.5h98q26 0 42 -25l125 -205l128 205q16 25 42 25h88q10 0 16 -6.5t6 -16.5 q0 -11 -14 -32l-183 -289z" />
<glyph unicode="Y" horiz-adv-x="639" d="M597 700q10 0 16 -6.5t6 -16.5q0 -9 -16 -38l-214 -381v-227q0 -13 -9 -22t-22 -9h-83q-13 0 -22 9t-9 22v229l-209 383q-15 30 -15 34q0 10 6.5 16.5t16.5 6.5h106q14 0 24 -18l147 -286l152 287q10 17 26 17h99z" />
<glyph unicode="Z" horiz-adv-x="576" d="M536 591q0 -28 -29 -67l-286 -389h284q13 0 22 -9t9 -22v-73q0 -13 -9 -22t-22 -9h-434q-13 0 -22 9t-9 22v69q0 24 18 48l307 417h-294q-13 0 -22 9t-9 22v73q0 13 9 22t22 9h434q13 0 22 -9t9 -22v-78z" />
<glyph unicode="[" horiz-adv-x="340" d="M325 736q0 -13 -9 -22t-22 -9h-99v-720h99q13 0 22 -9t9 -22v-60q0 -13 -9 -22t-22 -9h-203q-13 0 -22 9t-9 22v902q0 13 9 22t22 9h203q13 0 22 -9t9 -22v-60z" />
<glyph unicode="\" horiz-adv-x="479" d="M437 0q22 0 22 22q0 10 -7 24l-293 636q-9 18 -29 18h-87q-10 0 -16.5 -6.5t-6.5 -16.5q0 -8 5 -18l292 -635q12 -24 31 -24h89z" />
<glyph unicode="]" horiz-adv-x="340" d="M15 736v60q0 13 9 22t22 9h203q13 0 22 -9t9 -22v-902q0 -13 -9 -22t-22 -9h-203q-13 0 -22 9t-9 22v60q0 13 9 22t22 9h99v720h-99q-13 0 -22 9t-9 22z" />
<glyph unicode="^" horiz-adv-x="551" d="M278 496l98 -249q6 -17 26 -17h97q22 0 22 22q0 7 -4 15l-176 416q-7 17 -22 17h-81q-18 0 -24 -15l-182 -422q-2 -6 -2 -11q0 -10 6.5 -16t16.5 -6h98q17 0 24 18z" />
<glyph unicode="_" horiz-adv-x="675" d="M620 -109q0 -13 -9 -22t-22 -9h-503q-13 0 -22 9t-9 22v78q0 13 9 22t22 9h503q13 0 22 -9t9 -22v-78z" />
<glyph unicode="`" horiz-adv-x="284" d="M6 700q-16 0 -16 -13q0 -7 4 -12l79 -108q8 -11 21 -11h85q13 0 13 12q0 4 -4 12l-45 101q-8 19 -30 19h-107z" />
<glyph unicode="a" horiz-adv-x="500" d="M450 31q0 -13 -9 -22t-22 -9h-71q-13 0 -22 9t-9 22v16q-14 -27 -45.5 -42t-68.5 -15h-11q-68 0 -115 35.5t-47 120.5q6 159 221 157h66v16q0 71 -77 71q-21 0 -34.5 -7t-17 -13.5t-7.5 -18.5q-5 -18 -23 -18h-87q-10 0 -16.5 6t-6.5 16q0 9 3 19q6 21 10 32t18.5 34 t32.5 35.5t51.5 23.5t76.5 11q210 0 210 -195v-284zM256 203q-22 0 -33.5 -1t-28 -6t-24 -17.5t-7.5 -32.5q0 -46 63 -46h12q28 0 45 6t24 20.5t8.5 26.5t1.5 35v15h-61z" />
<glyph unicode="b" horiz-adv-x="551" d="M205 31q0 -13 -9 -22t-22 -9h-83q-13 0 -22 9t-9 22v638q0 13 9 22t22 9h83q13 0 22 -9t9 -22v-216q48 57 135 57q85 0 130.5 -59.5t45.5 -174.5v-45q0 -117 -46.5 -179t-129.5 -62q-91 0 -135 57v-16zM205 203q0 -39 20 -66t63 -27t63 27t20 66v93q0 39 -20 66.5 t-63 27.5t-63 -27.5t-20 -66.5v-93z" />
<glyph unicode="c" horiz-adv-x="506" d="M175 203q0 -44 23.5 -68.5t59.5 -24.5q34 0 55 19.5t26 51.5q3 18 20 18h94q10 0 16 -6.5t6 -16.5q0 -11 -2 -19q-12 -64 -69.5 -115.5t-145.5 -51.5q-94 0 -158.5 65.5t-64.5 168.5v52q0 103 64.5 168.5t158.5 65.5q76 0 135.5 -44t79.5 -123q3 -14 3 -20q0 -22 -21 -22 h-93q-18 0 -22 18q-6 31 -27 51t-55 20q-36 0 -59.5 -24.5t-23.5 -68.5v-94z" />
<glyph unicode="d" horiz-adv-x="551" d="M346 31q0 -13 9 -22t22 -9h83q13 0 22 9t9 22v638q0 13 -9 22t-22 9h-83q-13 0 -22 -9t-9 -22v-216q-48 57 -135 57q-85 0 -130.5 -59.5t-45.5 -174.5v-45q0 -117 46.5 -179t129.5 -62q91 0 135 57v-16zM346 203q0 -39 -20 -66t-63 -27t-63 27t-20 66v93q0 39 20 66.5 t63 27.5t63 -27.5t20 -66.5v-93z" />
<glyph unicode="e" horiz-adv-x="521" d="M180 200q0 -38 24 -64t59 -26q24 0 38.5 7t32.5 25t32 18h86q10 0 16 -6.5t6 -16.5q0 -7 -6 -19q-29 -63 -85 -95.5t-120 -32.5q-96 0 -162 65.5t-66 168.5v52q0 103 66 168.5t162 65.5q93 0 158 -66.5t65 -163.5v-43q0 -13 -9 -22t-22 -9h-275v-6zM346 300v8 q0 37 -23.5 59.5t-59.5 22.5t-59.5 -23t-23.5 -60v-7h166z" />
<glyph unicode="f" horiz-adv-x="385" d="M350 405q0 -13 -9 -22t-22 -9h-84v-343q0 -13 -9 -22t-22 -9h-83q-13 0 -22 9t-9 22v343h-59q-13 0 -22 9t-9 22v64q0 13 9 22t22 9h59v29q0 96 46 133.5t135 37.5h48q13 0 22 -9t9 -22v-66q0 -13 -9 -22t-22 -9h-48q-20 0 -28 -10t-8 -32v-30h84q13 0 22 -9t9 -22v-64z " />
<glyph unicode="g" horiz-adv-x="529" d="M327 113q84 0 133 -46t49 -115t-49 -115.5t-133 -46.5h-123q-85 0 -134.5 46.5t-49.5 115.5q0 89 75 118q-40 19 -40 71q0 59 59 75q-66 39 -66 119q0 85 55.5 130t146.5 45h22q48 0 86 -21v54q0 13 9 22t22 9h67q13 0 22 -9t9 -22v-208q0 -89 -54 -131.5t-146 -42.5h-89 q-10 0 -17 -7t-7 -17q0 -24 24 -24h129zM252 401q-34 0 -52.5 -17.5t-18.5 -48.5q0 -65 71 -65h31q71 0 71 65q0 31 -18.5 48.5t-52.5 17.5h-31zM297 -104q43 0 61 13.5t18 41.5q0 29 -18 43.5t-61 14.5h-66q-43 0 -60.5 -14.5t-17.5 -43.5q0 -28 17.5 -41.5t60.5 -13.5h66z " />
<glyph unicode="h" horiz-adv-x="566" d="M91 0q-13 0 -22 9t-9 22v638q0 13 9 22t22 9h83q13 0 22 -9t9 -22v-216q46 57 135 57t132.5 -62t43.5 -172v-245q0 -13 -9 -22t-22 -9h-83q-13 0 -22 9t-9 22v266q0 44 -23.5 68.5t-59.5 24.5t-59.5 -24.5t-23.5 -68.5v-266q0 -13 -9 -22t-22 -9h-83z" />
<glyph unicode="i" d="M132 710q37 0 60 -23t23 -59t-23 -59t-60 -23q-36 0 -59 23t-23 59t23 59t59 23zM91 0q-13 0 -22 9t-9 22v438q0 13 9 22t22 9h83q13 0 22 -9t9 -22v-438q0 -13 -9 -22t-22 -9h-83z" />
<glyph unicode="j" d="M132 710q37 0 60 -23t23 -59t-23 -59t-60 -23q-36 0 -59 23t-23 59t23 59t59 23zM174 500q13 0 22 -9t9 -22v-457q0 -55 -14.5 -95.5t-35 -62.5t-51.5 -34.5t-56.5 -16t-56.5 -3.5q-13 0 -22 9t-9 22v68q0 13 9 22t22 9q69 0 69 82v457q0 13 9 22t22 9h83z" />
<glyph unicode="k" horiz-adv-x="529" d="M500 61q19 -32 19 -39q0 -22 -22 -22h-106q-20 0 -35 24l-103 170l-48 -56v-107q0 -13 -9 -22t-22 -9h-83q-13 0 -22 9t-9 22v638q0 13 9 22t22 9h83q13 0 22 -9t9 -22v-360l145 167q20 24 39 24h104q21 0 21 -23q0 -13 -27 -42l-130 -143z" />
<glyph unicode="l" d="M91 0q-13 0 -22 9t-9 22v638q0 13 9 22t22 9h83q13 0 22 -9t9 -22v-638q0 -13 -9 -22t-22 -9h-83z" />
<glyph unicode="m" horiz-adv-x="840" d="M619 510q45 0 77 -13t50 -33.5t28 -55t13 -68t3 -82.5v-227q0 -13 -9 -22t-22 -9h-83q-13 0 -22 9t-9 22v243q0 64 -13 90t-58 26q-48 0 -63.5 -29t-15.5 -87v-243q0 -13 -9 -22t-21 -9h-84q-13 0 -22 9t-9 22v243q0 64 -12.5 90t-57.5 26q-51 0 -65.5 -28t-14.5 -89 v-242q0 -13 -9 -22t-22 -9h-83q-13 0 -22 9t-9 22v438q0 13 9 22t22 9h83q13 0 22 -9t9 -22v-16q44 58 127 58q90 0 138 -69q56 68 154 68z" />
<glyph unicode="n" horiz-adv-x="561" d="M86 0q-13 0 -22 9t-9 22v438q0 13 9 22t22 9h83q13 0 22 -9t9 -22v-16q46 57 135 57t132.5 -62t43.5 -172v-245q0 -13 -9 -22t-22 -9h-83q-13 0 -22 9t-9 22v266q0 44 -23.5 68.5t-59.5 24.5t-59.5 -24.5t-23.5 -68.5v-266q0 -13 -9 -22t-22 -9h-83z" />
<glyph unicode="o" horiz-adv-x="526" d="M35 276q0 103 66 168.5t162 65.5t162 -65.5t66 -168.5v-52q0 -103 -66 -168.5t-162 -65.5t-162 65.5t-66 168.5v52zM180 203q0 -44 23.5 -68.5t59.5 -24.5t59.5 24.5t23.5 68.5v94q0 44 -23.5 68.5t-59.5 24.5t-59.5 -24.5t-23.5 -68.5v-94z" />
<glyph unicode="p" horiz-adv-x="546" d="M200 -169q0 -13 -9 -22t-22 -9h-83q-13 0 -22 9t-9 22v638q0 13 9 22t22 9h83q13 0 22 -9t9 -22v-16q48 57 135 57q85 0 130.5 -59.5t45.5 -174.5v-45q0 -117 -46.5 -179t-129.5 -62q-91 0 -135 57v-216zM200 203q0 -39 20 -66t63 -27t63 27t20 66v93q0 39 -20 66.5 t-63 27.5t-63 -27.5t-20 -66.5v-93z" />
<glyph unicode="q" horiz-adv-x="546" d="M346 -169q0 -13 9 -22t22 -9h83q13 0 22 9t9 22v638q0 13 -9 22t-22 9h-83q-13 0 -22 -9t-9 -22v-16q-48 57 -135 57q-85 0 -130.5 -59.5t-45.5 -174.5v-45q0 -117 46.5 -179t129.5 -62q91 0 135 57v-216zM346 203q0 -39 -20 -66t-63 -27t-63 27t-20 66v93q0 39 20 66.5 t63 27.5t63 -27.5t20 -66.5v-93z" />
<glyph unicode="r" horiz-adv-x="393" d="M86 0q-13 0 -22 9t-9 22v438q0 13 9 22t22 9h75q13 0 22 -9t9 -22v-33q47 64 124 64h11q13 0 22 -9t9 -22v-83q0 -13 -9 -22t-22 -9h-13q-58 0 -87 -22.5t-29 -96.5v-205q0 -13 -9 -22t-22 -9h-81z" />
<glyph unicode="s" horiz-adv-x="482" d="M241 -10q-91 0 -144 43t-64 100q-3 15 -3 19q0 10 6.5 16.5t16.5 6.5h85q16 0 23 -20q11 -32 33 -43q19 -10 48 -10q68 0 68 44q0 20 -28 31t-67.5 19t-79 21.5t-67.5 48t-28 89.5q0 77 56 116t149 39q70 0 123 -33t71 -101q3 -12 3 -21q0 -22 -22 -22h-85q-10 0 -14 4 t-9 14q-24 47 -74 47q-60 0 -60 -35q0 -21 27.5 -33t67 -20.5t79.5 -22t67.5 -48.5t27.5 -89q0 -84 -58 -122t-148 -38z" />
<glyph unicode="t" horiz-adv-x="385" d="M238 0q-73 0 -110.5 37.5t-37.5 103.5v233h-59q-13 0 -22 9t-9 22v64q0 13 9 22t22 9q34 0 46.5 10t12.5 38v51q0 13 9 22t22 9h80q13 0 22 -9t9 -22v-99h87q13 0 22 -9t9 -22v-64q0 -13 -9 -22t-22 -9h-87v-207q0 -11 2 -18t10 -13t24 -6h51q13 0 22 -9t9 -22v-68 q0 -13 -9 -22t-22 -9h-81z" />
<glyph unicode="u" horiz-adv-x="551" d="M465 500q13 0 22 -9t9 -22v-438q0 -13 -9 -22t-22 -9h-83q-13 0 -22 9t-9 22v16q-23 -29 -52 -43t-76 -14q-88 0 -130.5 62t-42.5 172v245q0 13 9 22t22 9h83q13 0 22 -9t9 -22v-266q0 -44 22.5 -68.5t57.5 -24.5t55.5 24.5t20.5 68.5v266q0 13 9 22t22 9h83z" />
<glyph unicode="v" horiz-adv-x="520" d="M483 500q10 0 16 -6.5t6 -16.5q0 -3 -7 -24l-167 -435q-7 -18 -28 -18h-87q-21 0 -28 18l-166 434q-7 18 -7 25q0 10 6.5 16.5t16.5 6.5h92q24 0 30 -18l103 -312l98 312q5 18 28 18h94z" />
<glyph unicode="w" horiz-adv-x="753" d="M721 500q10 0 16 -6.5t6 -16.5q0 -7 -9 -34l-139 -422q-7 -21 -29 -21h-69q-12 0 -20 7.5t-10 14.5l-89 303l-87 -302q-7 -23 -30 -23h-73q-24 0 -30 21l-140 425q-8 23 -8 31q0 10 6.5 16.5t16.5 6.5h92q25 0 33 -31l71 -270l75 270q10 31 33 31h85q24 0 33 -31l78 -259 l63 259q7 31 32 31h93z" />
<glyph unicode="x" horiz-adv-x="483" d="M33 0q-10 0 -16.5 6t-6.5 16q0 9 13 27l138 200l-132 193q-18 25 -18 35t6.5 16.5t16.5 6.5h88q26 0 42 -25l80 -122l79 122q16 25 42 25h82q10 0 16 -6.5t6 -16.5q0 -11 -16 -32l-131 -190l132 -197q19 -28 19 -36q0 -22 -22 -22h-89q-25 0 -42 24l-82 127l-82 -127 q-15 -24 -40 -24h-83z" />
<glyph unicode="y" horiz-adv-x="507" d="M475 500q10 0 16 -6.5t6 -16.5q0 -9 -7 -25l-169 -452q-12 -31 -14.5 -38t-12.5 -32t-14 -31t-14 -25t-16.5 -23.5t-18.5 -17t-23 -15.5t-26 -9t-32 -7.5t-37 -1.5h-46q-13 0 -22 9t-9 22v68q0 13 9 22t22 9h35q35 0 50.5 12.5t25.5 37.5l9 22l-164 435q-13 33 -13 40 q0 10 6.5 16.5t16.5 6.5h93q23 0 32 -27l101 -294l92 294q9 27 32 27h92z" />
<glyph unicode="z" horiz-adv-x="445" d="M420 400q0 -29 -18 -48l-213 -229h200q13 0 22 -9t9 -22v-61q0 -13 -9 -22t-22 -9h-328q-13 0 -22 9t-9 22v58q0 16 3 26.5t6.5 15.5t12.5 16l200 230h-191q-13 0 -22 9t-9 22v61q0 13 9 22t22 9h328q13 0 22 -9t9 -22v-69z" />
<glyph unicode="{" horiz-adv-x="416" d="M401 -103q0 -13 -9 -22t-22 -9q-116 0 -168 63.5t-52 203.5v48q0 103 -79 103q-13 0 -22 9t-9 22v68q0 13 9 22t22 9q46 0 62.5 22t16.5 81v50q0 141 51.5 204t168.5 63q13 0 22 -9t9 -22v-67q0 -13 -9 -22t-22 -9q-17 0 -29.5 -2.5t-21 -6t-14 -13.5t-8.5 -17t-4.5 -25 t-1.5 -30v-39v-7v-68q0 -37 -19 -80.5t-66 -65.5q47 -28 66 -71t19 -79v-68v-7q0 -37 0.5 -52.5t4.5 -35.5t12.5 -26.5t23 -11.5t38.5 -5q13 0 22 -9t9 -22v-67z" />
<glyph unicode="|" d="M91 -142q-13 0 -22 9t-9 22v920q0 13 9 22t22 9h83q13 0 22 -9t9 -22v-920q0 -13 -9 -22t-22 -9h-83z" />
<glyph unicode="}" horiz-adv-x="416" d="M15 -103v67q0 13 9 22t22 9q24 0 38.5 5t23 11.5t12.5 26.5t4.5 35.5t0.5 52.5v7v68q0 36 19 79t66 71q-47 22 -66 65.5t-19 80.5v68v7v39t-1.5 30t-4.5 25t-8.5 17t-14 13.5t-21 6t-29.5 2.5q-13 0 -22 9t-9 22v67q0 13 9 22t22 9q117 0 168.5 -63t51.5 -204v-50 q0 -59 16.5 -81t62.5 -22q13 0 22 -9t9 -22v-68q0 -13 -9 -22t-22 -9q-79 0 -79 -103v-48q0 -140 -52 -203.5t-168 -63.5q-13 0 -22 9t-9 22z" />
<glyph unicode="~" horiz-adv-x="644" d="M97 239q-13 0 -22 9t-9 22q0 67 42 119t123 52q34 0 71 -20.5t68.5 -41.5t51.5 -21q48 0 48 51q0 13 9 22t22 9h46q13 0 22 -9t9 -22q0 -29 -6 -55.5t-21.5 -54t-47.5 -44t-78 -16.5q-42 0 -82 20t-70.5 40t-48.5 20q-22 0 -31.5 -13.5t-15.5 -41.5q-6 -25 -30 -25h-50z " />
<glyph unicode="&#xa1;" horiz-adv-x="266" d="M133 338q-38 0 -62 24t-24 62t24 62t62 24t62 -24t24 -62t-24 -62t-62 -24zM91 -200q-13 0 -22 9t-9 22v410q0 13 9 22t22 9h83q13 0 22 -9t9 -22v-410q0 -13 -9 -22t-22 -9h-83z" />
<glyph unicode="&#xa2;" horiz-adv-x="501" d="M453 299q10 0 16 -6.5t6 -16.5q0 -11 -2 -19q-10 -53 -53 -99.5t-109 -61.5v-65q0 -13 -9 -22t-22 -9h-43q-13 0 -22 9t-9 22v65q-75 17 -123 78.5t-48 149.5v42q0 88 48 149.5t123 78.5v72q0 9 7.5 16.5t16.5 7.5h57q9 0 16.5 -7.5t7.5 -16.5v-72q59 -13 102 -54.5 t60 -106.5q3 -14 3 -20q0 -22 -21 -22h-93q-18 0 -22 18q-6 31 -27 51t-55 20q-36 0 -59.5 -24.5t-23.5 -68.5v-84q0 -44 23.5 -68.5t59.5 -24.5q34 0 55 19.5t26 51.5q3 18 20 18h94z" />
<glyph unicode="&#xa3;" horiz-adv-x="607" d="M556 226q13 0 22 -9t9 -22q0 -77 -54 -141.5t-152 -63.5q-41 0 -73.5 9.5t-66.5 25.5t-51 21q-61 -57 -106 -57q-20 0 -26 13l-31 67q-6 14 -6 18q0 17 23 26q73 29 73 92q0 50 -11 98h-70q-13 0 -22 9t-9 22v33q0 13 9 22t22 9h48q-4 38 -4 67q0 109 62 172t184 63 q109 0 172 -56.5t63 -136.5q0 -13 -9 -22t-22 -9h-82q-25 0 -32 28q-21 70 -91 70q-50 0 -75 -23.5t-25 -85.5q0 -32 5 -67h182q9 0 16.5 -7.5t7.5 -16.5v-47q0 -9 -7.5 -16.5t-16.5 -7.5h-163q13 -59 13 -98q0 -22 -8 -48q16 -5 40.5 -16.5t45 -18t41.5 -6.5q13 0 24 3.5 t18 10t12 13.5t8.5 16.5t5.5 15.5t3.5 14.5t1.5 9.5q7 27 29 27h73z" />
<glyph unicode="&#xa4;" horiz-adv-x="584" d="M485 228l57 -57q9 -9 9 -22t-9 -22l-23 -23q-9 -9 -22 -9t-22 9l-59 59q-56 -34 -124 -34q-67 0 -123 34l-60 -60q-9 -9 -22 -9t-22 9l-23 23q-9 9 -9 22t9 22l59 59q-39 55 -39 127q0 67 37 123l-63 63q-6 6 -6 16.5t6 17.5l34 33q7 7 17.5 6.5t16.5 -6.5l64 -64 q57 35 124 35q68 0 125 -35l64 64q6 6 16 6t17 -6l34 -34q6 -7 6 -17.5t-6 -16.5l-62 -62q38 -55 38 -123q0 -70 -39 -128zM292 250q42 0 72 30t30 76q0 44 -30 73.5t-72 29.5q-41 0 -71 -29.5t-30 -73.5q0 -46 30 -76t71 -30z" />
<glyph unicode="&#xa5;" horiz-adv-x="639" d="M614 667q0 -9 -16 -38l-122 -217h73q9 0 16.5 -7.5t7.5 -16.5v-47q0 -9 -7.5 -16.5t-16.5 -7.5h-127l-31 -55h158q9 0 16.5 -7.5t7.5 -16.5v-47q0 -9 -7.5 -16.5t-16.5 -7.5h-160v-136q0 -13 -9 -22t-22 -9h-83q-13 0 -22 9t-9 22v136h-161q-13 0 -22 9t-9 22v33 q0 13 9 22t22 9h160l-30 55h-130q-13 0 -22 9t-9 22v33q0 13 9 22t22 9h78l-121 221q-15 30 -15 34q0 10 6.5 16.5t16.5 6.5h106q14 0 24 -18l142 -276l147 277q10 17 26 17h99q10 0 16 -6.5t6 -16.5z" />
<glyph unicode="&#xa6;" d="M60 809q0 13 9 22t22 9h83q13 0 22 -9t9 -22v-346q0 -13 -9 -22t-22 -9h-83q-13 0 -22 9t-9 22v346zM60 245q0 13 9 22t22 9h83q13 0 22 -9t9 -22v-356q0 -13 -9 -22t-22 -9h-83q-13 0 -22 9t-9 22v356z" />
<glyph unicode="&#xa7;" horiz-adv-x="592" d="M501 249q44 -36 44 -99q0 -84 -69 -122t-175 -38q-113 0 -180 43.5t-78 99.5q-3 15 -3 19q0 10 6.5 16.5t16.5 6.5h85q16 0 23 -20q19 -53 131 -53q106 0 106 44q0 22 -36 33t-87 17t-102 18t-87 45.5t-36 89.5q0 62 52 100q-47 37 -47 106q0 77 67 116t178 39 q86 0 151 -33t83 -101q3 -12 3 -21q0 -22 -22 -22h-85q-10 0 -14 3.5t-9 14.5q-23 47 -114 47q-100 0 -100 -39q0 -24 35 -36t84.5 -19t99.5 -19.5t85 -47.5t35 -93q0 -59 -41 -95zM198 361q0 -13 10 -22.5t31 -15.5t41.5 -9.5t53 -8.5t53.5 -9q18 15 18 44q0 13 -10 22 t-30 14.5t-40 9t-51.5 8.5t-52.5 9q-23 -14 -23 -42z" />
<glyph unicode="&#xa8;" horiz-adv-x="442" d="M121 705q32 0 52 -20t20 -52t-20 -52t-52 -20t-52 20t-20 52t20 52t52 20zM331 705q32 0 52 -20t20 -52t-20 -52t-52 -20t-52 20t-20 52t20 52t52 20z" />
<glyph unicode="&#xa9;" horiz-adv-x="799" d="M42 345q0 175 101.5 274t255.5 99q155 0 256.5 -99t101.5 -274q0 -171 -101.5 -267t-256.5 -96q-154 0 -255.5 96t-101.5 267zM652 345q0 131 -71.5 204.5t-181.5 73.5q-109 0 -180.5 -73.5t-71.5 -204.5q0 -129 71 -198.5t181 -69.5t181.5 70t71.5 198zM342 317 q0 -32 17 -50t41 -18q51 0 57 38q2 17 14 17h78q14 0 12 -14q-3 -52 -46.5 -93t-111.5 -41q-71 0 -117.5 45.5t-46.5 115.5v73q0 69 46.5 113t117.5 44q68 0 111 -39.5t46 -91.5q0 -14 -11 -14h-79q-10 0 -13 14q-6 40 -57 40q-25 0 -41.5 -17.5t-16.5 -49.5v-72z" />
<glyph unicode="&#xaa;" horiz-adv-x="420" d="M69 563q-9 0 -14.5 5t-4.5 13q20 125 157 125q173 0 173 -157v-238q0 -10 -8 -17.5t-18 -7.5h-63q-10 0 -17.5 7.5t-7.5 17.5v13q-25 -46 -89 -46h-9q-59 0 -96 31t-37 97q0 131 171 131h60v14q0 58 -59 58q-39 0 -48 -32q-5 -14 -19 -14h-71zM209 454q-62 0 -62 -47 q0 -37 48 -37h10q33 0 47 14.5t14 53.5v16h-57z" />
<glyph unicode="&#xab;" horiz-adv-x="614" d="M287 476q12 0 12 -13v-103q0 -15 -11 -21l-138 -86l138 -85q11 -7 11 -21v-109q0 -13 -12 -13q-5 0 -12 4l-231 148q-19 11 -19 32v85q0 19 19 30l234 149q4 3 9 3zM589 360q0 -13 -11 -21l-130 -86l130 -85q11 -7 11 -21v-109q0 -13 -12 -13q-7 0 -12 4l-211 153 q-19 14 -19 32v75q0 16 19 30l214 154q4 3 9 3q12 0 12 -13v-103z" />
<glyph unicode="&#xac;" horiz-adv-x="600" d="M86 280q-13 0 -22 9t-9 22v78q0 13 9 22t22 9h428q13 0 22 -9t9 -22v-208q0 -13 -9 -22t-22 -9h-78q-13 0 -22 9t-9 22v99h-319z" />
<glyph unicode="&#xad;" horiz-adv-x="0" />
<glyph unicode="&#xae;" horiz-adv-x="619" d="M309 846q125 0 207.5 -80t82.5 -221q0 -139 -82 -216.5t-208 -77.5q-125 0 -207 77.5t-82 216.5q0 141 82.5 221t206.5 80zM309 327q90 0 147.5 56.5t57.5 161.5q0 106 -58 165.5t-147 59.5q-88 0 -146 -59.5t-58 -165.5q0 -105 57.5 -161.5t146.5 -56.5zM342 700 q42 0 67 -22.5t25 -65.5v-14q0 -57 -47 -72l42 -94q5 -12 5 -16q0 -12 -14 -12h-59q-10 0 -16 13l-36 84h-24v-80q0 -13 -11 -13h-59q-13 0 -13 13v263q0 6 5 11t12 5h123zM354 597v6q0 26 -36 26h-33v-62h33q36 0 36 30z" />
<glyph unicode="&#xaf;" horiz-adv-x="473" d="M354 670h-235q-13 0 -22 -9t-9 -22v-53q0 -13 9 -22t22 -9h235q13 0 22 9t9 22v53q0 13 -9 22t-22 9z" />
<glyph unicode="&#xb0;" horiz-adv-x="320" d="M30 574q0 54 38 90t92 36t92 -36.5t38 -89.5q0 -54 -38 -90.5t-92 -36.5t-92 36.5t-38 90.5zM217 574q0 25 -16.5 41.5t-40.5 16.5t-40.5 -16.5t-16.5 -41.5q0 -26 16.5 -42.5t40.5 -16.5t40.5 16.5t16.5 42.5z" />
<glyph unicode="&#xb1;" horiz-adv-x="600" d="M259 200q-13 0 -22 9t-9 22v151h-142q-13 0 -22 9t-9 22v74q0 13 9 22t22 9h142v151q0 13 9 22t22 9h81q13 0 22 -9t9 -22v-151h143q13 0 22 -9t9 -22v-74q0 -13 -9 -22t-22 -9h-143v-151q0 -13 -9 -22t-22 -9h-81zM86 136q-13 0 -22 -9t-9 -22v-74q0 -13 9 -22t22 -9 h428q13 0 22 9t9 22v74q0 13 -9 22t-22 9h-428z" />
<glyph unicode="&#xb2;" horiz-adv-x="400" d="M341 393q11 0 19 -7.5t8 -17.5v-57q0 -10 -8 -17.5t-19 -7.5h-280q-11 0 -19 7.5t-8 17.5v48q0 20 19 34l137 114q18 15 24.5 20.5t15 14t10.5 13.5t2 11q0 34 -45 34q-48 0 -48 -34q0 -10 -8 -18t-19 -8h-63q-11 0 -19 7.5t-8 18.5q0 63 44.5 101.5t122.5 38.5 q83 0 123.5 -34t40.5 -91q0 -34 -17 -63.5t-59 -64.5l-71 -60h125z" />
<glyph unicode="&#xb3;" horiz-adv-x="400" d="M319 493q52 -24 52 -86q0 -58 -47.5 -92.5t-127.5 -34.5q-74 0 -116.5 34.5t-47.5 93.5q-1 10 7.5 18t19.5 8h53q14 0 21 -5t12 -21q5 -15 14.5 -19t37.5 -4q51 0 51 31q0 17 -11.5 22.5t-40.5 5.5h-24q-11 0 -19.5 8t-8.5 18v49q0 10 8.5 17.5t19.5 7.5h24 q27 0 37.5 6.5t9.5 22.5t-10.5 23t-35.5 7q-44 0 -53 -22q-8 -18 -14.5 -23.5t-20.5 -5.5h-53q-11 0 -19.5 8t-7.5 18q17 128 177 128q48 0 82 -12.5t50 -33.5t22 -39.5t6 -38.5q0 -30 -9 -50.5t-38 -38.5z" />
<glyph unicode="&#xb4;" horiz-adv-x="284" d="M278 700q16 0 16 -13q0 -7 -4 -12l-79 -108q-8 -11 -21 -11h-85q-13 0 -13 12q0 4 4 12l45 101q8 19 30 19h107z" />
<glyph unicode="&#xb5;" horiz-adv-x="556" d="M470 500q13 0 22 -9t9 -22v-438q0 -13 -9 -22t-22 -9h-83q-13 0 -22 9t-9 22v16q-46 -57 -130 -57q-23 0 -41 6v-165q0 -13 -9 -22t-22 -9h-73q-13 0 -22 9t-9 22v638q0 13 9 22t22 9h83q13 0 22 -9t9 -22v-266q0 -44 23.5 -68.5t59.5 -24.5t57 24.5t21 68.5v266 q0 13 9 22t22 9h83z" />
<glyph unicode="&#xb6;" horiz-adv-x="643" d="M351 574v-543q0 -13 -9 -22t-22 -9h-71q-13 0 -22 9t-9 22v285q-79 0 -131 50.5t-52 133.5v24q0 82 51.5 129t131.5 47h334q13 0 22 -9t9 -22v-638q0 -13 -9 -22t-22 -9h-71q-13 0 -22 9t-9 22v543h-99z" />
<glyph unicode="&#xb7;" horiz-adv-x="282" d="M141 482q38 0 62 -24t24 -62t-24 -62t-62 -24t-62 24t-24 62t24 62t62 24z" />
<glyph unicode="&#xb8;" horiz-adv-x="271" d="M139 -41q35 0 63.5 -20t28.5 -59v-5q0 -37 -26 -61t-77 -24q-55 0 -85 30q-9 9 0 22l16 22q9 12 23 1q20 -14 46 -14q34 0 34 26v1q0 11 -9.5 18t-21.5 7q-19 0 -34 -9q-12 -6 -13 -6q-2 0 -8 2l-26 11q-10 4 -4 21l34 93q2 8 8 7l43 -6q7 -2 7 -7q0 -2 -3 -11l-15 -42 q10 3 19 3z" />
<glyph unicode="&#xb9;" horiz-adv-x="400" d="M345 311q0 -10 -8 -17.5t-19 -7.5h-236q-11 0 -19 7.5t-8 17.5v54q0 11 8 18.5t19 7.5h68v161h-68q-12 0 -19.5 8t-7.5 18v47q0 11 8 18.5t19 7.5q35 0 65 30q19 19 40 19h54q11 0 19 -7.5t8 -18.5v-283h50q11 0 19 -8t8 -18v-54z" />
<glyph unicode="&#xba;" horiz-adv-x="426" d="M35 520q0 87 43 136.5t134 49.5t135 -49.5t44 -136.5v-54q0 -87 -43.5 -136.5t-134.5 -49.5t-134.5 49.5t-43.5 136.5v54zM155 461q0 -37 12 -55t46 -18t46 17.5t12 55.5v61q0 38 -12 56t-47 18q-34 0 -45.5 -18t-11.5 -56v-61z" />
<glyph unicode="&#xbb;" horiz-adv-x="624" d="M270 319q19 -14 19 -32v-75q0 -16 -19 -30l-214 -154q-5 -3 -9 -3q-12 0 -12 13v103q0 13 11 21l130 86l-130 85q-11 7 -11 21v109q0 13 12 13q7 0 12 -4zM580 324q19 -11 19 -32v-85q0 -19 -19 -30l-234 -149q-4 -3 -9 -3q-12 0 -12 13v103q0 15 11 21l138 86l-138 85 q-11 7 -11 21v109q0 13 12 13q5 0 12 -4z" />
<glyph unicode="&#xbc;" horiz-adv-x="956" d="M345 311q0 -10 -8 -17.5t-19 -7.5h-236q-11 0 -19 7.5t-8 17.5v54q0 11 8 18.5t19 7.5h68v161h-68q-12 0 -19.5 8t-7.5 18v47q0 11 8 18.5t19 7.5q35 0 65 30q19 19 40 19h54q11 0 19 -7.5t8 -18.5v-283h50q11 0 19 -8t8 -18v-54zM275 0q-10 0 -16.5 6t-6.5 16q0 11 7 24 l351 636q9 18 29 18h69q10 0 16 -6.5t6 -16.5q0 -9 -8 -25l-346 -628q-12 -24 -31 -24h-70zM950 109q0 -11 -8 -18.5t-19 -7.5h-51v-58q0 -10 -8 -17.5t-19 -7.5h-58q-11 0 -19 7.5t-8 17.5v58h-171q-11 0 -19 8t-8 18v52q0 20 12 37l143 190q12 15 20 20.5t21 5.5h87 q11 0 19 -7.5t8 -18.5v-211h51q11 0 19 -7.5t8 -17.5v-43zM766 300l-89 -123h89v123z" />
<glyph unicode="&#xbd;" horiz-adv-x="956" d="M345 311q0 -10 -8 -17.5t-19 -7.5h-236q-11 0 -19 7.5t-8 17.5v54q0 11 8 18.5t19 7.5h68v161h-68q-12 0 -19.5 8t-7.5 18v47q0 11 8 18.5t19 7.5q35 0 65 30q19 19 40 19h54q11 0 19 -7.5t8 -18.5v-283h50q11 0 19 -8t8 -18v-54zM720 677q0 -9 -8 -25l-346 -628 q-12 -24 -31 -24h-70q-10 0 -16.5 6t-6.5 16q0 11 7 24l351 636q9 18 29 18h69q10 0 16 -6.5t6 -16.5zM897 107q11 0 19 -7.5t8 -17.5v-57q0 -10 -8 -17.5t-19 -7.5h-280q-11 0 -19 7.5t-8 17.5v48q0 20 19 34l137 114q18 15 24.5 20.5t15 14t10.5 13.5t2 11q0 34 -45 34 q-48 0 -48 -34q0 -10 -8 -18t-19 -8h-63q-11 0 -19 7.5t-8 18.5q0 63 44.5 101.5t122.5 38.5q83 0 123.5 -34t40.5 -91q0 -34 -17 -63.5t-59 -64.5l-71 -60h125z" />
<glyph unicode="&#xbe;" horiz-adv-x="956" d="M371 407q0 -58 -47.5 -92.5t-127.5 -34.5q-74 0 -116.5 34.5t-47.5 93.5q-1 10 7.5 18t19.5 8h53q14 0 21 -5t12 -21q5 -15 14.5 -19t37.5 -4q51 0 51 31q0 17 -11.5 22.5t-40.5 5.5h-24q-11 0 -19.5 8t-8.5 18v49q0 10 8.5 17.5t19.5 7.5h24q27 0 37.5 6.5t9.5 22.5 t-10.5 23t-35.5 7q-44 0 -53 -22q-8 -18 -14.5 -23.5t-20.5 -5.5h-53q-11 0 -19.5 8t-7.5 18q17 128 177 128q48 0 82 -12.5t50 -33.5t22 -39.5t6 -38.5q0 -30 -9 -50.5t-38 -38.5q52 -24 52 -86zM730 677q0 -9 -8 -25l-346 -628q-12 -24 -31 -24h-70q-10 0 -16.5 6t-6.5 16 q0 11 7 24l351 636q9 18 29 18h69q10 0 16 -6.5t6 -16.5zM923 177q11 0 19 -7.5t8 -17.5v-43q0 -11 -8 -18.5t-19 -7.5h-51v-58q0 -10 -8 -17.5t-19 -7.5h-58q-11 0 -19 7.5t-8 17.5v58h-171q-11 0 -19 8t-8 18v52q0 20 12 37l143 190q12 15 20 20.5t21 5.5h87q11 0 19 -7.5 t8 -18.5v-211h51zM766 177v123l-89 -123h89z" />
<glyph unicode="&#xbf;" horiz-adv-x="515" d="M253 338q-38 0 -62 24t-24 62t24 62t62 24t62 -24t24 -62t-24 -62t-62 -24zM215 272q-13 0 -22 -9t-9 -22v-30q0 -22 -16.5 -41t-40 -35.5t-47 -36t-40 -51t-16.5 -72.5q0 -79 58 -132t169 -53q101 0 160.5 51.5t67.5 150.5q1 9 -5.5 15.5t-16.5 6.5h-86q-19 0 -23 -22 q-6 -38 -29 -57t-70 -19q-32 0 -57.5 14.5t-25.5 44.5q0 31 25 55.5t54.5 41t54.5 52.5t25 87v30q0 13 -9 22t-22 9h-79z" />
<glyph unicode="&#xc0;" horiz-adv-x="651" d="M267 767l-79 108q-4 5 -4 12q0 13 16 13h107q22 0 30 -19l45 -101q4 -8 4 -12q0 -12 -13 -12h-85q-13 0 -21 11zM633 49q8 -24 8 -27q0 -10 -6.5 -16t-16.5 -6h-100q-22 0 -26 17l-40 121h-260l-40 -120q-5 -18 -24 -18h-95q-10 0 -16.5 6t-6.5 16q0 4 5 19l226 637 q7 22 30 22h112q23 0 30 -22zM236 268h174l-85 263z" />
<glyph unicode="&#xc1;" horiz-adv-x="651" d="M299 756q-13 0 -13 12q0 4 4 12l45 101q8 19 30 19h107q16 0 16 -13q0 -7 -4 -12l-79 -108q-8 -11 -21 -11h-85zM633 49q8 -24 8 -27q0 -10 -6.5 -16t-16.5 -6h-100q-22 0 -26 17l-40 121h-260l-40 -120q-5 -18 -24 -18h-95q-10 0 -16.5 6t-6.5 16q0 4 5 19l226 637 q7 22 30 22h112q23 0 30 -22zM236 268h174l-85 263z" />
<glyph unicode="&#xc2;" horiz-adv-x="651" d="M201 756q-13 0 -13 12q0 5 4 12l65 101q12 19 35 19h92q18 0 30 -19l66 -104q3 -5 3 -9q0 -12 -13 -12h-75q-11 0 -21 11l-39 50l-38 -50q-8 -11 -21 -11h-75zM633 49q8 -24 8 -27q0 -10 -6.5 -16t-16.5 -6h-100q-22 0 -26 17l-40 121h-260l-40 -120q-5 -18 -24 -18h-95 q-10 0 -16.5 6t-6.5 16q0 4 5 19l226 637q7 22 30 22h112q23 0 30 -22zM236 268h174l-85 263z" />
<glyph unicode="&#xc3;" horiz-adv-x="651" d="M178 750q-8 0 -14 6t-6 14q0 56 32 93t81 37q33 0 73.5 -21t50.5 -21q21 0 21 22q0 8 6 14t14 6h55q8 0 14 -6t6 -14q0 -60 -30.5 -95t-79.5 -35q-37 0 -74 20.5t-47 20.5q-22 0 -26 -25q-3 -16 -19 -16h-57zM633 49q8 -24 8 -27q0 -10 -6.5 -16t-16.5 -6h-100 q-22 0 -26 17l-40 121h-260l-40 -120q-5 -18 -24 -18h-95q-10 0 -16.5 6t-6.5 16q0 4 5 19l226 637q7 22 30 22h112q23 0 30 -22zM236 268h174l-85 263z" />
<glyph unicode="&#xc4;" horiz-adv-x="651" d="M236 761q-32 0 -52 20t-20 52t20 52t52 20t52 -20t20 -52t-20 -52t-52 -20zM446 761q-32 0 -52 20t-20 52t20 52t52 20t52 -20t20 -52t-20 -52t-52 -20zM633 49q8 -24 8 -27q0 -10 -6.5 -16t-16.5 -6h-100q-22 0 -26 17l-40 121h-260l-40 -120q-5 -18 -24 -18h-95 q-10 0 -16.5 6t-6.5 16q0 4 5 19l226 637q7 22 30 22h112q23 0 30 -22zM236 268h174l-85 263z" />
<glyph unicode="&#xc5;" horiz-adv-x="651" d="M335 738q-50 0 -84.5 34.5t-34.5 84.5t34.5 85t84.5 35t85 -35t35 -85t-35 -84.5t-85 -34.5zM335 893q-16 0 -26.5 -10.5t-10.5 -25.5q0 -16 10.5 -26.5t26.5 -10.5q15 0 25.5 10.5t10.5 26.5q0 15 -10.5 25.5t-25.5 10.5zM633 49q8 -24 8 -27q0 -10 -6.5 -16t-16.5 -6 h-100q-22 0 -26 17l-40 121h-260l-40 -120q-5 -18 -24 -18h-95q-10 0 -16.5 6t-6.5 16q0 4 5 19l226 637q7 22 30 22h112q23 0 30 -22zM236 268h174l-85 263z" />
<glyph unicode="&#xc6;" horiz-adv-x="847" d="M781 564h-246v-141h186q13 0 22 -9t9 -22v-74q0 -13 -9 -22t-22 -9h-186v-151h246q13 0 22 -8.5t9 -21.5v-75q0 -13 -9 -22t-22 -9h-360q-13 0 -22 9t-9 22v107h-204l-42 -120q-5 -18 -24 -18h-97q-10 0 -16.5 6t-6.5 16q0 4 5 19l236 637q7 22 30 22h156h354q13 0 22 -9 t9 -22v-74q0 -13 -9 -22t-22 -9zM233 268h157v295h-53z" />
<glyph unicode="&#xc7;" horiz-adv-x="617" d="M560 250q10 0 16.5 -7.5t5.5 -16.5q-7 -90 -73 -159.5t-172 -75.5l-13 -36q13 4 30 4q34 0 61.5 -20t27.5 -59v-3q0 -38 -27.5 -62.5t-82.5 -24.5q-60 0 -90 30q-9 9 0 22l16 22q9 12 23 1q20 -14 46 -14q34 0 34 26v1q0 11 -9.5 18t-21.5 7q-17 0 -31 -7.5t-17 -7.5 q-4 0 -8 2l-25 11q-10 4 -5 18l27 74q-103 15 -167.5 94t-64.5 196v134q0 130 78 211.5t199 81.5q115 0 186 -69.5t77 -165.5q2 -25 -22 -25h-102q-21 0 -25 27q-7 41 -35 69t-79 28q-57 0 -94.5 -42t-37.5 -117v-132q0 -74 37.5 -115.5t94.5 -41.5q52 0 81 27t33 66 q4 31 26 31h103z" />
<glyph unicode="&#xc8;" horiz-adv-x="537" d="M133 900q-16 0 -16 -13q0 -7 4 -12l79 -108q8 -11 21 -11h85q13 0 13 12q0 4 -4 12l-45 101q-8 19 -30 19h-107zM502 595q0 -13 -9 -22t-22 -9h-266v-141h206q13 0 22 -9t9 -22v-74q0 -13 -9 -22t-22 -9h-206v-151h266q13 0 22 -8.5t9 -21.5v-75q0 -13 -9 -22t-22 -9 h-380q-13 0 -22 9t-9 22v638q0 13 9 22t22 9h380q13 0 22 -9t9 -22v-74z" />
<glyph unicode="&#xc9;" horiz-adv-x="537" d="M405 900q16 0 16 -13q0 -7 -4 -12l-79 -108q-8 -11 -21 -11h-85q-13 0 -13 12q0 4 4 12l45 101q8 19 30 19h107zM502 595q0 -13 -9 -22t-22 -9h-266v-141h206q13 0 22 -9t9 -22v-74q0 -13 -9 -22t-22 -9h-206v-151h266q13 0 22 -8.5t9 -21.5v-75q0 -13 -9 -22t-22 -9 h-380q-13 0 -22 9t-9 22v638q0 13 9 22t22 9h380q13 0 22 -9t9 -22v-74z" />
<glyph unicode="&#xca;" horiz-adv-x="537" d="M134 756q-13 0 -13 12q0 5 4 12l65 101q12 19 35 19h92q18 0 30 -19l66 -104q3 -5 3 -9q0 -12 -13 -12h-75q-11 0 -21 11l-39 50l-38 -50q-8 -11 -21 -11h-75zM471 564h-266v-141h206q13 0 22 -9t9 -22v-74q0 -13 -9 -22t-22 -9h-206v-151h266q13 0 22 -8.5t9 -21.5v-75 q0 -13 -9 -22t-22 -9h-380q-13 0 -22 9t-9 22v638q0 13 9 22t22 9h380q13 0 22 -9t9 -22v-74q0 -13 -9 -22t-22 -9z" />
<glyph unicode="&#xcb;" horiz-adv-x="537" d="M169 905q32 0 52 -20t20 -52t-20 -52t-52 -20t-52 20t-20 52t20 52t52 20zM379 905q32 0 52 -20t20 -52t-20 -52t-52 -20t-52 20t-20 52t20 52t52 20zM502 595q0 -13 -9 -22t-22 -9h-266v-141h206q13 0 22 -9t9 -22v-74q0 -13 -9 -22t-22 -9h-206v-151h266q13 0 22 -8.5 t9 -21.5v-75q0 -13 -9 -22t-22 -9h-380q-13 0 -22 9t-9 22v638q0 13 9 22t22 9h380q13 0 22 -9t9 -22v-74z" />
<glyph unicode="&#xcc;" d="M-4 900q-16 0 -16 -13q0 -7 4 -12l80 -108q8 -11 21 -11h85q13 0 13 12q0 4 -4 12l-45 101q-8 19 -30 19h-108zM91 0q-13 0 -22 9t-9 22v638q0 13 9 22t22 9h83q13 0 22 -9t9 -22v-638q0 -13 -9 -22t-22 -9h-83z" />
<glyph unicode="&#xcd;" d="M269 900q16 0 16 -13q0 -7 -4 -12l-79 -108q-8 -11 -21 -11h-85q-13 0 -13 12q0 4 4 12l45 101q8 19 30 19h107zM91 0q-13 0 -22 9t-9 22v638q0 13 9 22t22 9h83q13 0 22 -9t9 -22v-638q0 -13 -9 -22t-22 -9h-83z" />
<glyph unicode="&#xce;" d="M277 777q3 -5 3 -9q0 -12 -13 -12h-75q-11 0 -21 11l-39 50l-38 -50q-8 -11 -21 -11h-75q-13 0 -13 12q0 5 4 12l65 101q12 19 35 19h92q18 0 30 -19zM174 700q13 0 22 -9t9 -22v-638q0 -13 -9 -22t-22 -9h-83q-13 0 -22 9t-9 22v638q0 13 9 22t22 9h83z" />
<glyph unicode="&#xcf;" d="M33 905q32 0 52 -20t20 -52t-20 -52t-52 -20q-33 0 -53 20t-20 52t20 52t53 20zM243 905q32 0 52 -20t20 -52t-20 -52t-52 -20t-52 20t-20 52t20 52t52 20zM91 0q-13 0 -22 9t-9 22v638q0 13 9 22t22 9h83q13 0 22 -9t9 -22v-638q0 -13 -9 -22t-22 -9h-83z" />
<glyph unicode="&#xd0;" horiz-adv-x="631" d="M309 700q123 0 202.5 -81t79.5 -211v-115q0 -130 -80 -211.5t-202 -81.5h-218q-13 0 -22 9t-9 22v271h-57q-13 0 -22 9t-9 22v33q0 13 9 22t22 9h57v272q0 13 9 22t22 9h218zM443 293v113q0 74 -38.5 115.5t-95.5 41.5h-104v-166h104q9 0 16.5 -7.5t7.5 -16.5v-47 q0 -9 -7.5 -16.5t-16.5 -7.5h-104v-165h104q57 0 95.5 41t38.5 115z" />
<glyph unicode="&#xd1;" horiz-adv-x="669" d="M177 750q-8 0 -14 6t-6 14q0 56 32 93t81 37q33 0 73.5 -21t50.5 -21q21 0 21 22q0 8 6 14t14 6h55q8 0 14 -6t6 -14q0 -60 -30.5 -95t-79.5 -35q-37 0 -74 20.5t-47 20.5q-22 0 -26 -25q-3 -16 -19 -16h-57zM578 700q13 0 22 -9t9 -22v-638q0 -13 -9 -22t-22 -9h-80 q-9 0 -13 0.5t-14.5 9.5t-20.5 26l-249 441v-446q0 -13 -9 -22t-22 -9h-79q-13 0 -22 9t-9 22v638q0 13 9 22t22 9h109q23 0 36 -24l232 -417v410q0 13 9 22t22 9h79z" />
<glyph unicode="&#xd2;" horiz-adv-x="636" d="M182 900q-16 0 -16 -13q0 -7 4 -12l79 -108q8 -11 21 -11h85q13 0 13 12q0 4 -4 12l-45 101q-8 19 -30 19h-107zM40 418q0 130 78 211t199 81t200 -81t79 -211v-135q0 -130 -79 -211.5t-200 -81.5t-199 81.5t-78 211.5v135zM185 283q0 -74 37.5 -115.5t94.5 -41.5 q58 0 96 41.5t38 115.5v133q0 74 -38.5 116t-95.5 42t-94.5 -41.5t-37.5 -116.5v-133z" />
<glyph unicode="&#xd3;" horiz-adv-x="636" d="M454 900q16 0 16 -13q0 -7 -4 -12l-79 -108q-8 -11 -21 -11h-85q-13 0 -13 12q0 4 4 12l45 101q8 19 30 19h107zM40 418q0 130 78 211t199 81t200 -81t79 -211v-135q0 -130 -79 -211.5t-200 -81.5t-199 81.5t-78 211.5v135zM185 283q0 -74 37.5 -115.5t94.5 -41.5 q58 0 96 41.5t38 115.5v133q0 74 -38.5 116t-95.5 42t-94.5 -41.5t-37.5 -116.5v-133z" />
<glyph unicode="&#xd4;" horiz-adv-x="636" d="M184 756q-13 0 -13 12q0 5 4 12l65 101q12 19 35 19h92q18 0 30 -19l66 -104q3 -5 3 -9q0 -12 -13 -12h-75q-11 0 -21 11l-39 50l-38 -50q-8 -11 -21 -11h-75zM317 710q121 0 200 -81t79 -211v-135q0 -130 -79 -211.5t-200 -81.5t-199 81.5t-78 211.5v135q0 130 78 211 t199 81zM451 283v133q0 74 -38.5 116t-95.5 42t-94.5 -41.5t-37.5 -116.5v-133q0 -74 37.5 -115.5t94.5 -41.5q58 0 96 41.5t38 115.5z" />
<glyph unicode="&#xd5;" horiz-adv-x="636" d="M160 750q-8 0 -14 6t-6 14q0 56 32 93t81 37q33 0 74 -21t50 -21q21 0 21 22q0 8 6 14t14 6h55q8 0 14 -6t6 -14q0 -60 -30.5 -95t-79.5 -35q-37 0 -74 20.5t-47 20.5q-22 0 -26 -25q-3 -16 -19 -16h-57zM40 418q0 130 78 211t199 81t200 -81t79 -211v-135 q0 -130 -79 -211.5t-200 -81.5t-199 81.5t-78 211.5v135zM185 283q0 -74 37.5 -115.5t94.5 -41.5q58 0 96 41.5t38 115.5v133q0 74 -38.5 116t-95.5 42t-94.5 -41.5t-37.5 -116.5v-133z" />
<glyph unicode="&#xd6;" horiz-adv-x="636" d="M218 905q32 0 52 -20t20 -52t-20 -52t-52 -20t-52 20t-20 52t20 52t52 20zM428 905q32 0 52 -20t20 -52t-20 -52t-52 -20t-52 20t-20 52t20 52t52 20zM40 418q0 130 78 211t199 81t200 -81t79 -211v-135q0 -130 -79 -211.5t-200 -81.5t-199 81.5t-78 211.5v135zM185 283 q0 -74 37.5 -115.5t94.5 -41.5q58 0 96 41.5t38 115.5v133q0 74 -38.5 116t-95.5 42t-94.5 -41.5t-37.5 -116.5v-133z" />
<glyph unicode="&#xd7;" horiz-adv-x="600" d="M82 186q-9 9 -9 22t9 22l121 121l-117 116q-9 9 -9 22t9 22l53 53q9 9 22 9t22 -9l116 -117l121 121q9 9 22 9t22 -9l53 -53q9 -9 9 -22t-9 -22l-121 -121l118 -117q9 -9 9 -22t-9 -22l-53 -53q-9 -9 -22 -9t-22 9l-117 118l-121 -121q-9 -9 -22 -9t-22 9z" />
<glyph unicode="&#xd8;" horiz-adv-x="636" d="M593 700q14 0 19 -11.5t-5 -26.5l-56 -77q45 -70 45 -167v-135q0 -130 -79 -211.5t-200 -81.5q-94 0 -164 51l-17 -23q-13 -18 -29 -18h-66q-14 0 -18.5 12t4.5 26l57 78q-44 72 -44 167v135q0 130 78 211t199 81q93 0 165 -50l16 22q13 18 29 18h66zM185 283 q0 -18 1 -27l212 290q-34 28 -81 28q-57 0 -94.5 -41.5t-37.5 -116.5v-133zM451 416q0 12 -2 30l-213 -292q34 -28 81 -28q58 0 96 41.5t38 115.5v133z" />
<glyph unicode="&#xd9;" horiz-adv-x="630" d="M179 900q-16 0 -16 -13q0 -7 4 -12l79 -108q8 -11 21 -11h85q13 0 13 12q0 4 -4 12l-45 101q-8 19 -30 19h-107zM466 700q-13 0 -22 -9t-9 -22v-396q0 -74 -32.5 -110.5t-88.5 -36.5t-87.5 36t-31.5 111v396q0 13 -9 22t-22 9h-83q-13 0 -22 -9t-9 -22v-396 q0 -130 72.5 -206.5t191.5 -76.5q120 0 193 76.5t73 206.5v396q0 13 -9 22t-22 9h-83z" />
<glyph unicode="&#xda;" horiz-adv-x="630" d="M451 900q16 0 16 -13q0 -7 -4 -12l-79 -108q-8 -11 -21 -11h-85q-13 0 -13 12q0 4 4 12l45 101q8 19 30 19h107zM466 700q-13 0 -22 -9t-9 -22v-396q0 -74 -32.5 -110.5t-88.5 -36.5t-87.5 36t-31.5 111v396q0 13 -9 22t-22 9h-83q-13 0 -22 -9t-9 -22v-396 q0 -130 72.5 -206.5t191.5 -76.5q120 0 193 76.5t73 206.5v396q0 13 -9 22t-22 9h-83z" />
<glyph unicode="&#xdb;" horiz-adv-x="630" d="M181 756q-13 0 -13 12q0 5 4 12l65 101q12 19 35 19h92q18 0 30 -19l66 -104q3 -5 3 -9q0 -12 -13 -12h-75q-11 0 -21 11l-39 50l-38 -50q-8 -11 -21 -11h-75zM549 700q13 0 22 -9t9 -22v-396q0 -130 -73 -206.5t-193 -76.5q-119 0 -191.5 76.5t-72.5 206.5v396 q0 13 9 22t22 9h83q13 0 22 -9t9 -22v-396q0 -75 31.5 -111t87.5 -36t88.5 36.5t32.5 110.5v396q0 13 9 22t22 9h83z" />
<glyph unicode="&#xdc;" horiz-adv-x="630" d="M215 905q32 0 52 -20t20 -52t-20 -52t-52 -20t-52 20t-20 52t20 52t52 20zM425 905q32 0 52 -20t20 -52t-20 -52t-52 -20t-52 20t-20 52t20 52t52 20zM466 700q-13 0 -22 -9t-9 -22v-396q0 -74 -32.5 -110.5t-88.5 -36.5t-87.5 36t-31.5 111v396q0 13 -9 22t-22 9h-83 q-13 0 -22 -9t-9 -22v-396q0 -130 72.5 -206.5t191.5 -76.5q120 0 193 76.5t73 206.5v396q0 13 -9 22t-22 9h-83z" />
<glyph unicode="&#xdd;" horiz-adv-x="639" d="M283 756q-13 0 -13 12q0 4 4 12l45 101q8 19 30 19h107q16 0 16 -13q0 -7 -4 -12l-79 -108q-8 -11 -21 -11h-85zM597 700q10 0 16 -6.5t6 -16.5q0 -9 -16 -38l-214 -381v-227q0 -13 -9 -22t-22 -9h-83q-13 0 -22 9t-9 22v229l-209 383q-15 30 -15 34q0 10 6.5 16.5 t16.5 6.5h106q14 0 24 -18l147 -286l152 287q10 17 26 17h99z" />
<glyph unicode="&#xde;" horiz-adv-x="606" d="M360 578q95 0 155.5 -53.5t60.5 -146.5v-30q0 -95 -61 -152.5t-155 -57.5h-155v-107q0 -13 -9 -22t-22 -9h-83q-13 0 -22 9t-9 22v637q0 13 9 22.5t22 9.5h83q13 0 22 -9.5t9 -21.5v-91h155zM431 351v14q0 36 -23 56.5t-60 20.5h-143v-168h143q37 0 60 20.5t23 56.5z" />
<glyph unicode="&#xdf;" horiz-adv-x="598" d="M322 420q-13 0 -22 -8.5t-9 -21.5v-61q0 -13 9 -22t22 -9h9q100 0 100 -93q0 -36 -16.5 -61t-54.5 -25q-17 0 -31 2.5t-18 2.5q-10 0 -16.5 -6.5t-6.5 -16.5v-75q0 -24 25 -30q24 -6 67 -6q87 0 137.5 53t50.5 143q0 133 -103 175q71 36 71 148q0 88 -55.5 139.5 t-164.5 51.5q-63 0 -108.5 -17.5t-70.5 -48t-36.5 -63.5t-13.5 -71h-51q-13 0 -22 -9t-9 -22v-58q0 -13 9 -22t22 -9h51v-359q0 -21 31 -21h83q13 0 22 9t9 22v444q0 52 20 73.5t65 21.5q84 0 84 -75q0 -41 -17.5 -58t-52.5 -17h-9z" />
<glyph unicode="&#xe0;" horiz-adv-x="500" d="M119 700q-16 0 -16 -13q0 -7 4 -12l79 -108q8 -11 21 -11h85q13 0 13 12q0 4 -4 12l-45 101q-8 19 -30 19h-107zM450 31q0 -13 -9 -22t-22 -9h-71q-13 0 -22 9t-9 22v16q-14 -27 -45.5 -42t-68.5 -15h-11q-68 0 -115 35.5t-47 120.5q6 159 221 157h66v16q0 71 -77 71 q-21 0 -34.5 -7t-17 -13.5t-7.5 -18.5q-5 -18 -23 -18h-87q-10 0 -16.5 6t-6.5 16q0 9 3 19q6 21 10 32t18.5 34t32.5 35.5t51.5 23.5t76.5 11q210 0 210 -195v-284zM256 203q-22 0 -33.5 -1t-28 -6t-24 -17.5t-7.5 -32.5q0 -46 63 -46h12q28 0 45 6t24 20.5t8.5 26.5 t1.5 35v15h-61z" />
<glyph unicode="&#xe1;" horiz-adv-x="500" d="M391 700q16 0 16 -13q0 -7 -4 -12l-79 -108q-8 -11 -21 -11h-85q-13 0 -13 12q0 4 4 12l45 101q8 19 30 19h107zM450 31q0 -13 -9 -22t-22 -9h-71q-13 0 -22 9t-9 22v16q-14 -27 -45.5 -42t-68.5 -15h-11q-68 0 -115 35.5t-47 120.5q6 159 221 157h66v16q0 71 -77 71 q-21 0 -34.5 -7t-17 -13.5t-7.5 -18.5q-5 -18 -23 -18h-87q-10 0 -16.5 6t-6.5 16q0 9 3 19q6 21 10 32t18.5 34t32.5 35.5t51.5 23.5t76.5 11q210 0 210 -195v-284zM256 203q-22 0 -33.5 -1t-28 -6t-24 -17.5t-7.5 -32.5q0 -46 63 -46h12q28 0 45 6t24 20.5t8.5 26.5 t1.5 35v15h-61z" />
<glyph unicode="&#xe2;" horiz-adv-x="500" d="M121 556q-13 0 -13 12q0 5 4 12l65 101q12 19 35 19h92q18 0 30 -19l66 -104q3 -5 3 -9q0 -12 -13 -12h-75q-11 0 -21 11l-39 50l-38 -50q-8 -11 -21 -11h-75zM240 510q210 0 210 -195v-284q0 -13 -9 -22t-22 -9h-71q-13 0 -22 9t-9 22v16q-14 -27 -45.5 -42t-68.5 -15 h-11q-68 0 -115 35.5t-47 120.5q6 159 221 157h66v16q0 71 -77 71q-21 0 -34.5 -7t-17 -13.5t-7.5 -18.5q-5 -18 -23 -18h-87q-10 0 -16.5 6t-6.5 16q0 9 3 19q6 21 10 32t18.5 34t32.5 35.5t51.5 23.5t76.5 11zM317 188v15h-61q-22 0 -33.5 -1t-28 -6t-24 -17.5t-7.5 -32.5 q0 -46 63 -46h12q28 0 45 6t24 20.5t8.5 26.5t1.5 35z" />
<glyph unicode="&#xe3;" horiz-adv-x="500" d="M97 550q-8 0 -14 6t-6 14q0 56 32 93t81 37q34 0 74 -21t50 -21q21 0 21 22q0 8 6 14t14 6h55q8 0 14 -6t6 -14q0 -60 -30.5 -95t-79.5 -35q-37 0 -74 20.5t-47 20.5q-22 0 -26 -25q-3 -16 -19 -16h-57zM450 31q0 -13 -9 -22t-22 -9h-71q-13 0 -22 9t-9 22v16 q-14 -27 -45.5 -42t-68.5 -15h-11q-68 0 -115 35.5t-47 120.5q6 159 221 157h66v16q0 71 -77 71q-21 0 -34.5 -7t-17 -13.5t-7.5 -18.5q-5 -18 -23 -18h-87q-10 0 -16.5 6t-6.5 16q0 9 3 19q6 21 10 32t18.5 34t32.5 35.5t51.5 23.5t76.5 11q210 0 210 -195v-284zM256 203 q-22 0 -33.5 -1t-28 -6t-24 -17.5t-7.5 -32.5q0 -46 63 -46h12q28 0 45 6t24 20.5t8.5 26.5t1.5 35v15h-61z" />
<glyph unicode="&#xe4;" horiz-adv-x="500" d="M155 705q32 0 52 -20t20 -52t-20 -52t-52 -20t-52 20t-20 52t20 52t52 20zM365 705q32 0 52 -20t20 -52t-20 -52t-52 -20t-52 20t-20 52t20 52t52 20zM450 31q0 -13 -9 -22t-22 -9h-71q-13 0 -22 9t-9 22v16q-14 -27 -45.5 -42t-68.5 -15h-11q-68 0 -115 35.5t-47 120.5 q6 159 221 157h66v16q0 71 -77 71q-21 0 -34.5 -7t-17 -13.5t-7.5 -18.5q-5 -18 -23 -18h-87q-10 0 -16.5 6t-6.5 16q0 9 3 19q6 21 10 32t18.5 34t32.5 35.5t51.5 23.5t76.5 11q210 0 210 -195v-284zM256 203q-22 0 -33.5 -1t-28 -6t-24 -17.5t-7.5 -32.5q0 -46 63 -46h12 q28 0 45 6t24 20.5t8.5 26.5t1.5 35v15h-61z" />
<glyph unicode="&#xe5;" horiz-adv-x="500" d="M255 777q50 0 85 -35t35 -85t-35 -84.5t-85 -34.5t-84.5 34.5t-34.5 84.5t34.5 85t84.5 35zM255 620q15 0 25.5 10.5t10.5 26.5q0 15 -10.5 25.5t-25.5 10.5q-16 0 -26.5 -10.5t-10.5 -25.5q0 -16 10.5 -26.5t26.5 -10.5zM450 31q0 -13 -9 -22t-22 -9h-71q-13 0 -22 9 t-9 22v16q-14 -27 -45.5 -42t-68.5 -15h-11q-68 0 -115 35.5t-47 120.5q6 159 221 157h66v16q0 71 -77 71q-21 0 -34.5 -7t-17 -13.5t-7.5 -18.5q-5 -18 -23 -18h-87q-10 0 -16.5 6t-6.5 16q0 9 3 19q6 21 10 32t18.5 34t32.5 35.5t51.5 23.5t76.5 11q210 0 210 -195v-284z M256 203q-22 0 -33.5 -1t-28 -6t-24 -17.5t-7.5 -32.5q0 -46 63 -46h12q28 0 45 6t24 20.5t8.5 26.5t1.5 35v15h-61z" />
<glyph unicode="&#xe6;" horiz-adv-x="791" d="M539 510q90 0 153.5 -66.5t63.5 -162.5v-43q0 -13 -9 -22t-22 -9h-268v-7q0 -38 24 -64t58 -26q21 0 34 7t31 25t32 18h86q10 0 16 -6.5t6 -16.5q0 -7 -6 -19q-29 -63 -83 -95.5t-116 -32.5q-101 0 -157 78q-23 -41 -67.5 -59.5t-91.5 -18.5h-11q-31 0 -60.5 7t-58 23.5 t-46 49t-17.5 76.5q0 154 211 154h71v19q0 71 -72 71q-21 0 -34.5 -7t-17 -13.5t-7.5 -18.5q-5 -18 -23 -18h-87q-10 0 -16.5 6t-6.5 16q0 9 3 19q6 21 10 32t18.5 34t32.5 35.5t51.5 23.5t76.5 11q105 0 153 -66q61 66 146 66zM616 301v7q0 37 -22 59.5t-55 22.5 q-35 0 -58.5 -23t-23.5 -60v-6h159zM238 100q36 0 54.5 21.5t19.5 78.5h-66q-23 0 -38.5 -2.5t-30 -15.5t-14.5 -36q0 -46 63 -46h12z" />
<glyph unicode="&#xe7;" horiz-adv-x="506" d="M453 199q10 0 16 -6.5t6 -16.5q0 -11 -2 -19q-12 -63 -67 -113.5t-139 -53.5l-13 -35q13 4 30 4q34 0 61.5 -20t27.5 -59v-3q0 -38 -27.5 -62.5t-82.5 -24.5q-60 0 -90 30q-9 9 0 22l16 22q9 12 23 1q20 -14 46 -14q34 0 34 26v1q0 11 -9.5 18t-21.5 7q-17 0 -31 -7.5 t-17 -7.5q-4 0 -8 2l-25 11q-10 4 -5 18l28 78q-74 18 -121 79t-47 148v52q0 103 64.5 168.5t158.5 65.5q76 0 135.5 -44t79.5 -123q3 -14 3 -20q0 -22 -21 -22h-93q-18 0 -22 18q-6 31 -27 51t-55 20q-36 0 -59.5 -24.5t-23.5 -68.5v-94q0 -44 23.5 -68.5t59.5 -24.5 q34 0 55 19.5t26 51.5q3 18 20 18h94z" />
<glyph unicode="&#xe8;" horiz-adv-x="521" d="M125 700q-16 0 -16 -13q0 -7 4 -12l79 -108q8 -11 21 -11h85q13 0 13 12q0 4 -4 12l-45 101q-8 19 -30 19h-107zM180 200q0 -38 24 -64t59 -26q24 0 38.5 7t32.5 25t32 18h86q10 0 16 -6.5t6 -16.5q0 -7 -6 -19q-29 -63 -85 -95.5t-120 -32.5q-96 0 -162 65.5t-66 168.5 v52q0 103 66 168.5t162 65.5q93 0 158 -66.5t65 -163.5v-43q0 -13 -9 -22t-22 -9h-275v-6zM346 300v8q0 37 -23.5 59.5t-59.5 22.5t-59.5 -23t-23.5 -60v-7h166z" />
<glyph unicode="&#xe9;" horiz-adv-x="521" d="M397 700q16 0 16 -13q0 -7 -4 -12l-79 -108q-8 -11 -21 -11h-85q-13 0 -13 12q0 4 4 12l45 101q8 19 30 19h107zM180 200q0 -38 24 -64t59 -26q24 0 38.5 7t32.5 25t32 18h86q10 0 16 -6.5t6 -16.5q0 -7 -6 -19q-29 -63 -85 -95.5t-120 -32.5q-96 0 -162 65.5t-66 168.5 v52q0 103 66 168.5t162 65.5q93 0 158 -66.5t65 -163.5v-43q0 -13 -9 -22t-22 -9h-275v-6zM346 300v8q0 37 -23.5 59.5t-59.5 22.5t-59.5 -23t-23.5 -60v-7h166z" />
<glyph unicode="&#xea;" horiz-adv-x="521" d="M126 556q-13 0 -13 12q0 5 4 12l65 101q12 19 35 19h92q18 0 30 -19l66 -104q3 -5 3 -9q0 -12 -13 -12h-75q-11 0 -21 11l-39 50l-38 -50q-8 -11 -21 -11h-75zM263 510q93 0 158 -66.5t65 -163.5v-43q0 -13 -9 -22t-22 -9h-275v-6q0 -38 24 -64t59 -26q24 0 38.5 7 t32.5 25t32 18h86q10 0 16 -6.5t6 -16.5q0 -7 -6 -19q-29 -63 -85 -95.5t-120 -32.5q-96 0 -162 65.5t-66 168.5v52q0 103 66 168.5t162 65.5zM346 300v8q0 37 -23.5 59.5t-59.5 22.5t-59.5 -23t-23.5 -60v-7h166z" />
<glyph unicode="&#xeb;" horiz-adv-x="521" d="M161 705q32 0 52 -20t20 -52t-20 -52t-52 -20t-52 20t-20 52t20 52t52 20zM371 705q32 0 52 -20t20 -52t-20 -52t-52 -20t-52 20t-20 52t20 52t52 20zM180 200q0 -38 24 -64t59 -26q24 0 38.5 7t32.5 25t32 18h86q10 0 16 -6.5t6 -16.5q0 -7 -6 -19q-29 -63 -85 -95.5 t-120 -32.5q-96 0 -162 65.5t-66 168.5v52q0 103 66 168.5t162 65.5q93 0 158 -66.5t65 -163.5v-43q0 -13 -9 -22t-22 -9h-275v-6zM346 300v8q0 37 -23.5 59.5t-59.5 22.5t-59.5 -23t-23.5 -60v-7h166z" />
<glyph unicode="&#xec;" d="M-4 700q-16 0 -16 -13q0 -7 4 -12l80 -108q8 -11 21 -11h85q13 0 13 12q0 4 -4 12l-45 101q-8 19 -30 19h-108zM91 0q-13 0 -22 9t-9 22v438q0 13 9 22t22 9h83q13 0 22 -9t9 -22v-438q0 -13 -9 -22t-22 -9h-83z" />
<glyph unicode="&#xed;" d="M269 700q16 0 16 -13q0 -7 -4 -12l-79 -108q-8 -11 -21 -11h-85q-13 0 -13 12q0 4 4 12l45 101q8 19 30 19h107zM91 0q-13 0 -22 9t-9 22v438q0 13 9 22t22 9h83q13 0 22 -9t9 -22v-438q0 -13 -9 -22t-22 -9h-83z" />
<glyph unicode="&#xee;" d="M277 577q3 -5 3 -9q0 -12 -13 -12h-75q-11 0 -21 11l-39 50l-38 -50q-8 -11 -21 -11h-75q-13 0 -13 12q0 5 4 12l65 101q12 19 35 19h92q18 0 30 -19zM174 500q13 0 22 -9t9 -22v-438q0 -13 -9 -22t-22 -9h-83q-13 0 -22 9t-9 22v438q0 13 9 22t22 9h83z" />
<glyph unicode="&#xef;" d="M33 705q32 0 52 -20t20 -52t-20 -52t-52 -20q-33 0 -53 20t-20 52t20 52t53 20zM243 705q32 0 52 -20t20 -52t-20 -52t-52 -20t-52 20t-20 52t20 52t52 20zM91 0q-13 0 -22 9t-9 22v438q0 13 9 22t22 9h83q13 0 22 -9t9 -22v-438q0 -13 -9 -22t-22 -9h-83z" />
<glyph unicode="&#xf0;" horiz-adv-x="526" d="M407 629q84 -79 84 -243v-162q0 -103 -66 -168.5t-162 -65.5t-162 59.5t-66 153.5v53q0 90 63.5 151t164.5 61q47 0 91 -26q-3 61 -31 95l-32 -36q-20 -23 -41 -2l-29 27q-15 15 0 33l22 24q-27 6 -58 6q-15 0 -23 9.5t-8 21.5v58q0 22 22 22h22q73 0 130 -21l31 35 q20 23 42 2l30 -27q17 -15 -4 -38zM346 203v53q0 44 -23.5 68.5t-59.5 24.5t-59.5 -24.5t-23.5 -68.5v-53q0 -44 23.5 -68.5t59.5 -24.5t59.5 24.5t23.5 68.5z" />
<glyph unicode="&#xf1;" horiz-adv-x="561" d="M123 550q-8 0 -14 6t-6 14q0 56 32 93t81 37q33 0 73.5 -21t50.5 -21q21 0 21 22q0 8 6 14t14 6h55q8 0 14 -6t6 -14q0 -60 -30.5 -95t-79.5 -35q-37 0 -74 20.5t-47 20.5q-22 0 -26 -25q-3 -16 -19 -16h-57zM86 0q-13 0 -22 9t-9 22v438q0 13 9 22t22 9h83q13 0 22 -9 t9 -22v-16q46 57 135 57t132.5 -62t43.5 -172v-245q0 -13 -9 -22t-22 -9h-83q-13 0 -22 9t-9 22v266q0 44 -23.5 68.5t-59.5 24.5t-59.5 -24.5t-23.5 -68.5v-266q0 -13 -9 -22t-22 -9h-83z" />
<glyph unicode="&#xf2;" horiz-adv-x="526" d="M127 700q-16 0 -16 -13q0 -7 4 -12l79 -108q8 -11 21 -11h85q13 0 13 12q0 4 -4 12l-45 101q-8 19 -30 19h-107zM35 276q0 103 66 168.5t162 65.5t162 -65.5t66 -168.5v-52q0 -103 -66 -168.5t-162 -65.5t-162 65.5t-66 168.5v52zM180 203q0 -44 23.5 -68.5t59.5 -24.5 t59.5 24.5t23.5 68.5v94q0 44 -23.5 68.5t-59.5 24.5t-59.5 -24.5t-23.5 -68.5v-94z" />
<glyph unicode="&#xf3;" horiz-adv-x="526" d="M399 700q16 0 16 -13q0 -7 -4 -12l-79 -108q-8 -11 -21 -11h-85q-13 0 -13 12q0 4 4 12l45 101q8 19 30 19h107zM35 276q0 103 66 168.5t162 65.5t162 -65.5t66 -168.5v-52q0 -103 -66 -168.5t-162 -65.5t-162 65.5t-66 168.5v52zM180 203q0 -44 23.5 -68.5t59.5 -24.5 t59.5 24.5t23.5 68.5v94q0 44 -23.5 68.5t-59.5 24.5t-59.5 -24.5t-23.5 -68.5v-94z" />
<glyph unicode="&#xf4;" horiz-adv-x="526" d="M129 556q-13 0 -13 12q0 5 4 12l65 101q12 19 35 19h92q18 0 30 -19l66 -104q3 -5 3 -9q0 -12 -13 -12h-75q-11 0 -21 11l-39 50l-38 -50q-8 -11 -21 -11h-75zM263 510q96 0 162 -65.5t66 -168.5v-52q0 -103 -66 -168.5t-162 -65.5t-162 65.5t-66 168.5v52 q0 103 66 168.5t162 65.5zM346 203v94q0 44 -23.5 68.5t-59.5 24.5t-59.5 -24.5t-23.5 -68.5v-94q0 -44 23.5 -68.5t59.5 -24.5t59.5 24.5t23.5 68.5z" />
<glyph unicode="&#xf5;" horiz-adv-x="526" d="M105 550q-8 0 -14 6t-6 14q0 56 32 93t81 37q34 0 74 -21t50 -21q21 0 21 22q0 8 6 14t14 6h55q8 0 14 -6t6 -14q0 -60 -30.5 -95t-79.5 -35q-37 0 -74 20.5t-47 20.5q-22 0 -26 -25q-3 -16 -19 -16h-57zM35 276q0 103 66 168.5t162 65.5t162 -65.5t66 -168.5v-52 q0 -103 -66 -168.5t-162 -65.5t-162 65.5t-66 168.5v52zM180 203q0 -44 23.5 -68.5t59.5 -24.5t59.5 24.5t23.5 68.5v94q0 44 -23.5 68.5t-59.5 24.5t-59.5 -24.5t-23.5 -68.5v-94z" />
<glyph unicode="&#xf6;" horiz-adv-x="526" d="M163 705q32 0 52 -20t20 -52t-20 -52t-52 -20t-52 20t-20 52t20 52t52 20zM373 705q32 0 52 -20t20 -52t-20 -52t-52 -20t-52 20t-20 52t20 52t52 20zM35 276q0 103 66 168.5t162 65.5t162 -65.5t66 -168.5v-52q0 -103 -66 -168.5t-162 -65.5t-162 65.5t-66 168.5v52z M180 203q0 -44 23.5 -68.5t59.5 -24.5t59.5 24.5t23.5 68.5v94q0 44 -23.5 68.5t-59.5 24.5t-59.5 -24.5t-23.5 -68.5v-94z" />
<glyph unicode="&#xf7;" horiz-adv-x="600" d="M301 645q36 0 58.5 -22.5t22.5 -58.5t-22.5 -58.5t-58.5 -22.5t-58.5 22.5t-22.5 58.5t22.5 58.5t58.5 22.5zM86 418q-13 0 -22 -9t-9 -22v-74q0 -13 9 -22t22 -9h428q13 0 22 9t9 22v74q0 13 -9 22t-22 9h-428zM301 217q36 0 58.5 -22.5t22.5 -58.5t-22.5 -58.5 t-58.5 -22.5t-58.5 22.5t-22.5 58.5t22.5 58.5t58.5 22.5z" />
<glyph unicode="&#xf8;" horiz-adv-x="526" d="M492 500q15 0 20 -12t-7 -26l-48 -58q34 -58 34 -128v-52q0 -103 -66 -168.5t-162 -65.5q-68 0 -122 34l-5 -6q-14 -18 -29 -18h-66q-15 0 -19 12t7 26l44 53q-38 57 -38 133v52q0 103 66 168.5t162 65.5q71 0 127 -37l7 9q14 18 29 18h66zM177 297v-80l134 161 q-20 14 -48 14q-38 0 -62 -25t-24 -70zM349 203v71l-129 -155q19 -11 43 -11q38 0 62 25t24 70z" />
<glyph unicode="&#xf9;" horiz-adv-x="551" d="M142 700q-16 0 -16 -13q0 -7 4 -12l79 -108q8 -11 21 -11h85q13 0 13 12q0 4 -4 12l-45 101q-8 19 -30 19h-107zM465 500q13 0 22 -9t9 -22v-438q0 -13 -9 -22t-22 -9h-83q-13 0 -22 9t-9 22v16q-23 -29 -52 -43t-76 -14q-88 0 -130.5 62t-42.5 172v245q0 13 9 22t22 9 h83q13 0 22 -9t9 -22v-266q0 -44 22.5 -68.5t57.5 -24.5t55.5 24.5t20.5 68.5v266q0 13 9 22t22 9h83z" />
<glyph unicode="&#xfa;" horiz-adv-x="551" d="M414 700q16 0 16 -13q0 -7 -4 -12l-79 -108q-8 -11 -21 -11h-85q-13 0 -13 12q0 4 4 12l45 101q8 19 30 19h107zM465 500q13 0 22 -9t9 -22v-438q0 -13 -9 -22t-22 -9h-83q-13 0 -22 9t-9 22v16q-23 -29 -52 -43t-76 -14q-88 0 -130.5 62t-42.5 172v245q0 13 9 22t22 9 h83q13 0 22 -9t9 -22v-266q0 -44 22.5 -68.5t57.5 -24.5t55.5 24.5t20.5 68.5v266q0 13 9 22t22 9h83z" />
<glyph unicode="&#xfb;" horiz-adv-x="551" d="M144 556q-13 0 -13 12q0 5 4 12l65 101q12 19 35 19h92q18 0 30 -19l66 -104q3 -5 3 -9q0 -12 -13 -12h-75q-11 0 -21 11l-39 50l-38 -50q-8 -11 -21 -11h-75zM465 500q13 0 22 -9t9 -22v-438q0 -13 -9 -22t-22 -9h-83q-13 0 -22 9t-9 22v16q-23 -29 -52 -43t-76 -14 q-88 0 -130.5 62t-42.5 172v245q0 13 9 22t22 9h83q13 0 22 -9t9 -22v-266q0 -44 22.5 -68.5t57.5 -24.5t55.5 24.5t20.5 68.5v266q0 13 9 22t22 9h83z" />
<glyph unicode="&#xfc;" horiz-adv-x="551" d="M178 705q32 0 52 -20t20 -52t-20 -52t-52 -20t-52 20t-20 52t20 52t52 20zM388 705q32 0 52 -20t20 -52t-20 -52t-52 -20t-52 20t-20 52t20 52t52 20zM465 500q13 0 22 -9t9 -22v-438q0 -13 -9 -22t-22 -9h-83q-13 0 -22 9t-9 22v16q-23 -29 -52 -43t-76 -14 q-88 0 -130.5 62t-42.5 172v245q0 13 9 22t22 9h83q13 0 22 -9t9 -22v-266q0 -44 22.5 -68.5t57.5 -24.5t55.5 24.5t20.5 68.5v266q0 13 9 22t22 9h83z" />
<glyph unicode="&#xfd;" horiz-adv-x="507" d="M217 556q-13 0 -13 12q0 4 4 12l45 101q8 19 30 19h107q16 0 16 -13q0 -7 -4 -12l-79 -108q-8 -11 -21 -11h-85zM475 500q10 0 16 -6.5t6 -16.5q0 -9 -7 -25l-169 -452q-12 -31 -14.5 -38t-12.5 -32t-14 -31t-14 -25t-16.5 -23.5t-18.5 -17t-23 -15.5t-26 -9t-32 -7.5 t-37 -1.5h-46q-13 0 -22 9t-9 22v68q0 13 9 22t22 9h35q35 0 50.5 12.5t25.5 37.5l9 22l-164 435q-13 33 -13 40q0 10 6.5 16.5t16.5 6.5h93q23 0 32 -27l101 -294l92 294q9 27 32 27h92z" />
<glyph unicode="&#xfe;" horiz-adv-x="546" d="M200 -169q0 -13 -9 -22t-22 -9h-83q-13 0 -22 9t-9 22v838q0 13 9 22t22 9h83q13 0 22 -9t9 -22v-216q48 57 135 57q85 0 130.5 -59.5t45.5 -174.5v-45q0 -117 -46.5 -179t-129.5 -62q-91 0 -135 57v-216zM200 203q0 -39 20 -66t63 -27t63 27t20 66v93q0 39 -20 66.5 t-63 27.5t-63 -27.5t-20 -66.5v-93z" />
<glyph unicode="&#xff;" horiz-adv-x="507" d="M154 561q-32 0 -52 20t-20 52t20 52t52 20t52 -20t20 -52t-20 -52t-52 -20zM364 561q-32 0 -52 20t-20 52t20 52t52 20t52 -20t20 -52t-20 -52t-52 -20zM475 500q10 0 16 -6.5t6 -16.5q0 -9 -7 -25l-169 -452q-12 -31 -14.5 -38t-12.5 -32t-14 -31t-14 -25t-16.5 -23.5 t-18.5 -17t-23 -15.5t-26 -9t-32 -7.5t-37 -1.5h-46q-13 0 -22 9t-9 22v68q0 13 9 22t22 9h35q35 0 50.5 12.5t25.5 37.5l9 22l-164 435q-13 33 -13 40q0 10 6.5 16.5t16.5 6.5h93q23 0 32 -27l101 -294l92 294q9 27 32 27h92z" />
<glyph unicode="&#x152;" horiz-adv-x="885" d="M819 564h-246v-141h186q13 0 22 -9t9 -22v-74q0 -13 -9 -22t-22 -9h-186v-151h246q13 0 22 -8.5t9 -21.5v-75q0 -13 -9 -22t-22 -9h-360h-152q-116 0 -191.5 78.5t-75.5 204.5v135q0 126 75 204t192 78h201h311q13 0 22 -9t9 -22v-74q0 -13 -9 -22t-22 -9zM185 283 q0 -69 34.5 -108t87.5 -39h121v428h-121q-52 0 -87 -39.5t-35 -108.5v-133z" />
<glyph unicode="&#x153;" horiz-adv-x="815" d="M563 510q90 0 153.5 -66.5t63.5 -162.5v-43q0 -13 -9 -22t-22 -9h-263v-7q0 -38 22.5 -64t54.5 -26q21 0 34 7t31 25t32 18h86q10 0 16 -6.5t6 -16.5q0 -7 -6 -19q-29 -63 -83 -95.5t-116 -32.5q-92 0 -148 61q-63 -61 -155 -61q-95 0 -160 65.5t-65 168.5v52 q0 103 65 168.5t160 65.5q96 0 161 -67q60 67 142 67zM340 203v94q0 44 -22.5 68.5t-57.5 24.5t-57.5 -24.5t-22.5 -68.5v-94q0 -44 22.5 -68.5t57.5 -24.5t57.5 24.5t22.5 68.5zM640 301v7q0 37 -22 59.5t-55 22.5t-55 -23t-22 -60v-6h154z" />
<glyph unicode="&#x178;" horiz-adv-x="639" d="M220 761q-32 0 -52 20t-20 52t20 52t52 20t52 -20t20 -52t-20 -52t-52 -20zM430 761q-32 0 -52 20t-20 52t20 52t52 20t52 -20t20 -52t-20 -52t-52 -20zM597 700q10 0 16 -6.5t6 -16.5q0 -9 -16 -38l-214 -381v-227q0 -13 -9 -22t-22 -9h-83q-13 0 -22 9t-9 22v229 l-209 383q-15 30 -15 34q0 10 6.5 16.5t16.5 6.5h106q14 0 24 -18l147 -286l152 287q10 17 26 17h99z" />
<glyph unicode="&#x2c6;" horiz-adv-x="355" d="M322 577q3 -5 3 -9q0 -12 -13 -12h-75q-11 0 -21 11l-39 50l-38 -50q-8 -11 -21 -11h-75q-13 0 -13 12q0 5 4 12l65 101q12 19 35 19h92q18 0 30 -19z" />
<glyph unicode="&#x2dc;" horiz-adv-x="488" d="M86 550q-8 0 -14 6t-6 14q0 56 32 93t81 37q34 0 74.5 -21t49.5 -21q21 0 21 22q0 8 6 14t14 6h55q8 0 14 -6t6 -14q0 -60 -30.5 -95t-79.5 -35q-37 0 -74 20.5t-47 20.5q-22 0 -26 -25q-3 -16 -19 -16h-57z" />
<glyph unicode="&#x2000;" horiz-adv-x="488" />
<glyph unicode="&#x2001;" horiz-adv-x="977" />
<glyph unicode="&#x2002;" horiz-adv-x="488" />
<glyph unicode="&#x2003;" horiz-adv-x="977" />
<glyph unicode="&#x2004;" horiz-adv-x="325" />
<glyph unicode="&#x2005;" horiz-adv-x="244" />
<glyph unicode="&#x2006;" horiz-adv-x="162" />
<glyph unicode="&#x2007;" horiz-adv-x="162" />
<glyph unicode="&#x2008;" horiz-adv-x="122" />
<glyph unicode="&#x2009;" horiz-adv-x="195" />
<glyph unicode="&#x200a;" horiz-adv-x="54" />
<glyph unicode="&#x2010;" horiz-adv-x="353" d="M318 263q0 -13 -9 -22t-22 -9h-221q-13 0 -22 9t-9 22v78q0 13 9 22t22 9h221q13 0 22 -9t9 -22v-78z" />
<glyph unicode="&#x2011;" horiz-adv-x="353" d="M318 263q0 -13 -9 -22t-22 -9h-221q-13 0 -22 9t-9 22v78q0 13 9 22t22 9h221q13 0 22 -9t9 -22v-78z" />
<glyph unicode="&#x2012;" horiz-adv-x="353" d="M318 263q0 -13 -9 -22t-22 -9h-221q-13 0 -22 9t-9 22v78q0 13 9 22t22 9h221q13 0 22 -9t9 -22v-78z" />
<glyph unicode="&#x2013;" horiz-adv-x="500" d="M465 263q0 -13 -9 -22t-22 -9h-368q-13 0 -22 9t-9 22v78q0 13 9 22t22 9h368q13 0 22 -9t9 -22v-78z" />
<glyph unicode="&#x2014;" horiz-adv-x="1000" d="M965 263q0 -13 -9 -22t-22 -9h-868q-13 0 -22 9t-9 22v78q0 13 9 22t22 9h868q13 0 22 -9t9 -22v-78z" />
<glyph unicode="&#x2018;" horiz-adv-x="281" d="M140 358q-90 0 -90 117q0 47 13.5 86.5t33 64t42.5 42t42 24.5t31 7q11 0 11 -15v-55q0 -18 -18 -26q-20 -9 -30.5 -22.5t-13 -23t-5.5 -28.5q34 -6 52 -29.5t18 -55.5q0 -38 -24 -62t-62 -24z" />
<glyph unicode="&#x2019;" horiz-adv-x="281" d="M141 700q90 0 90 -117q0 -47 -13.5 -86.5t-33 -64t-42.5 -42t-42 -24.5t-31 -7q-11 0 -11 15v55q0 18 18 26q20 9 30.5 22.5t13 23t5.5 28.5q-34 6 -52 29.5t-18 55.5q0 38 24 62t62 24z" />
<glyph unicode="&#x201a;" horiz-adv-x="282" d="M141 162q90 0 90 -117q0 -47 -13.5 -86.5t-33 -64t-42.5 -42t-42 -24.5t-31 -7q-11 0 -11 15v55q0 18 18 26q20 9 30.5 22.5t13 23t5.5 28.5q-34 6 -52 29.5t-18 55.5q0 38 24 62t62 24z" />
<glyph unicode="&#x201c;" horiz-adv-x="511" d="M140 358q-90 0 -90 117q0 47 13.5 86.5t33 64t42.5 42t42 24.5t31 7q11 0 11 -15v-55q0 -18 -18 -26q-20 -9 -30.5 -22.5t-13 -23t-5.5 -28.5q34 -6 52 -29.5t18 -55.5q0 -38 -24 -62t-62 -24zM370 358q-90 0 -90 117q0 47 13.5 86.5t33 64t42.5 42t42 24.5t31 7 q11 0 11 -15v-55q0 -18 -18 -26q-20 -9 -30.5 -22.5t-13 -23t-5.5 -28.5q34 -6 52 -29.5t18 -55.5q0 -38 -24 -62t-62 -24z" />
<glyph unicode="&#x201d;" horiz-adv-x="511" d="M136 700q90 0 90 -117q0 -47 -13.5 -86.5t-33 -64t-42.5 -42t-42 -24.5t-31 -7q-11 0 -11 15v55q0 18 18 26q20 9 30.5 22.5t13 23t5.5 28.5q-34 6 -52 29.5t-18 55.5q0 38 24 62t62 24zM366 700q90 0 90 -117q0 -47 -13.5 -86.5t-33 -64t-42.5 -42t-42 -24.5t-31 -7 q-11 0 -11 15v55q0 18 18 26q20 9 30.5 22.5t13 23t5.5 28.5q-34 6 -52 29.5t-18 55.5q0 38 24 62t62 24z" />
<glyph unicode="&#x201e;" horiz-adv-x="511" d="M136 162q90 0 90 -117q0 -47 -13.5 -86.5t-33 -64t-42.5 -42t-42 -24.5t-31 -7q-11 0 -11 15v55q0 18 18 26q20 9 30.5 22.5t13 23t5.5 28.5q-34 6 -52 29.5t-18 55.5q0 38 24 62t62 24zM366 162q90 0 90 -117q0 -47 -13.5 -86.5t-33 -64t-42.5 -42t-42 -24.5t-31 -7 q-11 0 -11 15v55q0 18 18 26q20 9 30.5 22.5t13 23t5.5 28.5q-34 6 -52 29.5t-18 55.5q0 38 24 62t62 24z" />
<glyph unicode="&#x2022;" horiz-adv-x="292" d="M146 387q50 0 80.5 -30.5t30.5 -80.5t-30.5 -80.5t-80.5 -30.5t-80.5 30.5t-30.5 80.5t30.5 80.5t80.5 30.5z" />
<glyph unicode="&#x2026;" horiz-adv-x="782" d="M141 162q38 0 62 -24t24 -62t-24 -62t-62 -24t-62 24t-24 62t24 62t62 24zM391 162q38 0 62 -24t24 -62t-24 -62t-62 -24t-62 24t-24 62t24 62t62 24zM641 162q38 0 62 -24t24 -62t-24 -62t-62 -24t-62 24t-24 62t24 62t62 24z" />
<glyph unicode="&#x202f;" horiz-adv-x="195" />
<glyph unicode="&#x2039;" horiz-adv-x="334" d="M299 360q0 -15 -11 -21l-138 -86l138 -85q11 -7 11 -21v-109q0 -13 -12 -13q-5 0 -12 4l-231 148q-19 11 -19 32v85q0 19 19 30l234 149q4 3 9 3q12 0 12 -13v-103z" />
<glyph unicode="&#x203a;" horiz-adv-x="334" d="M290 323q19 -11 19 -32v-85q0 -19 -19 -30l-234 -149q-5 -3 -9 -3q-12 0 -12 13v103q0 15 11 21l138 86l-138 85q-11 7 -11 21v109q0 13 12 13q5 0 12 -4z" />
<glyph unicode="&#x205f;" horiz-adv-x="244" />
<glyph unicode="&#x20ac;" horiz-adv-x="660" d="M603 250q10 0 16.5 -7.5t5.5 -16.5q-7 -95 -79 -165.5t-186 -70.5q-107 0 -182 64.5t-91 172.5h-56q-13 0 -22 9t-9 22v33q0 13 9 22t22 9h52v55h-52q-13 0 -22 9t-9 22v33q0 13 9 22t22 9h58q19 104 93 166t178 62q115 0 186 -69.5t77 -165.5q2 -25 -22 -25h-102 q-21 0 -25 27q-7 41 -35 69t-79 28q-42 0 -74.5 -24t-47.5 -68h144q9 0 16.5 -7.5t7.5 -16.5v-47q0 -9 -7.5 -16.5t-16.5 -7.5h-154v-55h154q9 0 16.5 -7.5t7.5 -16.5v-47q0 -9 -7.5 -16.5t-16.5 -7.5h-147q12 -48 46 -74.5t79 -26.5q52 0 81 27t33 66q4 31 26 31h103z" />
<glyph unicode="&#x2122;" horiz-adv-x="612" d="M221 700q13 0 13 -13v-52q0 -12 -13 -12h-60v-202q0 -13 -11 -13h-62q-13 0 -13 13v202h-59q-11 0 -11 12v52q0 13 11 13h205zM579 700q5 0 9 -4t4 -9v-266q0 -13 -13 -13h-54q-11 0 -11 13v180l-49 -184q-2 -9 -10 -9h-48q-8 0 -11 8l-48 184v-179q0 -13 -13 -13h-54 q-11 0 -11 13v266q0 13 11 13h92q11 0 15.5 -3.5t7.5 -14.5l35 -130l37 130q3 11 7.5 14.5t15.5 3.5h88z" />
<glyph unicode="&#x25fc;" horiz-adv-x="500" d="M0 500h500v-500h-500v500z" />
</font>
</defs>
</svg>
